# Object Export From Tinkercad Server 2015

mtllib obj.mtl

o obj_0
v 20 		11.998 		12.003
v 20 		17.003 		12.003
v 19.003 		-10.003 		2.998
v 19.003 		0.003 		2.998
v 19.003 		19.003 		0
v 9 		7 		20
v 9 		7 		0
v 9 		-3 		0
v 9 		-3 		20
v 9 		-9 		20
v 10 		-3 		0
v 10 		7 		0
v 19.003 		-19.003 		0
v 10 		-19 		0
v 9 		-19 		0
v 9 		-9 		0
v 10 		-9 		0
v -20 		20 		20
v 20 		-10.003 		11.003
v 20 		0.003 		11.003
v 9 		-19 		20
v 19.003 		-19.003 		20
v 19.003 		-10.003 		11.003
v -20 		20 		0
v -19.003 		-17.003 		11.003
v 19.003 		0.003 		11.003
v -20 		-17.003 		11.003
v -20 		-12.998 		11.003
v 19.003 		11.998 		12.003
v 19.003 		11.998 		0
v 20 		-20 		0
v 19 		7 		0
v -19.003 		-12.998 		11.003
v 20 		0.003 		2.998
v 19.003 		17.003 		0
v 19.003 		17.003 		12.003
v 19.003 		19.003 		20
v -9 		7 		0
v -9 		7 		20
v -20 		-20 		20
v -9 		8 		20
v 20 		-10.003 		2.998
v 20 		11.998 		0
v -9 		8 		0
v 20 		17.003 		0
v 20 		20 		0
v -19 		-6 		20
v 20 		-20 		20
v -19 		-6 		0
v -19 		-7 		0
v -19 		-7 		20
v -19.003 		19.003 		20
v 19 		8 		0
v -19.003 		19.003 		0
v 20 		20 		20
v -19.003 		-19.003 		20
v -4 		-7 		20
v -4 		-6 		20
v -19.003 		-19.003 		0
v 19 		8 		20
v 19 		7 		20
v -19.003 		-12.998 		0
v -20 		-12.998 		0
v -19.003 		-17.003 		0
v -20 		-17.003 		0
v 10 		-3 		20
v -20 		-20 		0
v 10 		7 		20
v 10 		-19 		20
v 10 		-9 		20
v -4 		-6 		0
v -4 		-7 		0
# 72 vertices

g group_0_15277357

usemtl color_15277357
s 0

f 2 	55 	1
f 30 	13 	4
f 6 	7 	8
f 6 	8 	9
f 11 	8 	7
f 11 	7 	12
f 14 	15 	16
f 14 	16 	17
f 48 	19 	20
f 10 	16 	15
f 10 	15 	21
f 13 	22 	23
f 13 	23 	3
f 3 	4 	13
f 37 	29 	26
f 4 	26 	29
f 30 	4 	29
f 31 	13 	43
f 30 	43 	13
f 25 	27 	28
f 25 	28 	33
f 37 	5 	36
f 35 	36 	5
f 27 	40 	28
f 18 	28 	40
f 1 	29 	36
f 1 	36 	2
f 38 	39 	41
f 38 	41 	44
f 42 	31 	34
f 45 	35 	5
f 45 	5 	46
f 29 	1 	43
f 29 	43 	30
f 47 	49 	50
f 47 	50 	51
f 51 	50 	57
f 47 	51 	57
f 47 	71 	49
f 43 	34 	31
f 42 	19 	31
f 48 	31 	19
f 19 	23 	26
f 19 	26 	20
f 44 	53 	7
f 38 	44 	7
f 12 	7 	53
f 32 	12 	53
f 34 	4 	3
f 34 	3 	42
f 43 	1 	34
f 20 	34 	1
f 1 	55 	20
f 57 	58 	47
f 23 	19 	42
f 23 	42 	3
f 52 	54 	5
f 45 	46 	2
f 46 	55 	2
f 48 	20 	55
f 4 	34 	20
f 4 	20 	26
f 48 	22 	40
f 45 	2 	36
f 45 	36 	35
f 36 	29 	37
f 56 	22 	13
f 53 	60 	61
f 53 	61 	32
f 54 	52 	33
f 54 	33 	62
f 18 	24 	28
f 63 	28 	24
f 56 	40 	22
f 56 	59 	25
f 64 	25 	59
f 52 	18 	56
f 40 	56 	18
f 26 	23 	22
f 26 	22 	37
f 9 	66 	68
f 9 	68 	6
f 65 	67 	27
f 40 	27 	67
f 52 	56 	33
f 25 	33 	56
f 48 	55 	37
f 50 	49 	71
f 33 	28 	63
f 33 	63 	62
f 21 	69 	70
f 21 	70 	10
f 48 	37 	22
f 27 	25 	64
f 27 	64 	65
f 37 	55 	52
f 18 	52 	55
f 5 	54 	46
f 24 	46 	54
f 39 	6 	41
f 60 	41 	6
f 60 	6 	68
f 60 	68 	61
f 62 	63 	54
f 63 	24 	54
f 66 	11 	12
f 66 	12 	68
f 69 	14 	17
f 69 	17 	70
f 65 	64 	59
f 65 	59 	67
f 40 	67 	48
f 57 	72 	71
f 57 	71 	58
f 71 	72 	50
f 31 	48 	67
f 57 	50 	72
f 58 	71 	47
f 59 	13 	67
f 31 	67 	13
f 56 	13 	59
f 18 	55 	24
f 21 	15 	14
f 21 	14 	69
f 9 	8 	11
f 9 	11 	66
f 70 	17 	16
f 70 	16 	10
f 68 	12 	32
f 68 	32 	61
f 39 	7 	6
f 7 	39 	38
f 46 	24 	55
f 52 	5 	37
f 60 	53 	44
f 60 	44 	41
# 136 faces

 #end of obj_0

