# Object Export From Tinkercad Server 2015

mtllib Island_Roof_Concrete.mtl

o obj_0
v 3.756 		-21.684 		21.5
v 3.756 		-21.684 		20.5
v -2.256 		-21.684 		20.5
v -2.256 		-21.684 		21.5
v -2.256 		-15.674 		20.5
v -2.256 		-15.674 		21.5
v 3.756 		-15.674 		21.5
v 3.756 		-15.674 		20.5
v 19.75 		-40 		21.5
v 19.75 		-40 		20.5
v 19.75 		0 		20.5
v 19.75 		0 		21.5
v -20.25 		0 		21.5
v -20.25 		0 		20.5
v -20.25 		-40 		20.5
v -20.25 		-40 		21.5
# 16 vertices

g group_0_15277357

usemtl color_15277357
s 0

f 1 	2 	3
f 1 	3 	4
f 5 	6 	4
f 5 	4 	3
f 2 	1 	7
f 2 	7 	8
f 9 	10 	11
f 9 	11 	12
f 13 	14 	15
f 13 	15 	16
f 14 	11 	5
f 2 	10 	3
f 15 	14 	3
f 5 	3 	14
f 15 	3 	10
f 8 	11 	2
f 8 	5 	11
f 10 	2 	11
f 7 	12 	6
f 4 	9 	1
f 6 	13 	4
f 13 	16 	4
f 9 	4 	16
f 13 	6 	12
f 12 	7 	1
f 12 	1 	9
f 13 	12 	14
f 11 	14 	12
f 15 	10 	9
f 16 	15 	9
f 6 	5 	8
f 6 	8 	7
# 32 faces

 #end of obj_0

