# Blender 5.2.0 LTS
# www.blender.org
mtllib Oregani_Hard_Walls.mtl
o obj_0
v -1.000000 -15.999998 20.000002
v -1.000000 -14.999998 20.000002
v -1.000000 -16.000000 0.000001
v -1.000000 -15.000000 0.000001
v -10.000000 -14.999998 20.000002
v -10.000000 -15.999998 20.000002
v -10.000000 -15.000000 0.000001
v -10.000000 -16.000000 0.000001
vn 1.0000 -0.0000 -0.0000
vn -1.0000 -0.0000 -0.0000
vn -0.0000 -0.0000 1.0000
vn -0.0000 -0.0000 -1.0000
vn -0.0000 -1.0000 -0.0000
vn -0.0000 1.0000 -0.0000
s 0
usemtl color_2829873
f 1//1 3//1 2//1
f 3//1 4//1 2//1
f 5//2 7//2 6//2
f 7//2 8//2 6//2
f 5//3 6//3 2//3
f 6//3 1//3 2//3
f 8//4 7//4 3//4
f 7//4 4//4 3//4
f 6//5 8//5 1//5
f 8//5 3//5 1//5
f 2//6 4//6 5//6
f 4//6 7//6 5//6
o obj_1
v 12.000000 -35.000000 20.000002
v 12.000000 -14.999998 20.000002
v 12.000000 -35.000000 0.000003
v 12.000000 -15.000000 0.000001
v 13.000000 -14.999998 20.000002
v 13.000000 -35.000000 20.000002
v 13.000000 -15.000000 0.000001
v 13.000000 -35.000000 0.000003
vn -1.0000 -0.0000 -0.0000
vn 1.0000 -0.0000 -0.0000
vn -0.0000 -0.0000 1.0000
vn -0.0000 -0.0000 -1.0000
vn -0.0000 -1.0000 -0.0000
vn -0.0000 1.0000 -0.0000
s 0
usemtl color_2829873
f 11//7 9//7 10//7
f 12//7 11//7 10//7
f 15//8 13//8 14//8
f 16//8 15//8 14//8
f 14//9 13//9 10//9
f 9//9 14//9 10//9
f 15//10 16//10 11//10
f 12//10 15//10 11//10
f 16//11 14//11 9//11
f 11//11 16//11 9//11
f 12//12 10//12 13//12
f 15//12 12//12 13//12
o obj_2
v 24.000000 0.000002 20.000000
v 24.000000 1.000002 20.000000
v 24.000000 0.000000 0.000000
v 24.000000 1.000000 -0.000000
v 10.000000 1.000002 20.000000
v 10.000000 0.000002 20.000000
v 10.000000 1.000000 -0.000000
v 10.000000 0.000000 0.000000
vn 1.0000 -0.0000 -0.0000
vn -1.0000 -0.0000 -0.0000
vn -0.0000 -0.0000 1.0000
vn -0.0000 -0.0000 -1.0000
vn -0.0000 -1.0000 -0.0000
vn -0.0000 1.0000 -0.0000
s 0
usemtl color_2829873
f 17//13 19//13 18//13
f 19//13 20//13 18//13
f 21//14 23//14 22//14
f 23//14 24//14 22//14
f 21//15 22//15 18//15
f 22//15 17//15 18//15
f 24//16 23//16 19//16
f 23//16 20//16 19//16
f 22//17 24//17 17//17
f 24//17 19//17 17//17
f 18//18 20//18 21//18
f 20//18 23//18 21//18
o obj_3
v 25.000000 -10.999998 20.000000
v 25.000000 1.000002 20.000000
v 25.000000 -11.000000 0.000001
v 25.000000 1.000000 -0.000000
v 24.000000 1.000002 20.000000
v 24.000000 -10.999998 20.000000
v 24.000000 1.000000 -0.000000
v 24.000000 -11.000000 0.000001
vn 1.0000 -0.0000 -0.0000
vn -1.0000 -0.0000 -0.0000
vn -0.0000 -0.0000 1.0000
vn -0.0000 -0.0000 -1.0000
vn -0.0000 -1.0000 -0.0000
vn -0.0000 1.0000 -0.0000
s 0
usemtl color_2829873
f 25//19 27//19 26//19
f 27//19 28//19 26//19
f 29//20 31//20 30//20
f 31//20 32//20 30//20
f 29//21 30//21 26//21
f 30//21 25//21 26//21
f 32//22 31//22 27//22
f 31//22 28//22 27//22
f 30//23 32//23 25//23
f 32//23 27//23 25//23
f 26//24 28//24 29//24
f 28//24 31//24 29//24
o obj_4
v 35.000000 -10.999998 20.000000
v 35.000000 -9.999998 20.000000
v 35.000000 -11.000000 0.000001
v 35.000000 -10.000000 0.000001
v 25.000000 -9.999998 20.000000
v 25.000000 -10.999998 20.000000
v 25.000000 -10.000000 0.000001
v 25.000000 -11.000000 0.000001
vn 1.0000 -0.0000 -0.0000
vn -1.0000 -0.0000 -0.0000
vn -0.0000 -0.0000 1.0000
vn -0.0000 -0.0000 -1.0000
vn -0.0000 -1.0000 -0.0000
vn -0.0000 1.0000 -0.0000
s 0
usemtl color_2829873
f 33//25 35//25 34//25
f 35//25 36//25 34//25
f 37//26 39//26 38//26
f 39//26 40//26 38//26
f 37//27 38//27 34//27
f 38//27 33//27 34//27
f 40//28 39//28 35//28
f 39//28 36//28 35//28
f 38//29 40//29 33//29
f 40//29 35//29 33//29
f 34//30 36//30 37//30
f 36//30 39//30 37//30
o obj_5
v 13.188000 35.202999 19.999998
v 13.188000 37.500000 19.999998
v 13.188000 37.500000 -0.000003
v 13.188000 35.202999 -0.000003
v 32.001999 -35.202999 12.745003
v 25.997999 -35.202999 12.745003
v 25.997999 -35.202999 0.000003
v -0.998000 -35.202999 0.000003
v -0.998000 -35.202999 20.000002
v 35.202999 -35.202999 20.000002
v 35.202999 -35.202999 0.000003
v 32.001999 -35.202999 0.000003
v -0.998000 -37.500000 20.000002
v -0.998000 -37.500000 0.000003
v -35.202999 -33.222000 0.000003
v -37.500000 -33.222000 0.000003
v -37.500000 -33.222000 13.003003
v -35.202999 -33.222000 13.003003
v 32.001999 -37.500000 12.745003
v 25.997999 -37.500000 12.745003
v -11.000000 -22.000000 0.000002
v -11.000000 -21.999998 20.000002
v -11.000000 -7.999999 20.000000
v -11.000000 -8.000000 0.000001
v 25.997999 -37.500000 0.000003
v 32.001999 -37.500000 0.000003
v -10.000000 -7.999999 20.000000
v -10.000000 -21.999998 20.000002
v 35.202999 22.003002 15.002998
v 35.202999 14.373001 15.002999
v 35.202999 14.373000 1.982999
v 35.202999 22.003000 1.982998
v -10.000000 -22.000000 0.000002
v -10.000000 -8.000000 0.000001
v 35.202999 -32.794998 20.000002
v 35.202999 -32.794998 0.000002
v 35.202999 -12.790000 0.000001
v -37.500000 -37.500000 20.000002
v -37.500000 -37.500000 0.000003
v 35.202999 -12.789998 20.000002
v 37.500000 14.373001 15.002999
v 37.500000 22.003002 15.002998
v 35.202999 35.202999 -0.000003
v 37.500000 37.500000 -0.000003
v 37.500000 -37.500000 0.000003
v 37.500000 -37.500000 20.000002
v -6.817000 37.500000 19.999998
v -6.817000 37.500000 -0.000003
v 37.500000 37.500000 19.999998
v -6.817000 35.202999 -0.000003
v -6.817000 35.202999 19.999998
v 35.202999 35.202999 19.999998
v 37.500000 22.003000 1.982998
v 37.500000 14.373000 1.982999
v 37.500000 -32.794998 20.000002
v 37.500000 -32.794998 0.000002
v 37.500000 -12.790000 0.000001
v 37.500000 -12.789998 20.000002
v -37.500000 -25.997997 13.003002
v -37.500000 37.500000 19.999998
v -37.500000 37.500000 -0.000003
v -37.500000 -25.997999 0.000002
v -35.202999 35.202999 19.999998
v -35.202999 35.202999 -0.000003
v -21.003000 -37.500000 20.000002
v -21.003000 -35.202999 20.000002
v -35.202999 -35.202999 20.000002
v -21.003000 -35.202999 0.000003
v -35.202999 -35.202999 0.000003
v -21.003000 -37.500000 0.000003
v -35.202999 -25.997997 13.003002
v -35.202999 -25.997999 0.000002
vn -1.0000 -0.0000 -0.0000
vn -0.0000 1.0000 -0.0000
vn -0.0000 -0.0000 -1.0000
vn 1.0000 -0.0000 -0.0000
vn -0.0000 -0.0000 1.0000
vn -0.0000 -1.0000 -0.0000
s 0
usemtl color_2829873
f 41//31 42//31 43//31
f 41//31 43//31 44//31
f 49//32 50//32 46//32
f 47//32 48//32 46//32
f 48//32 49//32 46//32
f 52//32 45//32 51//32
f 50//32 51//32 45//32
f 45//32 46//32 50//32
f 53//31 49//31 48//31
f 53//31 48//31 54//31
f 55//32 56//32 57//32
f 55//32 57//32 58//32
f 45//33 59//33 60//33
f 45//33 60//33 46//33
f 61//31 62//31 63//31
f 61//31 63//31 64//31
f 46//34 60//34 65//34
f 46//34 65//34 47//34
f 59//31 45//31 52//31
f 59//31 52//31 66//31
f 67//35 63//35 62//35
f 67//35 62//35 68//35
f 80//31 92//31 70//31
f 101//33 88//33 104//33
f 83//31 71//31 72//31
f 73//33 61//33 64//33
f 73//33 64//33 74//33
f 51//31 50//31 75//31
f 51//31 75//31 76//31
f 87//32 88//32 101//32
f 77//31 80//31 70//31
f 77//31 70//31 71//31
f 77//31 71//31 83//31
f 67//32 74//32 64//32
f 67//32 64//32 63//32
f 56//31 79//31 57//31
f 79//31 78//31 57//31
f 100//31 99//31 78//31
f 82//34 89//34 81//34
f 59//36 86//36 60//36
f 53//36 60//36 86//36
f 65//36 60//36 54//36
f 53//36 54//36 60//36
f 66//36 85//36 59//36
f 86//36 59//36 85//36
f 42//32 84//32 43//32
f 89//32 84//32 42//32
f 91//36 104//36 90//36
f 41//36 44//36 83//36
f 41//36 83//36 92//36
f 87//34 91//34 90//34
f 87//34 90//34 88//34
f 62//36 61//36 73//36
f 62//36 73//36 68//36
f 92//31 83//31 69//31
f 69//31 70//31 92//31
f 72//31 69//31 83//31
f 81//33 70//33 69//33
f 81//33 69//33 82//33
f 93//35 72//35 71//35
f 93//35 71//35 94//35
f 70//32 81//32 94//32
f 70//32 94//32 71//32
f 95//32 96//32 76//32
f 95//32 76//32 75//32
f 97//36 98//36 80//36
f 97//36 80//36 77//36
f 72//36 93//36 82//36
f 72//36 82//36 69//36
f 74//34 67//34 68//34
f 74//34 68//34 73//34
f 57//31 78//31 99//31
f 102//31 99//31 101//31
f 100//31 101//31 99//31
f 97//34 84//34 94//34
f 93//34 94//34 84//34
f 95//35 75//35 50//35
f 95//35 50//35 86//35
f 86//34 85//34 96//34
f 86//34 96//34 95//34
f 87//32 101//32 100//32
f 89//35 42//35 92//35
f 80//35 98//35 92//35
f 89//35 92//35 98//35
f 94//34 81//34 97//34
f 98//34 97//34 81//34
f 88//33 90//33 104//33
f 93//34 84//34 82//34
f 84//34 89//34 82//34
f 98//34 81//34 89//34
f 103//36 104//36 91//36
f 100//35 103//35 87//35
f 44//33 43//33 83//33
f 84//33 83//33 43//33
f 105//35 106//35 107//35
f 105//35 107//35 78//35
f 54//33 48//33 47//33
f 54//33 47//33 65//33
f 106//32 108//32 109//32
f 106//32 109//32 107//32
f 66//33 52//33 51//33
f 106//34 105//34 110//34
f 106//34 110//34 108//34
f 77//33 83//33 97//33
f 58//34 111//34 107//34
f 103//35 100//35 107//35
f 91//35 87//35 103//35
f 42//35 41//35 92//35
f 85//33 66//33 51//33
f 76//33 96//33 51//33
f 85//33 51//33 96//33
f 100//35 78//35 107//35
f 107//34 111//34 103//34
f 104//34 103//34 111//34
f 104//34 111//34 112//34
f 86//35 50//35 53//35
f 84//33 97//33 83//33
f 79//33 109//33 110//33
f 108//33 110//33 109//33
f 107//34 109//34 58//34
f 55//34 58//34 109//34
f 112//33 102//33 104//33
f 101//33 104//33 102//33
f 56//33 55//33 109//33
f 56//33 109//33 79//33
f 49//35 53//35 50//35
f 58//33 57//33 99//33
f 58//33 99//33 111//33
f 78//36 79//36 110//36
f 78//36 110//36 105//36
f 111//36 99//36 102//36
f 111//36 102//36 112//36
o obj_6
v -10.000000 35.000000 19.999998
v -10.000000 10.000002 20.000000
v -10.000000 35.000000 -0.000003
v -10.000000 10.000000 -0.000001
v -11.000000 10.000002 20.000000
v -11.000000 35.000000 19.999998
v -11.000000 10.000000 -0.000001
v -11.000000 35.000000 -0.000003
vn 1.0000 -0.0000 -0.0000
vn -1.0000 -0.0000 -0.0000
vn -0.0000 -0.0000 1.0000
vn -0.0000 -0.0000 -1.0000
vn -0.0000 1.0000 -0.0000
vn -0.0000 -1.0000 -0.0000
s 0
usemtl color_2829873
f 115//37 113//37 114//37
f 116//37 115//37 114//37
f 119//38 117//38 118//38
f 120//38 119//38 118//38
f 118//39 117//39 114//39
f 113//39 118//39 114//39
f 119//40 120//40 115//40
f 116//40 119//40 115//40
f 120//41 118//41 113//41
f 115//41 120//41 113//41
f 116//42 114//42 117//42
f 119//42 116//42 117//42
