# Object Export From Tinkercad Server 2015

mtllib Oregani.mtl

o obj_0
v 25 		1 		20
v 25 		35 		20
v 25 		1 		0
v 25 		35 		0
v 24 		35 		20
v 24 		1 		20
v 24 		35 		0
v 24 		1 		0
# 8 vertices

g group_0_14860437

usemtl color_14860437
s 0

f 1 	3 	2
f 3 	4 	2
f 5 	7 	6
f 7 	8 	6
f 5 	6 	2
f 6 	1 	2
f 8 	7 	3
f 7 	4 	3
f 6 	8 	1
f 8 	3 	1
f 2 	4 	5
f 4 	7 	5
# 12 faces

 #end of obj_0

o obj_1
v 25 		-11 		20
v 25 		1 		20
v 25 		-11 		0
v 25 		1 		0
v 24 		1 		20
v 24 		-11 		20
v 24 		1 		0
v 24 		-11 		0
# 8 vertices

g group_1_2829873

usemtl color_2829873
s 0

f 9 	11 	10
f 11 	12 	10
f 13 	15 	14
f 15 	16 	14
f 13 	14 	10
f 14 	9 	10
f 16 	15 	11
f 15 	12 	11
f 14 	16 	9
f 16 	11 	9
f 10 	12 	13
f 12 	15 	13
# 12 faces

 #end of obj_1

o obj_2
v 24 		0 		20
v 24 		1 		20
v 24 		0 		0
v 24 		1 		0
v 10 		1 		20
v 10 		0 		20
v 10 		1 		0
v 10 		0 		0
# 8 vertices

g group_2_2829873

usemtl color_2829873
s 0

f 17 	19 	18
f 19 	20 	18
f 21 	23 	22
f 23 	24 	22
f 21 	22 	18
f 22 	17 	18
f 24 	23 	19
f 23 	20 	19
f 22 	24 	17
f 24 	19 	17
f 18 	20 	21
f 20 	23 	21
# 12 faces

 #end of obj_2

o obj_3
v 10 		0 		20
v 10 		1 		20
v 10 		0 		0
v 10 		1 		0
v -10 		1 		20
v -10 		0 		20
v -10 		1 		0
v -10 		0 		0
# 8 vertices

g group_3_14860437

usemtl color_14860437
s 0

f 25 	27 	26
f 27 	28 	26
f 29 	31 	30
f 31 	32 	30
f 29 	30 	26
f 30 	25 	26
f 32 	31 	27
f 31 	28 	27
f 30 	32 	25
f 32 	27 	25
f 26 	28 	29
f 28 	31 	29
# 12 faces

 #end of obj_3

o obj_4
v -10 		-8 		20
v -10 		10 		20
v -10 		-8 		0
v -10 		10 		0
v -11 		10 		20
v -11 		-8 		20
v -11 		10 		0
v -11 		-8 		0
# 8 vertices

g group_4_14860437

usemtl color_14860437
s 0

f 33 	35 	34
f 35 	36 	34
f 37 	39 	38
f 39 	40 	38
f 37 	38 	34
f 38 	33 	34
f 40 	39 	35
f 39 	36 	35
f 38 	40 	33
f 40 	35 	33
f 34 	36 	37
f 36 	39 	37
# 12 faces

 #end of obj_4

o obj_5
v -10 		35 		20
v -10 		10 		20
v -10 		35 		0
v -10 		10 		0
v -11 		10 		20
v -11 		35 		20
v -11 		10 		0
v -11 		35 		0
# 8 vertices

g group_5_2829873

usemtl color_2829873
s 0

f 43 	41 	42
f 44 	43 	42
f 47 	45 	46
f 48 	47 	46
f 46 	45 	42
f 41 	46 	42
f 47 	48 	43
f 44 	47 	43
f 48 	46 	41
f 43 	48 	41
f 44 	42 	45
f 47 	44 	45
# 12 faces

 #end of obj_5

o obj_6
v 12 		-35 		20
v 12 		-15 		20
v 12 		-35 		0
v 12 		-15 		0
v 13 		-15 		20
v 13 		-35 		20
v 13 		-15 		0
v 13 		-35 		0
# 8 vertices

g group_6_2829873

usemtl color_2829873
s 0

f 51 	49 	50
f 52 	51 	50
f 55 	53 	54
f 56 	55 	54
f 54 	53 	50
f 49 	54 	50
f 55 	56 	51
f 52 	55 	51
f 56 	54 	49
f 51 	56 	49
f 52 	50 	53
f 55 	52 	53
# 12 faces

 #end of obj_6

o obj_7
v 35 		-11 		20
v 35 		-10 		20
v 35 		-11 		0
v 35 		-10 		0
v 25 		-10 		20
v 25 		-11 		20
v 25 		-10 		0
v 25 		-11 		0
# 8 vertices

g group_7_2829873

usemtl color_2829873
s 0

f 57 	59 	58
f 59 	60 	58
f 61 	63 	62
f 63 	64 	62
f 61 	62 	58
f 62 	57 	58
f 64 	63 	59
f 63 	60 	59
f 62 	64 	57
f 64 	59 	57
f 58 	60 	61
f 60 	63 	61
# 12 faces

 #end of obj_7

o obj_8
v -1 		-37 		20
v -1 		-36 		20
v -1 		-37 		0
v -1 		-36 		0
v -22 		-36 		20
v -22 		-37 		20
v -22 		-36 		0
v -22 		-37 		0
# 8 vertices

g group_8_14860437

usemtl color_14860437
s 0

f 65 	67 	66
f 67 	68 	66
f 69 	71 	70
f 71 	72 	70
f 69 	70 	66
f 70 	65 	66
f 72 	71 	67
f 71 	68 	67
f 70 	72 	65
f 72 	67 	65
f 66 	68 	69
f 68 	71 	69
# 12 faces

 #end of obj_8

o obj_9
v 13 		36 		20
v 13 		37 		20
v 13 		36 		0
v 13 		37 		0
v -7 		37 		20
v -7 		36 		20
v -7 		37 		0
v -7 		36 		0
# 8 vertices

g group_9_14860437

usemtl color_14860437
s 0

f 73 	75 	74
f 75 	76 	74
f 77 	79 	78
f 79 	80 	78
f 77 	78 	74
f 78 	73 	74
f 80 	79 	75
f 79 	76 	75
f 78 	80 	73
f 80 	75 	73
f 74 	76 	77
f 76 	79 	77
# 12 faces

 #end of obj_9

o obj_10
v 37 		-33 		20
v 37 		-13 		20
v 37 		-33 		0
v 37 		-13 		0
v 36 		-13 		20
v 36 		-33 		20
v 36 		-13 		0
v 36 		-33 		0
# 8 vertices

g group_10_14860437

usemtl color_14860437
s 0

f 81 	83 	82
f 83 	84 	82
f 85 	87 	86
f 87 	88 	86
f 85 	86 	82
f 86 	81 	82
f 88 	87 	83
f 87 	84 	83
f 86 	88 	81
f 88 	83 	81
f 82 	84 	85
f 84 	87 	85
# 12 faces

 #end of obj_10

o obj_11
v 12 		-16 		20
v 12 		-15 		20
v 12 		-16 		0
v 12 		-15 		0
v -1 		-15 		20
v -1 		-16 		20
v -1 		-15 		0
v -1 		-16 		0
# 8 vertices

g group_11_14860437

usemtl color_14860437
s 0

f 89 	91 	90
f 91 	92 	90
f 93 	95 	94
f 95 	96 	94
f 93 	94 	90
f 94 	89 	90
f 96 	95 	91
f 95 	92 	91
f 94 	96 	89
f 96 	91 	89
f 90 	92 	93
f 92 	95 	93
# 12 faces

 #end of obj_11

o obj_12
v -1 		-16 		20
v -1 		-15 		20
v -1 		-16 		0
v -1 		-15 		0
v -10 		-15 		20
v -10 		-16 		20
v -10 		-15 		0
v -10 		-16 		0
# 8 vertices

g group_12_2829873

usemtl color_2829873
s 0

f 97 	99 	98
f 99 	100 	98
f 101 	103 	102
f 103 	104 	102
f 101 	102 	98
f 102 	97 	98
f 104 	103 	99
f 103 	100 	99
f 102 	104 	97
f 104 	99 	97
f 98 	100 	101
f 100 	103 	101
# 12 faces

 #end of obj_12

o obj_13
v 37.5 		14.373 		15.003
v 37.5 		22.003 		15.003
v 37.5 		22.003 		1.983
v 37.5 		14.373 		1.983
v 37.5 		-32.795 		20
v 35.203 		-32.795 		20
v 35.203 		-35.203 		20
v 37.5 		-37.5 		20
v 35.203 		-12.79 		20
v 37.5 		-12.79 		20
v 37.5 		-37.5 		0
v 35.203 		35.203 		0
v 37.5 		-32.795 		0
v 37.5 		37.5 		20
v 35.203 		35.203 		20
v 37.5 		37.5 		0
v 35.203 		-12.79 		0
v 25.998 		-37.5 		12.745
v 32.002 		-37.5 		12.745
v 35.203 		14.373 		15.003
v 35.203 		14.373 		1.983
v -0.998 		-37.5 		20
v 35.203 		22.003 		1.983
v 35.203 		22.003 		15.003
v -0.998 		-37.5 		0
v 25.998 		-37.5 		0
v -6.817 		37.5 		0
v 13.188 		35.203 		20
v -6.817 		35.203 		0
v 37.5 		-12.79 		0
v 13.188 		37.5 		20
v -35.203 		-33.222 		0
v -37.5 		-33.222 		0
v -37.5 		-33.222 		13.003
v -35.203 		-33.222 		13.003
v 13.188 		37.5 		0
v 32.002 		-37.5 		0
v -11 		-22 		0
v -11 		-22 		20
v -37.5 		-37.5 		20
v -11 		-8 		20
v -11 		-8 		0
v -37.5 		-37.5 		0
v -6.817 		35.203 		20
v -6.817 		37.5 		20
v 13.188 		35.203 		0
v 32.002 		-35.203 		12.745
v 25.998 		-35.203 		12.745
v 25.998 		-35.203 		0
v -0.998 		-35.203 		0
v -0.998 		-35.203 		20
v 32.002 		-35.203 		0
v 35.203 		-35.203 		0
v -35.203 		35.203 		20
v -10 		-8 		20
v -37.5 		37.5 		0
v -37.5 		37.5 		20
v 35.203 		-32.795 		0
v -21.003 		-37.5 		20
v -21.003 		-35.203 		20
v -10 		-22 		20
v -35.203 		-35.203 		20
v -35.203 		35.203 		0
v -21.003 		-35.203 		0
v -35.203 		-35.203 		0
v -10 		-22 		0
v -21.003 		-37.5 		0
v -10 		-8 		0
v -35.203 		-25.998 		13.003
v -35.203 		-25.998 		0
v -37.5 		-25.998 		13.003
v -37.5 		-25.998 		0
# 72 vertices

g group_13_2829873

usemtl color_2829873
s 0

f 118 	105 	106
f 107 	108 	120
f 109 	110 	111
f 109 	111 	112
f 118 	119 	114
f 112 	115 	117
f 112 	117 	109
f 118 	135 	119
f 113 	114 	119
f 123 	112 	122
f 121 	113 	124
f 121 	124 	125
f 119 	116 	128
f 128 	124 	119
f 127 	128 	116
f 105 	124 	128
f 105 	128 	106
f 120 	108 	134
f 108 	105 	134
f 114 	134 	105
f 114 	105 	118
f 130 	122 	129
f 126 	129 	122
f 136 	137 	138
f 136 	138 	139
f 107 	127 	125
f 107 	125 	108
f 107 	120 	106
f 120 	118 	106
f 141 	115 	123
f 126 	122 	112
f 142 	143 	145
f 142 	145 	146
f 132 	135 	140
f 132 	140 	150
f 155 	111 	152
f 112 	123 	115
f 150 	140 	116
f 120 	116 	140
f 129 	154 	153
f 129 	153 	130
f 153 	154 	152
f 154 	155 	152
f 135 	132 	119
f 141 	156 	157
f 156 	151 	157
f 111 	157 	151
f 151 	152 	111
f 137 	147 	138
f 147 	144 	138
f 126 	155 	154
f 126 	154 	129
f 120 	134 	116
f 149 	158 	148
f 151 	123 	122
f 151 	122 	152
f 135 	120 	140
f 149 	160 	161
f 115 	141 	157
f 162 	117 	157
f 115 	157 	117
f 159 	145 	143
f 159 	143 	165
f 118 	120 	135
f 152 	122 	130
f 152 	130 	153
f 163 	164 	166
f 163 	166 	144
f 158 	167 	148
f 123 	151 	156
f 123 	156 	141
f 160 	131 	167
f 133 	167 	131
f 112 	111 	126
f 155 	126 	111
f 121 	116 	134
f 132 	150 	116
f 132 	116 	119
f 164 	168 	169
f 164 	169 	166
f 164 	163 	171
f 164 	171 	168
f 170 	142 	146
f 170 	146 	172
f 158 	166 	173
f 149 	131 	160
f 149 	148 	133
f 149 	133 	131
f 113 	119 	124
f 133 	148 	167
f 161 	144 	158
f 149 	161 	158
f 127 	116 	125
f 121 	125 	116
f 159 	172 	146
f 159 	146 	145
f 167 	158 	173
f 167 	173 	174
f 158 	144 	166
f 157 	111 	110
f 157 	110 	162
f 143 	142 	170
f 143 	170 	165
f 139 	173 	166
f 166 	169 	139
f 136 	139 	169
f 139 	138 	175
f 139 	175 	173
f 147 	169 	171
f 168 	171 	169
f 173 	175 	176
f 173 	176 	174
f 174 	176 	167
f 160 	167 	176
f 124 	105 	108
f 124 	108 	125
f 137 	136 	169
f 137 	169 	147
f 109 	117 	162
f 109 	162 	110
f 144 	147 	171
f 144 	171 	163
f 134 	114 	113
f 134 	113 	121
f 127 	107 	106
f 127 	106 	128
f 172 	159 	165
f 172 	165 	170
f 138 	144 	175
f 161 	175 	144
f 176 	175 	160
f 161 	160 	175
# 132 faces

 #end of obj_13

o obj_14
v 57.9076 		53.4248 		32.387
v 58.1416 		53.526 		32.772
v 57.8149 		-56.1735 		32.67
v 30.6919 		37.1005 		36.216
v 31.6675 		36.154 		35.795
v 58.1046 		53.4496 		32.642
v 57.9493 		-55.9712 		32.587
v 58.0466 		-55.7913 		32.486
v 58.0258 		53.4159 		32.512
v 58.0999 		-55.6407 		32.371
v -30.9091 		29.9825 		35.6542
v -30.2689 		30.3481 		35.3545
v -30.0284 		30.6699 		35.4583
v -24.1946 		34.774 		33.6328
v -25.5693 		33.8069 		34.063
v -27.5107 		31.9234 		34.063
v -29.0213 		32.0173 		35.8929
v -29.6614 		31.6517 		36.1926
v -31.1181 		31.7272 		34.988
v -30.8081 		33.8069 		34.063
v 57.7523 		53.4766 		32.272
v 57.5669 		53.5687 		32.171
v -31.2156 		31.8854 		34.946
v 57.3607 		53.7014 		32.088
v 57.1382 		53.8632 		32.027
v -29.2481 		36.154 		35.795
v -30.7008 		34.7448 		35.1682
v -54.9155 		52.3251 		32.1169
v 58.1092 		-55.526 		32.246
v 58.0744 		-55.4496 		32.116
v 57.9956 		-55.4159 		31.986
v 57.8751 		-55.4248 		31.861
v 57.7222 		-55.4766 		31.746
v 57.5368 		-55.571 		31.645
v 57.3282 		-55.7014 		31.562
v 57.1058 		-55.8632 		31.5
v -29.6073 		37.1005 		36.216
v 38.8257 		36.9384 		36.3241
v 38.827 		36.9427 		36.3235
v 38.9217 		37.2505 		36.2827
v 38.7438 		36.4312 		36.3595
v 38.7637 		36.5536 		36.3509
v 38.7657 		36.0399 		36.35
v 38.7651 		36.0497 		36.3503
v 38.7604 		36.1295 		36.3523
v 39.7766 		37.0305 		36.1848
v 39.7837 		37.0275 		36.1835
v 39.7038 		37.0607 		36.1983
v 39.6067 		37.1005 		36.216
v 38.8709 		35.8348 		36.3046
v 38.8656 		35.8455 		36.3069
v 39.9465 		36.9109 		36.1317
v 40.0062 		36.8689 		36.113
v 40.0081 		36.8676 		36.1124
v 56.2758 		-53.7412 		32.288
v 56.3255 		-53.7625 		32.3697
v 56.3282 		-53.7637 		32.3742
v 40.0728 		36.7838 		36.0751
v -37.3081 		35.8115 		36.5116
v -37.2871 		35.7605 		36.5207
v -37.1014 		35.1531 		36.6008
v 39.8361 		35.893 		35.8881
v 39.7363 		35.8471 		35.9312
v 39.7098 		35.8348 		35.9426
v -37.0183 		34.6454 		36.6366
v -37.0407 		34.2672 		36.627
v -37.0413 		34.2563 		36.6267
v 39.8735 		35.9192 		35.872
v -37.149 		34.0415 		36.5802
v -37.1689 		34.0001 		36.5717
v 40.0728 		36.0591 		35.786
v -37.3081 		33.9317 		36.5116
v 38.8944 		35.787 		36.2945
v 38.8933 		35.7893 		36.295
v 39.1207 		35.6733 		36.1968
v 39.0683 		35.7 		36.2194
v 39.4367 		35.7079 		36.0604
v 39.4325 		35.7074 		36.0623
v 39.3605 		35.699 		36.0933
v -31.6783 		32.6368 		34.7463
v -32.1253 		33.3628 		34.5534
v -32.2522 		33.2396 		34.4987
v -31.7416 		35.0299 		35.295
v -32.4647 		33.0335 		34.407
v -32.6292 		33.1931 		34.336
v -33.1662 		33.6479 		34.6803
v 56.2644 		-53.7363 		32.2691
v 56.1446 		-53.746 		32.1439
v 56.1448 		-53.746 		32.1441
v 56.1337 		-53.7497 		32.1358
v 55.4081 		52.1848 		32.3099
v 55.511 		52.1092 		32.3383
v 55.9911 		-53.7973 		32.029
v 55.9781 		-53.8039 		32.0219
v 55.8056 		-53.8915 		31.9281
v 55.7129 		-53.95 		31.891
v 55.2756 		52.2946 		32.288
v 55.392 		52.1981 		32.3072
v -33.7995 		33.0335 		34.407
v -33.2619 		33.8069 		34.063
v 54.6547 		52.8964 		32.288
v 55.5983 		-54.0223 		31.8451
v 54.5798 		52.9813 		32.3025
v 55.5978 		-54.0226 		31.8449
v 55.5822 		-54.0341 		31.8406
v 55.376 		-54.1851 		31.7829
v 55.376 		-54.1852 		31.7829
v -33.2467 		-28.842 		34.0696
v -33.2619 		-28.8217 		34.063
v 55.3598 		-54.1986 		31.7802
v -33.2549 		-28.8284 		34.063
v 55.1474 		-54.3749 		31.7451
v -33.2468 		-28.842 		34.0695
v -33.255 		-28.8285 		34.063
v 54.9226 		-54.5828 		31.7328
v 54.922 		-54.5833 		31.7328
v 55.1316 		-54.3896 		31.7442
v -36.9043 		-24.4401 		33.0672
v 49.4012 		-47.0435 		33.5068
v 47.4607 		-45.1609 		33.8242
v 54.9069 		-54.5988 		31.7337
v -33.2505 		-28.8415 		34.0679
v -33.2567 		-28.8313 		34.063
v 44.3304 		-42.1241 		34.336
v 54.8805 		-54.6257 		31.7352
v -28.1809 		-33.5969 		33.88
v -26.0196 		-35.1171 		33.2039
v -33.2519 		-28.8412 		34.0673
v -28.7661 		-33.1854 		34.063
v -33.2573 		-28.8323 		34.063
v 40.0728 		37.1005 		36.216
v -21.2408 		-38.4782 		31.709
v -33.2619 		-28.8399 		34.063
v -35.0208 		-33.5969 		33.88
v -37.3081 		-35.8161 		32.893
v 56.8787 		-56.0543 		31.462
v 38.9606 		37.3771 		36.2659
v -28.4366 		-33.5969 		33.88
v 54.5411 		53.0252 		32.3099
v 54.5415 		53.0247 		32.3098
v 40.0094 		37.2562 		36.1468
v 40.026 		37.2627 		36.1439
v 54.5293 		53.0403 		32.3143
v 39.8325 		37.1877 		36.1772
v 54.3732 		53.24 		32.3712
v 54.2389 		53.4406 		32.454
v 54.2392 		53.4402 		32.4539
v 40.0728 		37.2847 		36.1341
v 28.1389 		-33.7068 		33.8312
v 54.3635 		53.2542 		32.3769
v 25.4733 		-35.5825 		32.9969
v 35.6813 		-26.5839 		34.063
v 54.2322 		53.4532 		32.4612
v 55.8474 		0.3888 		25.361
v 54.142 		53.6203 		32.5549
v 54.1419 		53.6205 		32.555
v 20.9138 		-38.7908 		31.57
v 42.5779 		-15.184 		28.531
v 54.1381 		53.6311 		32.5632
v 42.7146 		-40.5565 		34.6002
v 35.6222 		-26.6447 		34.063
v 33.7236 		-28.4864 		34.063
v 54.088 		53.7706 		32.6702
v 42.2822 		-40.137 		34.6709
v 54.0873 		53.7787 		32.6789
v 41.4989 		-39.3771 		34.799
v 54.079 		53.8855 		32.7951
v 33.2248 		-28.9705 		34.063
v 35.5707 		-32.8359 		34.063
v 35.6813 		-33.018 		34.063
v 36.1053 		-33.5969 		33.88
v 36.1439 		-32.953 		33.8633
v 54.0909 		53.9116 		32.8393
v 44.6552 		-42.4391 		34.2829
v 35.6813 		-26.742 		34.063
v 47.0282 		-44.7413 		33.8949
v 45.0876 		-42.8587 		34.2122
v 54.1473 		-51.6478 		32.7308
v 52.2067 		-49.7652 		33.0481
v 50.5928 		-48.1995 		33.312
v 49.8337 		-47.4631 		33.4361
v 51.7742 		-49.3457 		33.1188
v 56.3281 		-53.7635 		32.3742
v 54.5798 		-52.0674 		32.6601
v 56.2955 		51.7372 		32.7949
v 56.2955 		51.7372 		32.795
v 56.3572 		51.7638 		32.8964
v 56.3599 		51.7649 		32.9008
v 56.3597 		51.7647 		32.9008
v 57.0107 		-57.0391 		32.769
v 57.2355 		-56.83 		32.782
v 56.1769 		51.7458 		32.67
v 56.2871 		51.7378 		32.7862
v 57.4511 		-56.6097 		32.769
v 56.022 		51.7979 		32.5549
v 56.166 		51.7495 		32.6619
v 57.6457 		-56.3893 		32.731
v 55.8877 		51.8655 		32.4813
v 0.7416 		-38.6329 		49.588
v 0 		-38.6329 		49.6197
v 0.2313 		-38.6329 		49.6098
v 1.5133 		-38.6329 		49.621
v 2.2548 		-38.6329 		49.718
v 2.9385 		-38.6329 		49.876
v 3.5364 		-38.6329 		50.088
v 4.0277 		-38.6329 		50.346
v 4.3938 		-38.6329 		50.641
v 54.9414 		52.4774 		32.122
v 55.0335 		52.4178 		32.157
v 4.6186 		-38.6329 		50.961
v 4.6445 		-38.6329 		51.0738
v 55.1783 		52.3754 		32.2719
v 55.1784 		52.3752 		32.272
v -54.8326 		52.4616 		32.1828
v -55.2442 		52.1519 		32.288
v -55.1468 		52.2326 		32.2718
v 56.9088 		54.0543 		31.989
v -56.8763 		53.9105 		31.989
v -3.1355 		-38.6329 		50.961
v 54.8208 		52.6762 		32.218
v -3.1973 		-38.6329 		51.2303
v 54.9523 		52.5834 		32.2588
v 55.1623 		52.3901 		32.271
v -2.9863 		-38.6329 		50.7486
v -2.9107 		-38.6329 		50.641
v 54.8206 		52.6761 		32.218
v -2.5445 		-38.6329 		50.346
v 38.3926 		-40.7135 		34.8744
v 40.1714 		-42.4391 		34.5836
v -2.0532 		-38.6329 		50.088
v -1.4553 		-38.6329 		49.876
v 54.9129 		52.6236 		32.2612
v 56.0119 		-57.6686 		32.371
v 54.9128 		52.6234 		32.2612
v -0.7717 		-38.6329 		49.718
v -0.0301 		-38.6329 		49.621
v 56.1672 		-57.6146 		32.486
v 41.6854 		-43.9079 		34.336
v -3.2119 		-38.6329 		47.606
v 0.5423 		-38.6329 		49.226
v 56.3526 		-57.5224 		32.587
v 41.0692 		-16.0473 		27.825
v 55.8474 		-38.6329 		25.361
v 58.3055 		-38.6329 		26.4217
v 38.594 		-38.6329 		34.2597
v 38.3926 		-38.6329 		34.2125
v 38.3926 		-38.6329 		32.893
v 38.3926 		-35.8161 		32.893
v 55.6701 		-30.2122 		25.4375
v 55.9273 		-30.4617 		25.3955
v 57.9496 		-37.4099 		26.2681
v 54.7377 		52.8024 		32.272
v 54.7377 		52.8024 		32.272
v -54.929 		52.4333 		32.2594
v -54.921 		52.4407 		32.2589
v 57.7792 		-38.6329 		28.1454
v 42.7146 		-44.9064 		34.1677
v 44.9175 		-47.0435 		33.8075
v -56.6515 		54.1195 		31.976
v -54.7065 		52.6598 		32.2718
v 47.5033 		-49.5521 		33.3847
v 47.9479 		-49.9834 		33.312
v 44.6854 		40.4391 		34.8093
v 42.7146 		38.5272 		35.1315
v 1.2097 		-37.6752 		48.938
v 47.4607 		-49.5107 		33.3917
v -54.6234 		52.7542 		32.288
v -31.6629 		-31.4514 		35.329
v -31.8715 		-31.1725 		35.239
v 49.6638 		-51.6478 		33.0315
v 54.0597 		-55.9121 		32.3128
v 52.1153 		-24.4366 		26.9715
v 54.7524 		52.7873 		32.2711
v 54.754 		52.7857 		32.271
v 54.7239 		52.818 		32.2746
v 56.5588 		-57.392 		32.67
v 56.7813 		-57.2279 		32.731
v -42.7146 		42.7647 		34.6937
v -40.3174 		40.4391 		35.0857
v 60.0396 		-38.3158 		27.17
v 57.5283 		-29.688 		26.0863
v 38.7721 		-38.6329 		36.3473
v 38.3926 		-38.6329 		35.8532
v 38.4784 		-38.6329 		35.8489
v 38.8133 		-38.6329 		35.8117
v 38.921 		-38.6329 		35.7995
v -37.9685 		-40.1291 		34.9496
v -37.3081 		-39.4884 		35.0576
v -37.9767 		-40.137 		34.9482
v 55.815 		-57.6416 		32.116
v 39.3322 		-38.6329 		35.7262
v 39.3428 		-38.6329 		35.7243
v -40.3416 		-42.4313 		34.5615
v 55.8938 		-57.6776 		32.246
v -40.3497 		-42.4391 		34.5602
v -41.7208 		-43.7693 		34.336
v 39.632 		-38.6329 		35.6517
v 39.7344 		-38.6329 		35.6262
v -42.7146 		-44.7334 		34.1735
v -42.7227 		-44.7413 		34.1722
v 40.0774 		-38.6329 		35.5091
v -45.0876 		-47.0356 		33.7855
v 40.3601 		-38.6329 		35.3778
v -45.0958 		-47.0435 		33.7841
v 40.3866 		-38.6329 		35.36
v -47.4607 		-49.3378 		33.3974
v -47.4688 		-49.3457 		33.3961
v 39.0392 		-63.5364 		24.157
v -47.9832 		-49.8446 		33.312
v 38.3926 		-57.57 		26.451
v 38.3926 		-53.9365 		24.834
v 40.5687 		-38.6329 		35.2374
v -49.8337 		-51.6399 		33.0094
v -49.8419 		-51.6478 		33.0081
v 40.6961 		-38.6329 		35.0931
v 55.7871 		-57.4505 		31.861
v -56.3574 		-53.6218 		32.3702
v -56.308 		-53.5995 		32.288
v 40.7316 		-38.6329 		34.978
v -52.2067 		-53.9421 		32.6214
v 55.7779 		-57.5651 		31.986
v -52.2149 		-53.95 		32.62
v -54.0908 		-55.7699 		32.3133
v -53.8248 		-55.5118 		32.3568
v -54.0841 		-55.755 		32.288
v -54.0866 		-55.7606 		32.2975
v -54.0909 		-55.7699 		32.3133
v 40.7317 		-38.6329 		34.9777
v 56.6515 		-56.2612 		31.45
v 40.7402 		-38.6329 		34.9502
v 40.7318 		-38.6329 		34.9244
v 56.436 		-56.4815 		31.462
v 56.2414 		-56.7041 		31.5
v 56.0722 		-56.9199 		31.562
v 55.9378 		-57.12 		31.645
v 55.8428 		-57.2999 		31.746
v -56.3025 		-53.597 		32.2789
v -54.5798 		-54.8389 		31.7755
v -54.5417 		-54.882 		31.7829
v -54.5299 		-54.8972 		31.7872
v -54.3741 		-55.0972 		31.8449
v -54.2377 		-55.2999 		31.9279
v -54.142 		-55.4786 		32.0289
v -54.1418 		-55.4788 		32.029
v -54.1381 		-55.4893 		32.0371
v -54.088 		-55.6288 		32.1441
v -54.0873 		-55.637 		32.1529
v -54.079 		-55.7439 		32.2691
v 38.286 		-38.6329 		35.8588
v 38.3752 		-38.6329 		35.8541
v 38.286 		37.3771 		28
v 38.286 		37.3771 		20
v 38.286 		-39.3771 		28
v 38.286 		-39.3771 		20
v -38.2858 		20.1132 		32.4711
v -54.9526 		-54.4412 		31.7328
v -54.9521 		-54.4416 		31.7328
v -55.1024 		-54.3028 		31.7408
v -42.5779 		13.0424 		29.058
v -41.0692 		13.9034 		28.351
v -54.9369 		-54.4571 		31.7337
v -54.7374 		-54.6602 		31.7451
v -54.7372 		-54.6604 		31.7451
v -54.7235 		-54.676 		31.7478
v -48.4026 		18.6931 		28.1056
v -44.766 		19.2039 		29.6748
v -44.9023 		44.8871 		34.336
v -41.6755 		-39.3771 		34.7753
v -42.4588 		-40.137 		34.6472
v -42.7146 		-40.3851 		34.6054
v -44.8318 		-42.4391 		34.2593
v -45.0876 		-42.6873 		34.2175
v -47.2049 		-44.7413 		33.8713
v -47.4607 		-44.9895 		33.8295
v -49.5779 		-47.0435 		33.4834
v -49.8337 		-47.2916 		33.4416
v -50.6263 		-48.0605 		33.312
v -51.951 		-49.3457 		33.0954
v -52.2067 		-49.5938 		33.0536
v -54.324 		-51.6478 		32.7075
v 55.6295 		52.0221 		32.3711
v 55.7438 		51.95 		32.4166
v -54.5798 		-51.8959 		32.6657
v 55.614 		52.0335 		32.3667
v -56.286 		-53.5512 		32.3868
v 56.3433 		-53.7702 		32.399
v 56.3282 		-53.7637 		32.3742
v -56.9088 		-55.9105 		31.462
v -49.8388 		33.4881 		31.1046
v -56.6817 		-56.1195 		31.45
v 54.7883 		-54.6784 		31.692
v -37.6038 		36.5157 		36.384
v -37.5689 		36.4453 		36.3991
v -37.3177 		35.8348 		36.5075
v 55.8374 		51.8909 		32.4538
v 55.8379 		51.8906 		32.4541
v 55.8227 		51.9002 		32.448
v 54.7219 		-54.7851 		31.7441
v 54.7051 		-54.8022 		31.7451
v 54.5798 		-54.9446 		31.7695
v -30.8704 		-32.0231 		35.095
v -30.7989 		-32.1187 		35.1258
v -29.6216 		-33.6917 		35.6338
v 54.5098 		-55.0242 		31.7832
v -27.9171 		-34.0083 		34.063
v -28.156 		-33.7768 		34.063
v -28.6665 		-33.2818 		34.063
v 54.4979 		-55.0394 		31.7875
v -30.2618 		-33.3261 		35.9336
v 54.3411 		-55.2405 		31.845
v -31.4899 		-31.6852 		35.4036
v -31.5106 		-31.6575 		35.3947
v -28.0048 		-33.8716 		34.0022
v 54.2072 		-55.4411 		31.928
v -30.8704 		-32.0231 		35.0949
v 54.1115 		-55.6199 		32.0289
v 54.1113 		-55.6203 		32.0291
v -28.6666 		-33.2819 		34.063
v 54.2004 		-55.4538 		31.9351
v 54.1076 		-55.6309 		32.0372
v -32.5301 		-34.7183 		34.3788
v -33.2619 		-34.0083 		34.063
v 54.0565 		-55.7715 		32.144
v -29.9384 		-34.0083 		34.063
v 54.0476 		-55.8865 		32.2689
v -37.9685 		37.2383 		36.2266
v -33.571 		-35.0034 		34.5056
v -37.9352 		37.1806 		36.241
v 54.0501 		-55.8919 		32.2781
v 54.0502 		-55.8921 		32.2784
v -37.65 		36.6088 		36.3641
v -57.6782 		-56.2454 		32.731
v -47.1764 		42.7413 		34.3963
v -47.4607 		43.0171 		34.3498
v 54.9149 		-54.4671 		31.5907
v -31.1051 		-36.1007 		34.9937
v -29.4914 		-37.6662 		35.69
v -30.8263 		-37.6662 		35.69
v 54.7873 		-54.6774 		31.6922
v -32.146 		-36.3859 		35.1205
v 54.7229 		-54.7841 		31.7441
v 54.0503 		-55.8925 		32.279
v 54.7873 		-54.6774 		31.6922
v -31.248 		-38.6329 		39.1265
v 54.9479 		52.4668 		32.1169
v 42.3124 		38.137 		35.1972
v -57.845 		-56.0296 		32.67
v -57.9817 		-55.8295 		32.587
v -58.0768 		-55.6497 		32.486
v -58.1301 		-55.499 		32.371
v 41.5291 		37.3771 		35.3253
v 28.6341 		-33.4239 		34.063
v 28.1241 		-33.9189 		34.063
v 28.0319 		-34.0083 		34.063
v -56.36 		-53.623 		32.3747
v 28.2742 		-33.6295 		33.8945
v 28.0657 		-33.9555 		34.0395
v 28.6342 		-33.4239 		34.063
v 28.6355 		-33.4247 		34.063
v -37.3081 		-53.9365 		24.834
v -37.3081 		-57.1953 		26.2843
v 29.6573 		-34.0083 		34.063
v 35.6813 		-34.0083 		34.063
v -14.7897 		-42.1626 		28.688
v -15.6796 		-40.699 		27.982
v 54.0597 		-55.9121 		32.3128
v 54.0553 		-55.9028 		32.2968
v 54.0528 		-55.8977 		32.288
v -25.903 		-50.6171 		26.3103
v -20.4075 		-44.0838 		29.216
v -19.9482 		-47.1675 		27.8445
v 54.8794 		-54.6248 		31.7353
v 31.2156 		-38.6329 		39.608
v -23.7629 		-49.3775 		26.8616
v 15.6472 		-40.8429 		27.982
v 14.7596 		-42.3065 		28.688
v 54.8795 		-54.6247 		31.7353
v -58.1393 		-55.3844 		32.246
v 25.6317 		-50.5293 		26.3494
v 19.6801 		-47.08 		27.8834
v -58.1046 		-55.3079 		32.116
v -0.6109 		-53.9365 		24.834
v 44.9498 		45.0435 		34.334
v -58.0258 		-55.272 		31.986
v 2.2548 		-40.5506 		52.87
v 1.5133 		-40.5506 		52.967
v 0.7416 		-40.5506 		53
v -0.0301 		-40.5506 		52.967
v -0.7717 		-40.5506 		52.87
v -38.0488 		37.3771 		36.192
v -38.0433 		37.3675 		36.1944
v 44.9377 		45.0318 		34.336
v 42.7146 		42.8751 		34.6995
v -57.9076 		-55.281 		31.861
v 40.2037 		40.4391 		35.1101
v -57.7523 		-55.3349 		31.746
v 4.6186 		-40.5506 		50.961
v 4.6951 		-40.5506 		51.294
v 4.6186 		-40.5506 		51.627
v 4.3938 		-40.5506 		51.947
v 4.0277 		-40.5506 		52.242
v -57.5669 		-55.4271 		31.645
v 3.5364 		-40.5506 		52.5
v 2.9385 		-40.5506 		52.713
v 0.7416 		-40.5506 		49.588
v 1.5133 		-40.5506 		49.621
v 2.2548 		-40.5506 		49.718
v 2.9385 		-40.5506 		49.876
v 3.5364 		-40.5506 		50.088
v 4.0277 		-40.5506 		50.346
v 4.3938 		-40.5506 		50.641
v 40.0728 		40.3121 		35.1315
v -57.3607 		-55.5575 		31.562
v -0.7717 		-40.5506 		49.718
v -0.0301 		-40.5506 		49.621
v -1.4553 		-40.5506 		52.713
v -2.0532 		-40.5506 		52.5
v -2.5445 		-40.5506 		52.242
v -2.9107 		-40.5506 		51.947
v -3.1355 		-40.5506 		51.627
v -3.2119 		-40.5506 		51.294
v -3.1355 		-40.5506 		50.961
v -2.9107 		-40.5506 		50.641
v -2.5445 		-40.5506 		50.346
v -2.0532 		-40.5506 		50.088
v -1.4553 		-40.5506 		49.876
v -57.1382 		-55.7216 		31.5
v -36.4414 		-38.6329 		35.4314
v -36.4264 		-38.6329 		35.3854
v -36.5688 		-38.6329 		35.5549
v -36.7774 		-38.6329 		35.6612
v -44.8034 		40.4391 		34.7844
v -45.0876 		40.7149 		34.7379
v -37.0601 		-38.6329 		35.7463
v -56.0421 		-57.5247 		32.371
v -56.1973 		-57.473 		32.486
v -37.3081 		-38.6329 		35.7907
v -56.3827 		-57.3785 		32.587
v -56.5913 		-57.2481 		32.67
v -56.8138 		-57.0863 		32.731
v -29.5007 		-37.6752 		35.686
v -31.8228 		-38.6329 		35.26
v -36.4182 		-38.6329 		35.36
v -36.3973 		-38.6329 		35.2958
v -36.4084 		-38.6329 		35.26
v -37.1934 		-39.3771 		35.0763
v -36.6437 		-38.8438 		35.1662
v 38.1516 		-65 		24.863
v 37.9685 		-38.6329 		35.8709
v 38.0262 		-38.6329 		35.8717
v 38.0381 		-38.6329 		35.8719
v -40.0574 		35.8348 		35.5606
v -40.3416 		36.1105 		35.5141
v 36.2487 		-38.6329 		35.4101
v 36.2545 		-38.6329 		35.428
v 36.2621 		-38.6329 		35.4528
v 36.2629 		-38.6329 		35.4554
v -38.3037 		38.4853 		35.6001
v -38.1499 		38.322 		35.6728
v -33.7889 		-58.0035 		26.644
v -35.1149 		-49.1134 		30.5983
v -38.6123 		38.8132 		35.4543
v 36.3666 		-38.6329 		35.554
v 36.3922 		-38.6329 		35.5789
v 36.5585 		-38.6329 		35.6636
v 36.6013 		-38.6329 		35.6851
v -38.013 		38.137 		35.755
v 36.8219 		-38.6329 		35.7529
v 36.8722 		-38.6329 		35.7682
v 36.8798 		-38.6329 		35.7706
v 37.152 		-38.6329 		35.8184
v 37.2242 		-38.6329 		35.8313
v 37.5285 		-38.6329 		35.8584
v 37.614 		-38.6329 		35.8657
v -41.2838 		37.0245 		35.36
v 40.0728 		38.0695 		34.5354
v 40.1066 		38.0695 		34.5434
v 31.9201 		-37.6752 		35.686
v 36.2325 		-38.6329 		35.36
v 36.2194 		-38.6329 		35.3196
v 36.2203 		-38.6329 		35.3164
v 36.2278 		-38.6329 		35.2906
v 36.2373 		-38.6329 		35.26
v 36.3782 		-38.7592 		35.2038
v 37.0151 		-39.3771 		35.0997
v 32.9073 		-38.6329 		35.26
v -38.8489 		39.0252 		35.36
v -38.286 		37.3771 		28
v -38.286 		-39.3771 		28
v 40.0728 		38.0695 		32.168
v 40.0728 		38.0673 		32.168
v -37.3595 		33.9065 		36.4894
v -37.3966 		33.8886 		36.4734
v -37.6038 		33.91 		36.384
v 37.9685 		-40.3021 		34.9438
v -37.6568 		33.9155 		36.3611
v -37.7065 		33.9208 		36.3397
v -37.711 		33.9212 		36.3378
v 33.5098 		-58.0035 		26.644
v -64.4914 		-38.5969 		24
v -66 		-37.7359 		24.706
v -55.9239 		-57.5337 		32.246
v -55.8451 		-57.4999 		32.116
v -65.9699 		35.7359 		25.233
v -64.4612 		36.5969 		24.526
v -37.9685 		34.0409 		36.2266
v -55.8196 		-57.3089 		31.861
v -58.9574 		32.208 		27.17
v -55.8103 		-57.4235 		31.986
v -51.9611 		24.4701 		26.57
v -56.0252 		28.4128 		25.9054
v -54.7629 		-0.5508 		25.361
v -57.6286 		27.6437 		26.5969
v 38.3943 		38.0695 		36.0541
v 38.3926 		38.0695 		36.0536
v 38.7379 		38.0695 		36.1151
v 38.6441 		38.0695 		36.0986
v -56.4685 		-56.3399 		31.462
v -41.0994 		-15.9034 		27.825
v 39.1256 		38.0695 		36.1495
v 39.1253 		38.0695 		36.1495
v 39.0173 		38.0695 		36.1401
v -57.7981 		-38.6329 		26.67
v -54.7629 		-38.6329 		25.361
v -53.9055 		-28.3271 		25.731
v -55.1492 		-29.5337 		25.5276
v -56.2715 		-56.5602 		31.5
v 39.2272 		38.0695 		36.1509
v 39.0129 		37.5471 		36.2434
v 39.089 		37.7328 		36.2105
v -56.1046 		-56.776 		31.562
v -58.9574 		-36.3406 		27.17
v -50.3506 		-22.5538 		27.265
v -55.9679 		-56.9784 		31.645
v -56.7509 		-28.7629 		26.2184
v -55.8729 		-57.1582 		31.746
v -38.0379 		34.0732 		36.1967
v -38.1107 		34.1067 		36.1653
v -30.8647 		-55.4307 		25.499
v -30.0655 		-56.9837 		26.1901
v -30.3435 		-56.4429 		25.9495
v 30.7247 		-55.4702 		25.5166
v 29.9289 		-57.0229 		26.2076
v -38.5714 		34.4278 		35.9665
v -38.286 		-39.3771 		20
v -38.9803 		34.7899 		35.7901
v -38.172 		38.0695 		35.9172
v -38.227 		38.0695 		35.9453
v -38.2281 		38.0695 		35.9458
v -39.0777 		34.8762 		35.748
v -38.084 		38.0695 		35.872
v -39.1794 		34.983 		35.7041
v -38.4589 		38.0695 		36.015
v -38.4321 		38.0695 		36.007
v -38.3761 		37.9429 		36.0508
v -38.3717 		37.9363 		36.0526
v -57.0409 		-56.8952 		32.769
v 38.3926 		38.7087 		35.5008
v 38.4096 		38.7268 		35.4927
v 38.7427 		39.0252 		35.36
v -38.286 		37.3771 		20
v -57.268 		-56.6883 		32.782
v 38.7896 		39.0672 		35.3413
v -57.4812 		-56.468 		32.769
v -42.608 		-15.0424 		28.531
v -39.0716 		-63.3925 		24.157
v -38.1817 		-64.8584 		24.863
v -37.3081 		-38.6329 		33.8929
v -38.7712 		-38.6329 		34.2355
v -58.8365 		38.0695 		27.1179
v -37.3081 		-38.6329 		32.893
v -38.1516 		62.8561 		25.39
v -39.0392 		61.3925 		24.683
v -38.0195 		38.0695 		35.8388
v -37.9685 		38.077 		35.7817
v -54.7629 		38.0695 		25.361
v -54.0909 		-55.7699 		32.3133
v -38.9905 		56.4122 		26.713
v -38.9905 		53.3709 		25.361
v 55.8474 		38.0695 		25.361
v 59.3726 		38.0695 		26.8822
v 40.0728 		56.7686 		26.8715
v 40.0728 		53.3709 		25.361
v -37.963 		38.0695 		35.785
v -39.3395 		-37.7439 		35.6351
v -39.1579 		-37.8348 		35.7134
v -39.6584 		-37.7813 		35.4975
v -39.7747 		-37.8348 		35.4473
v -38.9905 		39.1809 		35.2908
v -38.9905 		39.1521 		35.3035
v -38.9905 		39.1519 		35.3027
v -37.4013 		-38.6329 		35.8073
v -37.3266 		-38.6329 		35.794
v 39.0716 		61.5364 		24.683
v 57.0409 		55.0368 		33.295
v -42.4304 		38.137 		35.1725
v -42.7146 		38.4127 		35.126
v 57.268 		54.83 		33.308
v 57.4835 		54.6097 		33.295
v -56.0119 		55.5247 		32.897
v 57.6782 		54.3893 		33.257
v -55.1638 		-54.2018 		31.692
v -40.2211 		38.0695 		34.5197
v -56.1672 		55.473 		33.012
v -56.2172 		-53.5999 		32.1854
v -56.1777 		-53.6028 		32.1438
v -56.0217 		-53.656 		32.029
v -55.8371 		-53.7487 		31.9279
v -55.8369 		-53.7488 		31.9279
v -55.8223 		-53.758 		31.922
v -55.6304 		-53.8783 		31.8451
v -55.63 		-53.8786 		31.845
v -55.6143 		-53.8902 		31.8407
v -55.5326 		-53.95 		31.818
v -55.4068 		-54.0421 		31.7831
v -55.3908 		-54.0554 		31.7805
v -55.33 		-54.1057 		31.7703
v -55.1629 		-54.2009 		31.6922
v -54.9459 		-54.3246 		31.5907
v -56.2965 		-53.5943 		32.2688
v -55.178 		-54.2314 		31.7451
v -55.162 		-54.2461 		31.7441
v -55.1015 		-54.302 		31.7409
v 56.0421 		55.6663 		32.897
v 56.1973 		55.6146 		33.012
v 56.3827 		55.5224 		33.113
v 56.5913 		55.3898 		33.196
v -56.3526 		55.3785 		33.113
v 56.8138 		55.2279 		33.257
v -56.5588 		55.2481 		33.196
v -56.7813 		55.084 		33.257
v -37.7924 		-38.6329 		35.8415
v -37.7052 		-38.6329 		35.834
v -37.9685 		-38.6329 		35.8441
v -38.2165 		-38.6329 		35.8476
v -38.2012 		-38.6329 		35.8474
v -38.1182 		-38.6329 		35.8463
v -38.6586 		-38.6329 		35.8247
v -38.5528 		-38.6329 		35.8299
v -38.963 		-38.5028 		35.7975
v -38.9833 		-38.6289 		35.7888
v -38.984 		-38.6329 		35.7885
v -38.9846 		-38.11 		35.7882
v -38.984 		-38.1196 		35.7884
v -55.8126 		55.4999 		32.642
v -55.8914 		55.5337 		32.772
v -39.1132 		-37.8572 		35.7327
v -39.0833 		-37.9179 		35.7456
v -39.977 		-37.9278 		35.36
v -40.055 		-37.9637 		35.3263
v -40.3416 		-38.1648 		35.2027
v 55.8451 		55.6416 		32.642
v 55.9239 		55.6753 		32.772
v -45.0635 		45.0435 		34.3096
v 56.2862 		51.6934 		32.9128
v 54.5798 		50.038 		33.1918
v 55.8196 		55.4505 		32.387
v 55.8103 		55.5651 		32.512
v 54.1776 		49.6478 		33.2575
v -40.5158 		-38.2871 		35.1275
v -40.9078 		-38.6329 		34.9538
v -40.9062 		-38.6329 		34.959
v -55.7871 		55.3066 		32.387
v -55.7779 		55.4235 		32.512
v -38.9905 		38.0695 		34.2316
v -38.9905 		38.0695 		32.167
v -56.436 		54.3376 		31.989
v -56.2414 		54.5602 		32.027
v -56.0722 		54.776 		32.088
v 56.6817 		54.2612 		31.976
v 56.4685 		54.4815 		31.989
v -55.9378 		54.9784 		32.171
v 56.2715 		54.7041 		32.027
v -55.8405 		55.156 		32.272
v 56.1046 		54.9199 		32.088
v 55.9702 		55.12 		32.171
v -40.9079 		-38.6329 		34.9537
v 53.8444 		49.3246 		33.312
v 52.2067 		47.7358 		33.5797
v -47.5453 		43.0992 		34.336
v -45.5166 		-23.2311 		29.3509
v -50.5892 		-37.5125 		30.7809
v -57.0107 		54.8952 		33.295
v -57.2355 		54.6861 		33.308
v -57.4511 		54.468 		33.295
v -49.5494 		45.0435 		34.0082
v -40.9163 		-38.6329 		34.9263
v -40.9084 		-38.6329 		34.9007
v -57.6457 		54.2454 		33.257
v 55.8729 		55.2999 		32.272
v -57.8149 		54.0296 		33.196
v -57.9493 		53.8295 		33.113
v -58.0466 		53.6497 		33.012
v -58.0999 		53.499 		32.897
v 51.8046 		47.3457 		33.6455
v -42.6033 		-38.6329 		34.2267
v -33.2619 		26.3442 		34.063
v 49.8337 		45.4336 		33.9677
v 34.5961 		25.2208 		34.063
v 35.6813 		24.1681 		34.063
v -34.4971 		25.1825 		34.106
v -58.1092 		53.3821 		32.772
v -33.0433 		27.1274 		34.7333
v -58.0744 		53.3057 		32.642
v 37.0649 		22.3171 		33.4659
v -57.9956 		53.272 		32.512
v -57.8751 		53.281 		32.387
v 49.4315 		45.0435 		34.0334
v 57.845 		54.1735 		33.196
v 57.9817 		53.9712 		33.113
v -57.7199 		53.3349 		32.272
v 58.0768 		53.7913 		33.012
v -57.5368 		53.4271 		32.171
v -57.3282 		53.5575 		32.088
v -57.1058 		53.7216 		32.027
v 58.1301 		53.6407 		32.897
v 14.7897 		40.3065 		29.215
v 15.6796 		38.8429 		28.508
v 28.0491 		50.8431 		26.4854
v 22.092 		47.3907 		28.0209
v 38.1817 		63 		25.39
v 36.0513 		57.4402 		27.17
v 31.8288 		54.5099 		25.8673
v 31.0337 		56.0654 		26.5588
v -15.6472 		38.699 		28.508
v -14.7596 		40.1626 		29.215
v -28.2555 		50.9309 		26.4463
v -31.9039 		54.4703 		25.8497
v -21.4224 		53.3709 		25.361
v -22.3007 		47.4785 		27.9819
v -36.2725 		57.4402 		27.17
v -31.1111 		56.0258 		26.5412
v -0.7717 		39.9895 		52.87
v -0.0301 		39.9895 		52.967
v 0.7416 		39.9895 		53
v 1.5133 		39.9895 		52.967
v 2.2548 		39.9895 		52.87
v 4.6951 		39.9895 		51.294
v 4.6186 		39.9895 		50.961
v 4.3938 		39.9895 		50.641
v 4.0277 		39.9895 		50.346
v 3.5364 		39.9895 		50.088
v 2.9385 		39.9895 		49.876
v 2.2548 		39.9895 		49.718
v 1.5133 		39.9895 		49.621
v 0.7416 		39.9895 		49.588
v 2.9385 		39.9895 		52.713
v 3.5364 		39.9895 		52.5
v 4.0277 		39.9895 		52.242
v 4.3938 		39.9895 		51.947
v 4.6186 		39.9895 		51.627
v -0.0301 		39.9895 		49.621
v -0.7717 		39.9895 		49.718
v -1.4553 		39.9895 		49.876
v -2.0532 		39.9895 		50.088
v -2.5445 		39.9895 		50.346
v -2.9107 		39.9895 		50.641
v -3.1355 		39.9895 		50.961
v -3.2119 		39.9895 		51.294
v -3.1355 		39.9895 		51.627
v -2.9107 		39.9895 		51.947
v -2.5445 		39.9895 		52.242
v -2.0532 		39.9895 		52.5
v -1.4553 		39.9895 		52.713
v 0.7416 		38.0695 		49.588
v 0.2313 		38.0695 		49.6098
v 0 		38.0695 		49.6197
v 47.5806 		43.2479 		34.336
v 1.5133 		38.0695 		49.621
v 47.4607 		43.1315 		34.3556
v 2.2548 		38.0695 		49.718
v 2.9385 		38.0695 		49.876
v 3.5364 		38.0695 		50.088
v 4.0277 		38.0695 		50.346
v 4.3938 		38.0695 		50.641
v 4.6186 		38.0695 		50.961
v 4.6445 		38.0695 		51.0738
v -3.1355 		38.0695 		50.961
v -3.1973 		38.0695 		51.2303
v -2.9107 		38.0695 		50.641
v -2.9863 		38.0695 		50.7486
v -2.5445 		38.0695 		50.346
v -2.0532 		38.0695 		50.088
v -1.4553 		38.0695 		49.876
v -0.7717 		38.0695 		49.718
v -0.0301 		38.0695 		49.621
v -24.8645 		38.0695 		38.2626
v 0.5423 		38.0695 		49.226
v -54.5798 		52.8038 		32.2965
v -54.5117 		52.8812 		32.3098
v -54.5112 		52.8817 		32.3099
v -54.4993 		52.897 		32.3142
v -54.3422 		53.0977 		32.3709
v -54.3327 		53.1119 		32.3767
v -54.2072 		53.2995 		32.454
v -54.1114 		53.4782 		32.5546
v -54.1112 		53.4784 		32.5547
v -54.1075 		53.489 		32.5629
v -54.0575 		53.6286 		32.6699
v -54.0568 		53.6368 		32.6786
v -54.0476 		53.7449 		32.7949
v -54.0594 		53.7707 		32.8387
v 33.9164 		25.8808 		34.063
v 35.6813 		28.7887 		34.063
v 31.248 		38.0695 		39.594
v 47.0585 		42.7413 		34.4214
v 38.1042 		38.4022 		35.6371
v 37.9685 		38.2581 		35.7012
v 25.7468 		33.8069 		34.063
v 27.5432 		32.0656 		34.063
v 38.1122 		38.0695 		35.9697
v 38.1047 		38.0695 		35.9659
v 38.0573 		38.0695 		35.9417
v 23.9285 		35.0858 		33.4942
v 27.5452 		32.0667 		34.063
v 30.5918 		33.8069 		34.063
v 35.6813 		33.8069 		34.063
v 37.9685 		38.0695 		35.8961
v -55.502 		51.95 		32.3445
v -55.3756 		52.0431 		32.3099
v 38.3196 		38.0695 		36.0314
v 37.9473 		38.2355 		35.7112
v 1.2097 		36.154 		48.938
v 37.9037 		38.0695 		35.8627
v 37.8235 		38.0695 		35.785
v -54.2955 		49.6478 		33.2321
v -54.5798 		49.9237 		33.1856
v 31.6905 		38.0695 		35.785
v 45.0876 		40.8293 		34.7436
v -31.2156 		38.0695 		39.1405
v -30.606 		38.0695 		35.785
v -56.329 		51.6207 		32.8995
v -56.329 		51.6207 		32.8995
v -56.2654 		51.5934 		32.795
v -56.2653 		51.5933 		32.7949
v -56.2516 		51.5456 		32.9122
v -56.2569 		51.594 		32.7862
v -56.1455 		51.603 		32.6699
v -56.1346 		51.6066 		32.6617
v -55.99 		51.6561 		32.5551
v -55.9897 		51.6562 		32.5549
v -55.9767 		51.6628 		32.5478
v -55.8066 		51.748 		32.4541
v -55.8062 		51.7482 		32.4539
v 64.4612 		-38.7408 		24
v 65.9699 		-37.8775 		24.706
v -55.7916 		51.7574 		32.4482
v -55.5983 		51.8792 		32.3709
v -55.5825 		51.8907 		32.3666
v 42.608 		13.184 		29.058
v 41.0994 		14.0473 		28.351
v 53.689 		26.2611 		26.2924
v 56.8195 		29.2981 		25.7805
v 45.4342 		21.1407 		29.8545
v 50.1305 		20.4818 		27.8279
v 58.4223 		28.526 		26.4721
v 64.4914 		36.7408 		24.526
v 66 		35.8775 		25.233
v 58.6375 		35.5443 		26.565
v 50.5061 		35.4202 		31.2839
v 60.0396 		34.0826 		27.17
v 40.7056 		36.5779 		35.5129
v 40.6563 		36.534 		35.5342
v 40.8031 		36.6648 		35.4708
v 40.3416 		36.2553 		35.67
v -51.9224 		47.3457 		33.6202
v -52.2067 		47.6215 		33.5737
v 40.9033 		36.77 		35.4276
v 41.3169 		37.1712 		35.36
v 40.0728 		37.0354 		36.1112
v 40.0728 		36.9335 		36.1021
v 40.0728 		36.9303 		36.1018
v -49.8337 		45.3193 		33.9618
v 40.2965 		36.2153 		35.6895
v 40.1731 		36.1295 		35.7427
v -53.8068 		49.1738 		33.312
# 976 vertices

g group_14_15277357

usemtl color_15277357
s 0

f 181 	1099 	180
f 189 	187 	188
f 191 	192 	190
f 189 	193 	194
f 189 	194 	187
f 188 	187 	195
f 195 	187 	199
f 181 	180 	202
f 213 	202 	180
f 213 	259 	202
f 193 	203 	194
f 214 	1081 	218
f 221 	1081 	220
f 217 	1081 	221
f 219 	1081 	227
f 570 	235 	1106
f 236 	1106 	235
f 236 	237 	1106
f 241 	1106 	237
f 240 	432 	239
f 239 	432 	238
f 238 	432 	244
f 219 	220 	1081
f 226 	227 	1081
f 250 	226 	1081
f 1081 	649 	249
f 249 	649 	252
f 255 	458 	254
f 254 	458 	253
f 247 	244 	432
f 242 	1106 	241
f 243 	1106 	242
f 768 	620 	248
f 258 	257 	262
f 257 	256 	262
f 194 	259 	213
f 203 	202 	259
f 259 	194 	203
f 260 	258 	262
f 262 	256 	199
f 262 	199 	187
f 979 	275 	187
f 274 	1133 	273
f 262 	187 	275
f 260 	275 	261
f 267 	1133 	274
f 260 	262 	275
f 261 	275 	276
f 275 	942 	276
f 841 	445 	285
f 287 	795 	285
f 583 	302 	641
f 640 	641 	303
f 251 	458 	255
f 303 	641 	302
f 253 	432 	240
f 225 	224 	307
f 224 	222 	307
f 307 	222 	223
f 223 	228 	307
f 308 	640 	303
f 307 	228 	229
f 307 	229 	230
f 307 	230 	234
f 801 	310 	311
f 641 	314 	583
f 646 	640 	308
f 284 	444 	289
f 289 	444 	298
f 290 	299 	801
f 309 	801 	306
f 306 	801 	299
f 317 	307 	318
f 320 	307 	317
f 225 	307 	320
f 324 	318 	307
f 334 	418 	338
f 346 	348 	347
f 348 	346 	345
f 344 	418 	345
f 351 	448 	337
f 364 	1134 	363
f 327 	303 	325
f 646 	308 	333
f 327 	333 	308
f 303 	327 	308
f 302 	325 	303
f 311 	310 	645
f 314 	645 	310
f 302 	347 	325
f 363 	1133 	362
f 361 	362 	1133
f 371 	1133 	374
f 352 	296 	432
f 296 	295 	432
f 295 	357 	432
f 357 	356 	432
f 384 	398 	385
f 356 	358 	432
f 358 	355 	432
f 355 	354 	432
f 396 	408 	384
f 389 	1133 	388
f 273 	1133 	389
f 431 	436 	390
f 392 	430 	390
f 398 	384 	408
f 399 	385 	398
f 388 	385 	399
f 396 	384 	402
f 402 	410 	396
f 408 	396 	410
f 415 	416 	376
f 376 	412 	415
f 415 	407 	406
f 406 	403 	415
f 401 	620 	403
f 421 	423 	420
f 422 	423 	421
f 419 	420 	423
f 348 	425 	424
f 425 	419 	424
f 330 	419 	425
f 423 	424 	419
f 407 	415 	411
f 427 	419 	426
f 420 	419 	427
f 330 	426 	419
f 430 	431 	390
f 348 	345 	418
f 400 	620 	401
f 397 	620 	395
f 395 	620 	400
f 411 	415 	412
f 378 	375 	416
f 376 	416 	377
f 380 	379 	649
f 379 	378 	649
f 375 	377 	416
f 649 	381 	380
f 416 	649 	378
f 383 	382 	649
f 381 	649 	382
f 383 	649 	386
f 387 	386 	649
f 588 	979 	587
f 587 	979 	585
f 445 	979 	444
f 294 	977 	445
f 762 	416 	754
f 865 	1007 	455
f 330 	456 	457
f 507 	342 	432
f 337 	448 	334
f 457 	426 	330
f 448 	425 	418
f 448 	418 	334
f 422 	421 	486
f 525 	526 	458
f 461 	462 	458
f 460 	461 	458
f 414 	775 	433
f 279 	277 	870
f 405 	775 	414
f 462 	467 	458
f 467 	468 	458
f 468 	473 	458
f 316 	870 	315
f 279 	870 	316
f 473 	474 	458
f 474 	477 	458
f 477 	479 	458
f 315 	870 	319
f 321 	319 	870
f 329 	322 	997
f 326 	870 	323
f 321 	870 	326
f 437 	775 	438
f 997 	332 	331
f 323 	870 	322
f 331 	329 	997
f 432 	458 	479
f 442 	775 	437
f 335 	997 	339
f 332 	997 	335
f 434 	775 	442
f 479 	481 	432
f 341 	997 	343
f 433 	775 	434
f 341 	339 	997
f 997 	349 	343
f 438 	775 	446
f 385 	870 	384
f 424 	423 	487
f 486 	487 	423
f 488 	491 	432
f 432 	491 	495
f 465 	737 	463
f 504 	506 	432
f 471 	737 	469
f 504 	432 	495
f 472 	475 	737
f 476 	737 	475
f 482 	737 	480
f 481 	488 	432
f 485 	737 	483
f 489 	737 	485
f 432 	506 	507
f 490 	496 	737
f 496 	498 	737
f 500 	737 	498
f 342 	340 	432
f 336 	432 	340
f 422 	486 	423
f 1127 	1079 	1128
f 338 	337 	334
f 344 	338 	418
f 424 	347 	348
f 425 	348 	418
f 351 	328 	448
f 487 	655 	424
f 424 	655 	347
f 459 	460 	458
f 459 	458 	526
f 979 	445 	977
f 977 	531 	535
f 531 	294 	542
f 957 	788 	542
f 542 	541 	535
f 531 	542 	535
f 428 	429 	870
f 870 	402 	384
f 402 	870 	450
f 428 	870 	451
f 449 	450 	870
f 410 	402 	450
f 429 	449 	870
f 451 	870 	277
f 558 	1133 	557
f 233 	232 	1122
f 385 	388 	1133
f 1121 	1122 	232
f 535 	541 	536
f 368 	369 	1133
f 607 	568 	1106
f 568 	569 	1106
f 569 	570 	1106
f 281 	1121 	280
f 368 	1133 	372
f 369 	361 	1133
f 571 	572 	1133
f 1121 	232 	231
f 1121 	231 	263
f 263 	265 	1121
f 265 	264 	1121
f 264 	266 	1121
f 266 	269 	1121
f 560 	557 	1133
f 374 	1133 	572
f 269 	270 	1121
f 270 	271 	1121
f 271 	272 	1121
f 272 	278 	1121
f 278 	280 	1121
f 571 	1133 	573
f 573 	1133 	558
f 548 	958 	549
f 281 	282 	1121
f 285 	445 	284
f 444 	284 	445
f 282 	283 	1121
f 283 	286 	1121
f 286 	288 	1121
f 547 	958 	548
f 288 	293 	1121
f 293 	291 	1121
f 291 	292 	1121
f 297 	567 	292
f 301 	567 	297
f 1121 	292 	567
f 444 	979 	588
f 304 	298 	444
f 294 	445 	841
f 588 	603 	444
f 415 	585 	979
f 549 	958 	550
f 588 	587 	577
f 578 	577 	587
f 583 	582 	302
f 589 	302 	582
f 974 	984 	1136
f 551 	958 	552
f 577 	591 	588
f 551 	550 	958
f 585 	579 	578
f 585 	578 	587
f 589 	582 	581
f 554 	553 	958
f 602 	604 	1106
f 801 	444 	310
f 603 	310 	444
f 603 	588 	597
f 591 	597 	588
f 600 	594 	314
f 583 	314 	594
f 415 	403 	620
f 604 	607 	1106
f 567 	611 	1121
f 611 	567 	615
f 614 	585 	415
f 616 	585 	614
f 585 	616 	612
f 585 	612 	579
f 552 	958 	553
f 801 	309 	444
f 304 	444 	309
f 567 	619 	615
f 1133 	621 	385
f 560 	1133 	268
f 268 	1133 	267
f 372 	1133 	371
f 1133 	363 	1134
f 710 	707 	620
f 718 	415 	620
f 718 	620 	706
f 704 	718 	706
f 958 	559 	556
f 556 	555 	958
f 554 	958 	555
f 441 	754 	416
f 958 	561 	559
f 416 	762 	649
f 629 	628 	632
f 629 	632 	633
f 634 	632 	628
f 630 	629 	633
f 958 	808 	561
f 639 	346 	347
f 627 	1136 	622
f 640 	647 	641
f 650 	645 	641
f 634 	635 	632
f 635 	638 	632
f 314 	641 	645
f 646 	647 	640
f 650 	641 	647
f 652 	327 	651
f 325 	651 	327
f 652 	333 	327
f 567 	301 	619
f 653 	619 	301
f 651 	325 	655
f 652 	656 	333
f 652 	651 	656
f 655 	656 	651
f 658 	636 	645
f 636 	311 	645
f 647 	658 	650
f 650 	658 	645
f 487 	658 	655
f 325 	347 	655
f 655 	658 	656
f 656 	658 	646
f 333 	656 	646
f 647 	646 	658
f 666 	667 	1106
f 602 	1106 	667
f 762 	740 	649
f 746 	747 	649
f 747 	748 	649
f 458 	251 	649
f 456 	432 	233
f 1122 	456 	233
f 642 	724 	643
f 484 	643 	724
f 633 	632 	589
f 589 	581 	633
f 630 	633 	581
f 597 	598 	603
f 310 	603 	598
f 600 	314 	598
f 310 	598 	314
f 614 	613 	612
f 614 	612 	616
f 302 	589 	632
f 302 	632 	347
f 347 	632 	638
f 639 	347 	638
f 705 	718 	704
f 997 	998 	349
f 707 	706 	620
f 713 	620 	869
f 710 	620 	713
f 718 	614 	415
f 719 	718 	705
f 720 	718 	719
f 721 	718 	720
f 726 	727 	458
f 525 	458 	727
f 732 	762 	731
f 733 	762 	732
f 733 	739 	762
f 740 	762 	739
f 742 	649 	741
f 741 	649 	740
f 723 	722 	737
f 722 	464 	737
f 724 	447 	775
f 463 	737 	464
f 446 	775 	447
f 745 	746 	649
f 748 	749 	649
f 724 	642 	447
f 744 	745 	649
f 749 	750 	649
f 750 	725 	649
f 484 	611 	615
f 615 	617 	484
f 725 	726 	649
f 458 	649 	726
f 580 	484 	576
f 576 	484 	575
f 580 	584 	484
f 584 	586 	484
f 586 	590 	484
f 595 	484 	590
f 484 	595 	592
f 484 	592 	593
f 593 	596 	484
f 596 	599 	484
f 599 	601 	484
f 601 	605 	484
f 605 	606 	484
f 484 	618 	644
f 606 	618 	484
f 615 	619 	617
f 575 	484 	617
f 762 	755 	730
f 730 	731 	762
f 575 	617 	574
f 755 	762 	756
f 659 	349 	998
f 756 	762 	757
f 942 	1003 	276
f 648 	617 	619
f 668 	998 	669
f 757 	762 	758
f 643 	484 	644
f 759 	758 	762
f 619 	653 	648
f 1121 	611 	420
f 421 	420 	611
f 742 	744 	649
f 336 	300 	432
f 350 	353 	432
f 300 	350 	432
f 353 	352 	432
f 354 	360 	432
f 360 	359 	432
f 563 	233 	432
f 359 	563 	432
f 421 	611 	486
f 486 	611 	484
f 718 	737 	717
f 614 	718 	717
f 614 	717 	613
f 737 	718 	723
f 721 	723 	718
f 717 	737 	754
f 857 	766 	753
f 752 	753 	766
f 859 	858 	766
f 753 	621 	857
f 767 	859 	766
f 246 	248 	397
f 856 	767 	766
f 766 	857 	856
f 769 	620 	768
f 770 	861 	769
f 774 	861 	773
f 773 	861 	772
f 819 	724 	775
f 385 	621 	870
f 772 	861 	770
f 811 	808 	788
f 771 	775 	404
f 404 	775 	405
f 784 	780 	789
f 246 	397 	245
f 787 	789 	781
f 760 	775 	761
f 771 	761 	775
f 819 	484 	724
f 790 	1081 	793
f 791 	1097 	1081
f 787 	788 	789
f 541 	788 	786
f 536 	541 	786
f 793 	1081 	792
f 780 	781 	789
f 736 	775 	737
f 216 	313 	1081
f 788 	852 	786
f 782 	863 	774
f 790 	791 	1081
f 1081 	804 	796
f 1081 	796 	797
f 1081 	797 	798
f 313 	805 	1081
f 800 	788 	801
f 800 	799 	802
f 800 	802 	788
f 792 	1081 	798
f 799 	776 	802
f 788 	808 	789
f 784 	789 	808
f 805 	806 	1081
f 804 	1081 	806
f 809 	788 	957
f 813 	863 	782
f 759 	762 	760
f 762 	754 	737
f 760 	762 	775
f 737 	775 	762
f 841 	809 	957
f 809 	801 	788
f 788 	802 	811
f 822 	863 	820
f 814 	863 	813
f 843 	816 	736
f 822 	826 	863
f 816 	843 	817
f 484 	818 	486
f 484 	819 	818
f 637 	636 	815
f 658 	815 	636
f 658 	819 	816
f 815 	658 	817
f 816 	817 	658
f 658 	487 	818
f 486 	818 	487
f 826 	828 	863
f 775 	736 	819
f 736 	816 	819
f 818 	819 	658
f 729 	565 	728
f 751 	565 	729
f 752 	858 	753
f 621 	753 	858
f 820 	863 	814
f 824 	1106 	823
f 825 	1106 	824
f 827 	823 	1106
f 565 	863 	828
f 825 	830 	1106
f 829 	1106 	830
f 565 	828 	728
f 841 	795 	809
f 811 	776 	777
f 776 	811 	802
f 839 	688 	998
f 671 	998 	688
f 669 	998 	671
f 610 	565 	609
f 836 	839 	998
f 841 	285 	795
f 800 	847 	799
f 799 	847 	845
f 844 	845 	847
f 800 	801 	311
f 800 	311 	847
f 503 	502 	843
f 846 	787 	781
f 801 	795 	290
f 287 	290 	795
f 436 	443 	849
f 443 	1065 	849
f 842 	843 	502
f 879 	942 	846
f 846 	852 	787
f 788 	787 	852
f 850 	827 	1106
f 843 	853 	503
f 854 	1004 	855
f 397 	248 	620
f 849 	1004 	854
f 849 	1008 	1004
f 1008 	849 	848
f 565 	1112 	784
f 621 	1133 	857
f 364 	365 	1134
f 870 	621 	858
f 752 	766 	858
f 1107 	860 	1106
f 829 	831 	1106
f 851 	1107 	743
f 735 	743 	1107
f 919 	620 	924
f 850 	1106 	860
f 832 	1106 	831
f 832 	666 	1106
f 860 	1107 	851
f 864 	863 	784
f 734 	735 	1107
f 866 	865 	867
f 763 	1107 	866
f 738 	734 	1107
f 455 	867 	865
f 997 	322 	870
f 620 	868 	869
f 517 	516 	842
f 515 	842 	516
f 514 	842 	515
f 517 	842 	518
f 519 	842 	520
f 518 	842 	519
f 520 	842 	521
f 522 	521 	842
f 523 	842 	524
f 502 	501 	842
f 523 	522 	842
f 524 	842 	501
f 842 	532 	878
f 537 	533 	842
f 534 	878 	532
f 533 	532 	842
f 538 	842 	539
f 537 	842 	538
f 514 	540 	842
f 565 	751 	872
f 539 	842 	540
f 637 	815 	842
f 878 	894 	895
f 842 	878 	895
f 894 	878 	534
f 894 	534 	899
f 500 	499 	843
f 815 	817 	842
f 493 	776 	494
f 513 	494 	776
f 895 	894 	776
f 882 	776 	883
f 882 	881 	776
f 883 	776 	884
f 884 	776 	885
f 887 	776 	888
f 885 	776 	886
f 886 	776 	887
f 888 	776 	889
f 889 	776 	890
f 890 	776 	891
f 893 	776 	894
f 892 	776 	893
f 892 	891 	776
f 513 	776 	896
f 881 	896 	776
f 893 	894 	897
f 897 	894 	898
f 899 	898 	894
f 909 	620 	908
f 868 	620 	909
f 910 	908 	620
f 915 	911 	620
f 776 	493 	777
f 631 	777 	493
f 912 	620 	911
f 913 	620 	912
f 919 	920 	620
f 842 	895 	637
f 844 	637 	845
f 845 	637 	895
f 913 	910 	620
f 853 	843 	499
f 737 	500 	736
f 736 	500 	843
f 620 	914 	915
f 472 	737 	471
f 478 	737 	476
f 478 	480 	737
f 482 	483 	737
f 489 	490 	737
f 465 	469 	737
f 620 	916 	917
f 843 	842 	817
f 799 	845 	895
f 776 	799 	895
f 914 	620 	918
f 620 	917 	918
f 916 	620 	920
f 620 	769 	923
f 923 	769 	862
f 924 	620 	923
f 872 	873 	565
f 708 	709 	565
f 609 	565 	709
f 708 	565 	873
f 454 	455 	1007
f 1136 	931 	932
f 1136 	1137 	931
f 365 	931 	1134
f 862 	769 	861
f 941 	942 	879
f 941 	879 	854
f 852 	846 	942
f 979 	786 	275
f 941 	854 	942
f 855 	942 	854
f 942 	855 	1003
f 1005 	1003 	855
f 935 	954 	1136
f 953 	937 	972
f 938 	972 	937
f 955 	1136 	954
f 1136 	932 	935
f 541 	542 	788
f 958 	784 	808
f 245 	397 	243
f 957 	542 	294
f 784 	863 	565
f 962 	565 	956
f 927 	926 	784
f 936 	927 	784
f 925 	864 	784
f 861 	774 	863
f 956 	565 	610
f 958 	972 	784
f 926 	925 	784
f 936 	784 	938
f 972 	963 	953
f 963 	972 	964
f 543 	454 	1007
f 955 	971 	1136
f 972 	938 	784
f 957 	294 	841
f 545 	544 	972
f 546 	545 	972
f 964 	972 	544
f 958 	546 	972
f 546 	958 	547
f 971 	974 	1136
f 631 	561 	777
f 808 	811 	777
f 777 	561 	808
f 801 	809 	795
f 637 	844 	847
f 636 	637 	847
f 636 	847 	311
f 979 	187 	415
f 531 	977 	294
f 1055 	1106 	397
f 243 	397 	1106
f 1099 	441 	416
f 976 	981 	328
f 930 	543 	1007
f 996 	995 	994
f 996 	994 	993
f 1005 	859 	995
f 996 	1005 	995
f 997 	1000 	998
f 668 	659 	998
f 997 	870 	1000
f 999 	870 	858
f 1000 	870 	999
f 858 	859 	999
f 1005 	999 	859
f 1005 	1008 	1000
f 1000 	999 	1005
f 1005 	855 	1004
f 1008 	1007 	1000
f 998 	1000 	1007
f 1006 	190 	1002
f 1008 	848 	1007
f 1006 	1003 	1005
f 1004 	1008 	1005
f 1003 	1006 	1001
f 1002 	1001 	1006
f 995 	1091 	994
f 995 	859 	767
f 1090 	190 	996
f 984 	1044 	1136
f 1082 	1136 	1046
f 1068 	1069 	849
f 1077 	1078 	848
f 930 	1007 	1078
f 1063 	1059 	1060
f 1060 	1061 	1063
f 1057 	1056 	1106
f 1056 	1058 	1106
f 1063 	1106 	1058
f 1058 	1059 	1063
f 1042 	1064 	1043
f 1057 	1106 	1054
f 1106 	1055 	1054
f 1067 	1068 	849
f 1066 	1067 	849
f 1043 	1064 	1062
f 1061 	1062 	1063
f 1069 	1070 	849
f 1070 	1071 	849
f 1063 	1062 	1064
f 1042 	1041 	1064
f 1041 	1045 	1064
f 1071 	1072 	848
f 1081 	1064 	1045
f 1081 	1045 	1047
f 1047 	1048 	1081
f 848 	849 	1071
f 1048 	1049 	1081
f 1049 	1050 	1081
f 1050 	1051 	1081
f 1073 	848 	1072
f 1073 	1074 	848
f 1081 	1051 	1052
f 1081 	1052 	1053
f 1075 	848 	1074
f 1077 	848 	1076
f 1075 	1076 	848
f 1099 	1064 	180
f 848 	1078 	1007
f 456 	1137 	432
f 387 	649 	1053
f 1126 	981 	975
f 975 	981 	976
f 1079 	1127 	975
f 1080 	1128 	1079
f 981 	1130 	328
f 1100 	1104 	1081
f 535 	536 	977
f 979 	977 	536
f 942 	275 	786
f 852 	942 	786
f 979 	536 	786
f 993 	994 	1090
f 1086 	1090 	994
f 996 	993 	1090
f 1002 	190 	1001
f 192 	1001 	190
f 196 	1003 	192
f 187 	194 	415
f 1086 	1085 	1090
f 1088 	1081 	1087
f 1089 	1081 	1088
f 1089 	1094 	1081
f 1092 	1091 	995
f 1087 	1081 	1097
f 1086 	994 	1091
f 191 	190 	1085
f 391 	392 	781
f 1085 	190 	1090
f 1065 	1066 	849
f 1092 	995 	1093
f 1006 	996 	190
f 1094 	1100 	1081
f 416 	415 	1064
f 1063 	1064 	415
f 213 	1063 	194
f 194 	1063 	415
f 1101 	1104 	1100
f 416 	1064 	1099
f 1104 	180 	1064
f 1105 	1136 	1082
f 1064 	1081 	1104
f 439 	1136 	1105
f 1083 	834 	1104
f 1084 	1083 	1104
f 998 	213 	1104
f 834 	835 	1104
f 835 	836 	1104
f 998 	1104 	836
f 1101 	1098 	1104
f 1098 	1084 	1104
f 1001 	192 	1003
f 1005 	996 	1006
f 1107 	1106 	1063
f 1107 	1063 	213
f 1107 	213 	998
f 998 	1007 	1107
f 180 	1104 	213
f 1108 	1110 	780
f 1108 	780 	1109
f 1110 	1111 	780
f 1111 	1113 	780
f 1113 	1114 	780
f 1112 	1109 	780
f 865 	1107 	1007
f 1115 	780 	1114
f 1115 	1116 	780
f 763 	738 	1107
f 865 	866 	1107
f 1116 	1117 	780
f 1117 	1118 	780
f 196 	276 	1003
f 1118 	1119 	780
f 1119 	1120 	780
f 1123 	781 	1120
f 456 	1122 	457
f 1122 	1121 	457
f 1124 	781 	1123
f 1125 	781 	1124
f 420 	427 	1121
f 426 	1121 	427
f 426 	457 	1121
f 1095 	781 	1125
f 330 	425 	448
f 975 	1127 	1126
f 330 	856 	1129
f 448 	328 	330
f 330 	328 	1131
f 1130 	1131 	328
f 1136 	432 	1137
f 456 	330 	1132
f 981 	1126 	1130
f 1131 	1128 	330
f 1137 	456 	1132
f 1126 	1131 	1130
f 1129 	1132 	330
f 1128 	1131 	1127
f 1126 	1127 	1131
f 1129 	1133 	1132
f 330 	1128 	856
f 1135 	1129 	856
f 1129 	1135 	1133
f 1135 	856 	857
f 1135 	857 	1133
f 1081 	1053 	649
f 1134 	931 	1137
f 1137 	1132 	1134
f 1134 	1132 	1133
f 1128 	1080 	1093
f 432 	253 	458
f 250 	1081 	249
f 1140 	432 	1144
f 216 	1081 	215
f 622 	1136 	440
f 627 	1145 	1136
f 1044 	1046 	1136
f 439 	440 	1136
f 1093 	767 	1128
f 218 	1081 	217
f 1139 	432 	1138
f 1141 	432 	1139
f 1138 	432 	1140
f 247 	432 	1151
f 1150 	432 	1141
f 1151 	432 	1150
f 1136 	1144 	432
f 1144 	1136 	1145
f 307 	1148 	1147
f 307 	1147 	1146
f 324 	307 	1146
f 307 	234 	1148
f 856 	1128 	767
f 252 	649 	251
f 1093 	995 	767
f 214 	215 	1081
f 1142 	565 	1149
f 1152 	1102 	565
f 1102 	1103 	565
f 962 	1149 	565
f 1143 	565 	1142
f 1152 	565 	1143
f 1112 	565 	1103
f 390 	204 	781
f 780 	784 	1112
f 780 	1120 	781
f 1096 	781 	1095
f 879 	204 	854
f 879 	846 	204
f 846 	781 	204
f 391 	781 	1096
f 390 	781 	392
f 204 	390 	849
f 390 	436 	849
f 849 	854 	204
# 974 faces

g group_14_16089887

usemtl color_16089887
s 0

f 177 	182 	185
f 205 	186 	184
f 183 	208 	206
f 179 	373 	183
f 206 	184 	183
f 197 	200 	177
f 200 	197 	198
f 206 	562 	205
f 201 	177 	200
f 265 	263 	208
f 393 	177 	201
f 271 	270 	210
f 212 	312 	286
f 184 	206 	205
f 212 	211 	208
f 208 	312 	212
f 219 	223 	220
f 222 	221 	223
f 210 	209 	211
f 220 	223 	221
f 224 	221 	222
f 206 	208 	207
f 217 	221 	224
f 217 	224 	225
f 208 	211 	209
f 219 	227 	223
f 228 	223 	227
f 228 	250 	229
f 229 	249 	230
f 226 	250 	228
f 227 	226 	228
f 249 	252 	230
f 234 	230 	252
f 239 	988 	240
f 242 	241 	965
f 242 	965 	243
f 1151 	992 	247
f 249 	229 	250
f 254 	253 	986
f 232 	233 	206
f 198 	197 	374
f 206 	207 	232
f 200 	268 	201
f 231 	232 	207
f 263 	231 	207
f 208 	264 	265
f 201 	274 	273
f 207 	208 	263
f 266 	264 	208
f 201 	267 	274
f 208 	209 	266
f 269 	266 	209
f 209 	210 	270
f 315 	949 	316
f 270 	269 	209
f 278 	211 	280
f 211 	272 	210
f 278 	272 	211
f 271 	210 	272
f 211 	281 	280
f 282 	281 	212
f 282 	212 	283
f 212 	286 	283
f 291 	293 	505
f 291 	505 	292
f 293 	312 	505
f 505 	297 	292
f 575 	617 	508
f 297 	505 	301
f 988 	986 	253
f 508 	509 	576
f 253 	240 	988
f 281 	211 	212
f 286 	312 	288
f 214 	874 	215
f 215 	874 	216
f 313 	216 	874
f 293 	288 	312
f 279 	316 	949
f 214 	218 	874
f 315 	319 	949
f 508 	301 	505
f 318 	875 	317
f 320 	875 	225
f 217 	225 	875
f 323 	952 	326
f 966 	331 	332
f 966 	329 	331
f 332 	335 	966
f 336 	506 	300
f 342 	506 	340
f 340 	506 	336
f 183 	312 	208
f 928 	934 	349
f 300 	506 	350
f 312 	508 	505
f 353 	506 	352
f 350 	506 	353
f 509 	508 	312
f 352 	506 	296
f 584 	509 	510
f 562 	354 	355
f 357 	562 	356
f 296 	506 	295
f 357 	295 	562
f 358 	356 	562
f 562 	355 	358
f 562 	359 	360
f 605 	497 	606
f 618 	497 	644
f 497 	466 	642
f 360 	354 	562
f 605 	601 	497
f 364 	363 	182
f 361 	185 	362
f 362 	185 	363
f 364 	182 	365
f 571 	198 	572
f 378 	682 	375
f 379 	682 	378
f 374 	572 	198
f 371 	374 	197
f 382 	686 	381
f 370 	367 	366
f 198 	558 	200
f 383 	686 	382
f 370 	452 	183
f 386 	673 	383
f 370 	183 	373
f 386 	387 	673
f 267 	201 	268
f 388 	393 	389
f 273 	389 	393
f 273 	393 	201
f 697 	397 	698
f 395 	698 	397
f 401 	699 	400
f 395 	400 	698
f 393 	388 	399
f 398 	946 	399
f 407 	702 	406
f 411 	702 	407
f 414 	433 	758
f 394 	392 	391
f 947 	429 	428
f 434 	758 	433
f 431 	430 	435
f 394 	435 	430
f 394 	430 	392
f 758 	442 	437
f 439 	1140 	440
f 438 	446 	756
f 437 	438 	756
f 442 	758 	434
f 435 	394 	943
f 947 	946 	408
f 408 	450 	947
f 450 	449 	947
f 429 	947 	449
f 450 	408 	410
f 949 	947 	277
f 279 	949 	277
f 453 	370 	366
f 321 	951 	319
f 951 	321 	326
f 370 	453 	452
f 413 	452 	417
f 393 	946 	947
f 464 	720 	463
f 720 	469 	465
f 463 	720 	465
f 469 	720 	471
f 472 	471 	720
f 475 	472 	720
f 478 	476 	720
f 475 	720 	476
f 480 	478 	720
f 482 	480 	779
f 720 	779 	480
f 483 	482 	779
f 485 	483 	779
f 489 	485 	779
f 494 	660 	493
f 490 	489 	779
f 496 	490 	779
f 498 	496 	779
f 205 	562 	491
f 601 	599 	497
f 1012 	662 	661
f 663 	662 	1011
f 498 	779 	500
f 779 	785 	503
f 470 	452 	413
f 497 	452 	470
f 409 	470 	413
f 452 	312 	183
f 495 	491 	562
f 470 	466 	497
f 452 	497 	312
f 504 	495 	562
f 507 	506 	342
f 562 	295 	506
f 580 	576 	509
f 584 	580 	509
f 593 	592 	512
f 513 	660 	494
f 509 	512 	511
f 896 	660 	513
f 492 	512 	509
f 497 	492 	509
f 679 	1023 	680
f 509 	312 	497
f 1023 	661 	680
f 509 	511 	510
f 756 	642 	466
f 1089 	900 	1094
f 590 	586 	511
f 595 	512 	592
f 1011 	664 	663
f 511 	512 	595
f 511 	595 	590
f 599 	596 	492
f 883 	672 	670
f 492 	497 	599
f 672 	883 	678
f 1037 	695 	694
f 564 	898 	534
f 803 	794 	514
f 515 	803 	514
f 930 	738 	543
f 454 	543 	738
f 566 	533 	537
f 538 	794 	537
f 545 	963 	544
f 545 	546 	963
f 963 	657 	654
f 803 	515 	516
f 547 	548 	963
f 546 	547 	963
f 548 	549 	963
f 549 	550 	963
f 551 	963 	550
f 553 	657 	552
f 552 	657 	551
f 554 	657 	553
f 555 	657 	554
f 556 	657 	555
f 559 	657 	556
f 631 	657 	561
f 561 	657 	559
f 200 	560 	268
f 563 	562 	233
f 206 	233 	562
f 891 	703 	890
f 560 	200 	557
f 703 	893 	564
f 892 	893 	703
f 703 	891 	892
f 564 	534 	566
f 532 	566 	534
f 533 	566 	532
f 907 	569 	568
f 907 	959 	569
f 198 	571 	573
f 573 	558 	198
f 557 	200 	558
f 575 	508 	576
f 584 	510 	586
f 510 	511 	586
f 596 	593 	512
f 512 	492 	596
f 564 	794 	803
f 607 	907 	568
f 301 	508 	617
f 617 	575 	574
f 727 	453 	366
f 622 	440 	1140
f 963 	551 	657
f 657 	624 	625
f 349 	659 	928
f 624 	715 	840
f 624 	840 	608
f 608 	623 	624
f 643 	497 	642
f 644 	497 	643
f 648 	301 	617
f 606 	497 	618
f 653 	301 	648
f 562 	563 	359
f 668 	835 	659
f 657 	493 	660
f 664 	681 	663
f 662 	663 	681
f 665 	691 	664
f 661 	662 	681
f 928 	659 	835
f 669 	835 	668
f 896 	881 	660
f 669 	671 	835
f 675 	676 	682
f 676 	677 	682
f 677 	679 	682
f 681 	682 	679
f 680 	681 	679
f 680 	661 	681
f 674 	675 	682
f 673 	674 	682
f 673 	682 	683
f 673 	683 	684
f 673 	684 	685
f 673 	685 	686
f 673 	686 	687
f 671 	688 	835
f 678 	886 	689
f 886 	887 	689
f 681 	664 	691
f 690 	691 	665
f 690 	665 	692
f 690 	692 	693
f 690 	693 	694
f 690 	694 	695
f 690 	695 	696
f 690 	696 	697
f 690 	697 	698
f 690 	698 	699
f 690 	699 	700
f 690 	700 	701
f 690 	701 	702
f 689 	890 	703
f 675 	1027 	676
f 670 	657 	660
f 1026 	1025 	676
f 657 	670 	624
f 376 	377 	691
f 375 	681 	377
f 670 	703 	564
f 682 	681 	375
f 689 	703 	670
f 379 	683 	682
f 564 	624 	670
f 380 	684 	683
f 380 	683 	379
f 625 	654 	657
f 625 	626 	654
f 672 	689 	670
f 672 	678 	689
f 684 	380 	685
f 381 	685 	380
f 686 	685 	381
f 383 	687 	686
f 710 	713 	714
f 673 	687 	383
f 673 	387 	674
f 695 	1037 	696
f 698 	400 	699
f 721 	720 	723
f 700 	699 	403
f 401 	403 	699
f 403 	406 	701
f 403 	701 	700
f 452 	748 	417
f 702 	701 	406
f 411 	690 	702
f 412 	691 	690
f 412 	690 	411
f 412 	376 	691
f 681 	691 	377
f 446 	447 	756
f 727 	726 	453
f 725 	453 	726
f 826 	609 	709
f 709 	708 	826
f 826 	729 	728
f 720 	464 	722
f 723 	720 	722
f 740 	470 	409
f 921 	922 	738
f 642 	756 	447
f 735 	850 	743
f 453 	725 	750
f 731 	730 	466
f 755 	466 	730
f 466 	470 	731
f 731 	470 	732
f 751 	729 	826
f 466 	755 	756
f 758 	437 	757
f 757 	437 	756
f 758 	759 	760
f 761 	758 	760
f 959 	236 	235
f 570 	569 	959
f 959 	960 	236
f 474 	179 	477
f 502 	503 	785
f 778 	712 	715
f 243 	965 	245
f 715 	716 	840
f 712 	778 	711
f 715 	712 	714
f 246 	967 	248
f 518 	810 	517
f 405 	414 	758
f 404 	405 	758
f 518 	519 	810
f 771 	404 	758
f 761 	771 	758
f 969 	774 	968
f 502 	785 	501
f 769 	968 	770
f 782 	774 	969
f 522 	783 	521
f 783 	523 	785
f 524 	785 	523
f 797 	796 	903
f 783 	522 	523
f 524 	501 	785
f 804 	806 	905
f 246 	245 	967
f 768 	248 	967
f 715 	785 	778
f 778 	785 	779
f 566 	537 	794
f 539 	794 	538
f 539 	540 	794
f 905 	903 	796
f 540 	514 	794
f 904 	906 	667
f 517 	807 	516
f 796 	804 	905
f 803 	516 	807
f 810 	807 	517
f 772 	968 	773
f 773 	968 	774
f 810 	519 	812
f 520 	812 	519
f 772 	770 	968
f 520 	521 	812
f 812 	521 	783
f 813 	782 	969
f 794 	564 	566
f 785 	803 	783
f 814 	970 	820
f 803 	785 	564
f 785 	715 	564
f 715 	624 	564
f 803 	810 	812
f 978 	822 	820
f 805 	313 	874
f 978 	826 	822
f 812 	783 	803
f 803 	807 	810
f 826 	728 	828
f 832 	831 	904
f 831 	829 	904
f 834 	929 	835
f 830 	880 	829
f 839 	836 	688
f 688 	836 	835
f 832 	904 	666
f 840 	833 	838
f 833 	840 	716
f 853 	499 	779
f 853 	779 	503
f 743 	850 	851
f 860 	851 	850
f 488 	186 	491
f 455 	454 	738
f 867 	455 	866
f 763 	455 	738
f 866 	455 	763
f 707 	710 	712
f 526 	366 	459
f 872 	826 	873
f 875 	871 	874
f 670 	660 	881
f 882 	670 	881
f 670 	882 	883
f 884 	885 	678
f 980 	826 	978
f 884 	678 	883
f 678 	885 	886
f 888 	689 	887
f 875 	877 	986
f 888 	889 	689
f 751 	826 	872
f 889 	890 	689
f 897 	564 	893
f 899 	534 	898
f 898 	564 	897
f 499 	500 	779
f 1097 	791 	901
f 493 	657 	631
f 806 	871 	905
f 922 	880 	876
f 880 	906 	904
f 922 	906 	880
f 462 	370 	467
f 716 	913 	912
f 912 	911 	716
f 913 	716 	910
f 908 	910 	716
f 863 	864 	625
f 917 	838 	918
f 908 	716 	715
f 862 	861 	623
f 626 	625 	926
f 925 	926 	625
f 864 	925 	625
f 506 	504 	562
f 826 	708 	873
f 905 	875 	903
f 393 	934 	903
f 903 	901 	902
f 903 	875 	986
f 905 	871 	875
f 903 	986 	393
f 719 	778 	720
f 779 	720 	778
f 711 	778 	706
f 704 	706 	778
f 903 	934 	929
f 706 	707 	711
f 929 	901 	903
f 868 	715 	714
f 322 	952 	323
f 322 	329 	952
f 182 	931 	365
f 339 	933 	335
f 932 	931 	182
f 935 	932 	182
f 850 	735 	876
f 926 	927 	626
f 654 	626 	936
f 927 	936 	626
f 938 	937 	654
f 936 	938 	654
f 1077 	1076 	940
f 741 	409 	742
f 921 	1078 	940
f 413 	744 	742
f 394 	906 	940
f 933 	339 	341
f 940 	906 	922
f 218 	875 	874
f 366 	525 	727
f 366 	460 	459
f 929 	934 	928
f 940 	922 	921
f 900 	901 	929
f 436 	431 	943
f 435 	943 	431
f 468 	373 	473
f 933 	341 	934
f 343 	934 	341
f 944 	443 	943
f 343 	349 	934
f 393 	399 	946
f 398 	408 	946
f 451 	947 	428
f 1073 	1072 	950
f 451 	277 	947
f 409 	741 	740
f 949 	319 	951
f 950 	948 	944
f 940 	944 	394
f 182 	955 	954
f 948 	945 	944
f 940 	939 	944
f 610 	609 	826
f 980 	956 	826
f 939 	950 	944
f 944 	943 	394
f 935 	182 	954
f 367 	461 	460
f 467 	370 	468
f 610 	826 	956
f 798 	797 	903
f 961 	906 	968
f 470 	740 	739
f 907 	906 	961
f 961 	959 	907
f 413 	742 	409
f 960 	959 	961
f 744 	413 	745
f 968 	965 	961
f 963 	654 	953
f 417 	747 	746
f 326 	952 	951
f 749 	452 	750
f 904 	829 	880
f 329 	966 	952
f 667 	666 	904
f 205 	491 	186
f 335 	933 	966
f 470 	739 	733
f 949 	393 	947
f 452 	749 	748
f 526 	525 	366
f 922 	876 	735
f 373 	468 	370
f 955 	182 	971
f 949 	933 	934
f 949 	966 	933
f 183 	477 	179
f 952 	966 	949
f 952 	949 	951
f 544 	963 	964
f 184 	479 	183
f 477 	183 	479
f 186 	488 	184
f 903 	792 	798
f 602 	667 	906
f 916 	840 	917
f 914 	918 	838
f 608 	920 	919
f 960 	961 	237
f 245 	965 	967
f 968 	906 	394
f 460 	366 	367
f 969 	978 	970
f 974 	971 	182
f 965 	968 	967
f 473 	373 	474
f 479 	184 	481
f 417 	746 	413
f 453 	750 	452
f 928 	835 	929
f 934 	393 	949
f 919 	924 	608
f 980 	968 	983
f 969 	968 	980
f 623 	924 	923
f 318 	877 	875
f 991 	990 	983
f 394 	983 	968
f 370 	462 	367
f 461 	367 	462
f 712 	711 	707
f 923 	862 	623
f 980 	978 	969
f 980 	983 	982
f 738 	930 	921
f 179 	474 	373
f 937 	953 	654
f 488 	481 	184
f 986 	985 	251
f 714 	712 	710
f 252 	251 	985
f 733 	732 	470
f 869 	868 	714
f 1096 	1095 	991
f 1151 	1150 	992
f 745 	413 	746
f 394 	391 	991
f 1096 	991 	391
f 983 	394 	991
f 182 	363 	185
f 747 	417 	748
f 604 	602 	906
f 990 	989 	987
f 988 	992 	178
f 990 	987 	983
f 607 	604 	906
f 986 	177 	393
f 237 	236 	960
f 182 	986 	988
f 986 	877 	985
f 182 	177 	986
f 178 	182 	988
f 768 	967 	769
f 704 	778 	705
f 920 	608 	916
f 1139 	1138 	178
f 361 	369 	185
f 368 	177 	369
f 185 	369 	177
f 371 	197 	372
f 177 	372 	197
f 1011 	1012 	1010
f 1009 	1010 	1012
f 1009 	1012 	1013
f 177 	368 	372
f 1017 	1013 	1016
f 1018 	1013 	1017
f 1015 	1016 	1013
f 1019 	1013 	1018
f 1020 	1013 	1019
f 1021 	1013 	1020
f 1022 	1013 	1021
f 1014 	1015 	1013
f 1014 	1013 	1023
f 1014 	1023 	1024
f 1025 	1027 	1024
f 1026 	1027 	1025
f 1014 	1024 	1027
f 1013 	1022 	1028
f 1013 	1028 	1029
f 1013 	1029 	1030
f 1013 	1030 	1031
f 1013 	1031 	1032
f 1013 	1032 	1033
f 1013 	1033 	1034
f 1013 	1034 	1035
f 1013 	1035 	1036
f 1013 	1036 	1037
f 1013 	1037 	1038
f 1013 	1038 	1039
f 1013 	1039 	1040
f 1009 	1013 	1040
f 239 	238 	988
f 1024 	679 	1025
f 1022 	1041 	1042
f 1043 	1028 	1042
f 1021 	1045 	1041
f 1021 	1041 	1022
f 1020 	1047 	1045
f 1020 	1045 	1021
f 1044 	984 	1140
f 1019 	1048 	1047
f 1019 	1047 	1020
f 1018 	1049 	1048
f 1018 	1048 	1019
f 1017 	1050 	1049
f 1017 	1049 	1018
f 1016 	1051 	1050
f 1016 	1050 	1017
f 1015 	1052 	1051
f 1015 	1051 	1016
f 1052 	1015 	1053
f 1014 	1053 	1015
f 984 	974 	182
f 182 	1140 	984
f 665 	1009 	692
f 1039 	693 	1040
f 694 	1038 	1037
f 1034 	1054 	1055
f 1034 	1055 	1035
f 1056 	1057 	1033
f 1034 	1033 	1057
f 1034 	1057 	1054
f 661 	1023 	1013
f 1033 	1032 	1058
f 1033 	1058 	1056
f 661 	1013 	1012
f 1032 	1031 	1059
f 1032 	1059 	1058
f 662 	1012 	1011
f 1030 	1060 	1059
f 1030 	1059 	1031
f 1029 	1061 	1060
f 1029 	1060 	1030
f 1009 	665 	664
f 1028 	1062 	1061
f 1028 	1061 	1029
f 692 	1009 	1040
f 1043 	1062 	1028
f 1022 	1042 	1028
f 677 	1025 	679
f 679 	1024 	1023
f 824 	876 	825
f 692 	1040 	693
f 694 	693 	1038
f 1039 	1038 	693
f 675 	674 	1027
f 1026 	676 	1027
f 677 	676 	1025
f 793 	792 	902
f 944 	945 	1068
f 714 	713 	869
f 397 	697 	1055
f 1035 	1055 	697
f 911 	915 	833
f 1077 	940 	1078
f 930 	1078 	921
f 1014 	674 	1053
f 674 	1014 	1027
f 719 	705 	778
f 238 	244 	992
f 945 	948 	1070
f 1071 	1070 	948
f 908 	715 	909
f 1069 	945 	1070
f 909 	715 	868
f 948 	950 	1071
f 911 	833 	716
f 1071 	950 	1072
f 1074 	1073 	950
f 1075 	1074 	939
f 950 	939 	1074
f 1046 	1044 	1140
f 939 	940 	1076
f 1076 	1075 	939
f 915 	914 	833
f 838 	833 	914
f 838 	917 	840
f 982 	1111 	1110
f 1110 	1108 	982
f 1083 	1084 	929
f 1098 	929 	1084
f 1113 	1111 	982
f 1101 	1100 	1098
f 929 	1098 	900
f 1114 	1113 	983
f 982 	983 	1113
f 1116 	1115 	987
f 1115 	983 	987
f 1089 	1088 	900
f 983 	1115 	1114
f 916 	608 	840
f 901 	900 	1087
f 924 	623 	608
f 989 	990 	1123
f 861 	624 	623
f 625 	624 	863
f 861 	863 	624
f 1087 	1097 	901
f 990 	991 	1095
f 791 	790 	901
f 1067 	1066 	944
f 1065 	944 	1066
f 1065 	443 	944
f 436 	943 	443
f 985 	234 	252
f 1067 	944 	1068
f 900 	1098 	1100
f 1069 	1068 	945
f 1100 	1094 	900
f 992 	988 	238
f 1083 	929 	834
f 980 	1103 	1102
f 664 	1011 	1010
f 1082 	1046 	1140
f 903 	902 	792
f 320 	317 	875
f 814 	969 	970
f 255 	254 	986
f 986 	251 	255
f 182 	178 	1140
f 1105 	1082 	1140
f 439 	1105 	1140
f 980 	982 	1108
f 1109 	980 	1108
f 902 	901 	790
f 980 	1109 	1112
f 1112 	1103 	980
f 902 	790 	793
f 805 	871 	806
f 664 	1010 	1009
f 871 	805 	874
f 1116 	987 	1117
f 217 	875 	218
f 1088 	1087 	900
f 1118 	1117 	987
f 989 	1120 	1119
f 987 	989 	1118
f 1119 	1118 	989
f 989 	1123 	1120
f 696 	1037 	1036
f 1125 	990 	1095
f 1125 	1124 	990
f 1036 	1035 	696
f 697 	696 	1035
f 734 	738 	922
f 735 	734 	922
f 823 	876 	824
f 830 	825 	880
f 387 	1053 	674
f 880 	825 	876
f 823 	827 	876
f 607 	906 	907
f 235 	570 	959
f 241 	237 	961
f 241 	961 	965
f 178 	992 	1150
f 1140 	178 	1138
f 1150 	1141 	178
f 1142 	980 	1143
f 1140 	1144 	1145
f 318 	324 	877
f 1146 	877 	324
f 850 	876 	827
f 877 	1146 	985
f 1147 	985 	1146
f 1148 	985 	1147
f 1148 	234 	985
f 244 	247 	992
f 980 	1149 	962
f 962 	956 	980
f 1139 	178 	1141
f 627 	622 	1140
f 1145 	627 	1140
f 1149 	980 	1142
f 968 	769 	967
f 813 	969 	814
f 978 	820 	970
f 1143 	980 	1152
f 1102 	1152 	980
f 1124 	1123 	990
# 899 faces

g group_14_16311991

usemtl color_16311991
s 0

f 202 	203 	193
f 256 	257 	258
f 260 	973 	256
f 258 	260 	256
f 199 	256 	973
f 195 	199 	973
f 260 	261 	973
f 276 	973 	261
f 192 	973 	196
f 290 	287 	305
f 289 	298 	598
f 304 	598 	298
f 305 	306 	299
f 299 	290 	305
f 309 	598 	304
f 309 	306 	305
f 305 	600 	309
f 337 	338 	192
f 338 	344 	192
f 973 	192 	344
f 346 	638 	345
f 351 	337 	328
f 527 	529 	528
f 530 	528 	529
f 289 	579 	284
f 612 	613 	579
f 581 	582 	630
f 579 	289 	578
f 577 	578 	289
f 441 	973 	579
f 583 	630 	582
f 583 	594 	305
f 305 	630 	583
f 577 	289 	591
f 598 	591 	289
f 597 	591 	598
f 594 	600 	305
f 598 	309 	600
f 441 	579 	613
f 717 	441 	613
f 628 	629 	973
f 630 	973 	629
f 973 	344 	628
f 634 	628 	344
f 638 	635 	344
f 635 	634 	344
f 344 	345 	638
f 638 	346 	639
f 754 	441 	717
f 527 	764 	765
f 527 	765 	529
f 765 	530 	529
f 530 	765 	821
f 765 	764 	837
f 765 	837 	821
f 284 	579 	973
f 285 	284 	973
f 1099 	193 	441
f 328 	337 	192
f 976 	328 	975
f 973 	630 	305
f 973 	305 	287
f 973 	287 	285
f 975 	328 	1079
f 441 	188 	973
f 188 	195 	973
f 276 	196 	973
f 188 	441 	189
f 1079 	328 	192
f 1086 	192 	1085
f 191 	1085 	192
f 1086 	1091 	1079
f 192 	1086 	1079
f 1080 	1079 	1091
f 1091 	1092 	1080
f 1093 	1080 	1092
f 202 	1099 	181
f 189 	441 	193
f 202 	193 	1099
f 764 	527 	837
f 527 	528 	837
f 837 	530 	821
f 530 	837 	528
# 83 faces

 #end of obj_14

