# Object Export From Tinkercad Server 2015

mtllib Oregani_Soft_Walls.mtl

o obj_0
v 37 		-33 		20
v 37 		-13 		20
v 37 		-33 		0
v 37 		-13 		0
v 36 		-13 		20
v 36 		-33 		20
v 36 		-13 		0
v 36 		-33 		0
# 8 vertices

g group_0_14860437

usemtl color_14860437
s 0

f 1 	3 	2
f 3 	4 	2
f 5 	7 	6
f 7 	8 	6
f 5 	6 	2
f 6 	1 	2
f 8 	7 	3
f 7 	4 	3
f 6 	8 	1
f 8 	3 	1
f 2 	4 	5
f 4 	7 	5
# 12 faces

 #end of obj_0

o obj_1
v -1 		-37 		20
v -1 		-36 		20
v -1 		-37 		0
v -1 		-36 		0
v -22 		-36 		20
v -22 		-37 		20
v -22 		-36 		0
v -22 		-37 		0
# 8 vertices

g group_1_14860437

usemtl color_14860437
s 0

f 9 	11 	10
f 11 	12 	10
f 13 	15 	14
f 15 	16 	14
f 13 	14 	10
f 14 	9 	10
f 16 	15 	11
f 15 	12 	11
f 14 	16 	9
f 16 	11 	9
f 10 	12 	13
f 12 	15 	13
# 12 faces

 #end of obj_1

o obj_2
v 10 		0 		20
v 10 		1 		20
v 10 		0 		0
v 10 		1 		0
v -10 		1 		20
v -10 		0 		20
v -10 		1 		0
v -10 		0 		0
# 8 vertices

g group_2_14860437

usemtl color_14860437
s 0

f 17 	19 	18
f 19 	20 	18
f 21 	23 	22
f 23 	24 	22
f 21 	22 	18
f 22 	17 	18
f 24 	23 	19
f 23 	20 	19
f 22 	24 	17
f 24 	19 	17
f 18 	20 	21
f 20 	23 	21
# 12 faces

 #end of obj_2

o obj_3
v -10 		-8 		20
v -10 		10 		20
v -10 		-8 		0
v -10 		10 		0
v -11 		10 		20
v -11 		-8 		20
v -11 		10 		0
v -11 		-8 		0
# 8 vertices

g group_3_14860437

usemtl color_14860437
s 0

f 25 	27 	26
f 27 	28 	26
f 29 	31 	30
f 31 	32 	30
f 29 	30 	26
f 30 	25 	26
f 32 	31 	27
f 31 	28 	27
f 30 	32 	25
f 32 	27 	25
f 26 	28 	29
f 28 	31 	29
# 12 faces

 #end of obj_3

o obj_4
v 13 		36 		20
v 13 		37 		20
v 13 		36 		0
v 13 		37 		0
v -7 		37 		20
v -7 		36 		20
v -7 		37 		0
v -7 		36 		0
# 8 vertices

g group_4_14860437

usemtl color_14860437
s 0

f 33 	35 	34
f 35 	36 	34
f 37 	39 	38
f 39 	40 	38
f 37 	38 	34
f 38 	33 	34
f 40 	39 	35
f 39 	36 	35
f 38 	40 	33
f 40 	35 	33
f 34 	36 	37
f 36 	39 	37
# 12 faces

 #end of obj_4

o obj_5
v 25 		1 		20
v 25 		35 		20
v 25 		1 		0
v 25 		35 		0
v 24 		35 		20
v 24 		1 		20
v 24 		35 		0
v 24 		1 		0
# 8 vertices

g group_5_14860437

usemtl color_14860437
s 0

f 41 	43 	42
f 43 	44 	42
f 45 	47 	46
f 47 	48 	46
f 45 	46 	42
f 46 	41 	42
f 48 	47 	43
f 47 	44 	43
f 46 	48 	41
f 48 	43 	41
f 42 	44 	45
f 44 	47 	45
# 12 faces

 #end of obj_5

o obj_6
v 12 		-16 		20
v 12 		-15 		20
v 12 		-16 		0
v 12 		-15 		0
v -1 		-15 		20
v -1 		-16 		20
v -1 		-15 		0
v -1 		-16 		0
# 8 vertices

g group_6_14860437

usemtl color_14860437
s 0

f 49 	51 	50
f 51 	52 	50
f 53 	55 	54
f 55 	56 	54
f 53 	54 	50
f 54 	49 	50
f 56 	55 	51
f 55 	52 	51
f 54 	56 	49
f 56 	51 	49
f 50 	52 	53
f 52 	55 	53
# 12 faces

 #end of obj_6

