# Object Export From Tinkercad Server 2015

mtllib obj.mtl

o obj_0
v -24.7021 		-14 		4
v -24.7021 		-14 		3.7143
v -24.0106 		-14 		4
v -23.8723 		-14 		4
v -26.5 		-14 		1.7141
v -26.5 		-14 		1.4284
v -25.8085 		-14 		1.7141
v -25.8085 		-14 		1.4284
v -25.8085 		-9.972 		1.4284
v -25.8085 		-7.9579 		1.4284
v -22.2128 		-14 		4
v -22.2128 		-14 		3.7143
v -21.5213 		-14 		3.7143
v -21.5213 		-14 		4
v -25.6702 		-7.9579 		1.4284
v -25.6702 		-9.972 		1.4284
v -25.6702 		-14 		1.4284
v -25.6702 		-14 		1.7141
v -22.8608 		-7.9579 		1.4284
v -20.1383 		-7.9579 		1.4284
v -22.0786 		-7.9579 		1.4284
v -20.1383 		-9.972 		1.4284
v -20.1383 		-9.972 		0.8569
v -20.6915 		-14 		1.7141
v -22.3511 		40 		4
v -20.6915 		-14 		1.4284
v -23.572 		30.3085 		2.163
v -20 		-14 		1.4284
v -20 		-14 		1.7141
v -23.572 		32.3225 		2.163
v -20.1383 		-7.9579 		0.8569
v -21.5213 		-14 		1.7141
v -21.5213 		-14 		1.4284
v -20.8298 		-14 		1.4284
v -20.8298 		-14 		1.7141
v -20.6915 		-9.972 		1.4284
v -20.8298 		-9.972 		1.4284
v -21.5213 		-9.972 		1.4284
v -24.9787 		-9.972 		1.4284
v -24.9787 		-14 		1.4284
v -24.9787 		-14 		1.7141
v -24.2831 		32.3225 		1.4284
v -23.1809 		-14 		4
v -24.8363 		32.3225 		0.8569
v -25.6658 		32.3225 		0
v -25.6658 		30.3085 		0
v -22.3511 		-14 		4
v -24.8363 		-7.9579 		0.8569
v -24.0541 		-7.9579 		0.8569
v -22.3076 		-7.9579 		0.8569
v -21.5254 		-7.9579 		0.8569
v -23.0426 		-14 		4
v -21.5213 		40 		4
v -21.5213 		40 		3.7143
v -22.2128 		40 		3.7143
v -22.2128 		40 		4
v -21.5213 		-7.9579 		1.4284
v -20 		40 		1.7141
v -20 		40 		1.4284
v -23.5009 		-7.9579 		1.4284
v -24.2831 		-7.9579 		1.4284
v -24.9787 		-7.9579 		1.4284
v -23.8723 		-9.972 		3.7143
v -24.0106 		-9.972 		3.7143
v -24.7021 		40 		3.7143
v -24.7021 		40 		4
v -24.0106 		40 		4
v -23.8723 		40 		4
v -22.2128 		32.3225 		3.7143
v -24.6465 		-7.9579 		3.1428
v -24.5204 		-7.9579 		3.1428
v -26.5 		40 		1.4284
v -26.5 		40 		1.7141
v -22.2128 		34.3366 		3.7143
v -23.8723 		-7.9579 		3.7143
v -24.0106 		-7.9579 		3.7143
v -24.0106 		-14 		3.7143
v -24.7021 		34.3366 		3.7143
v -24.7021 		34.3366 		3.1428
v -24.7021 		32.3225 		3.1428
v -24.7021 		32.3225 		3.7143
v -24.7021 		-7.9579 		3.7143
v -24.7021 		-7.9579 		3.1428
v -24.7021 		-9.972 		3.1428
v -24.7021 		-9.972 		3.7143
v -22.2128 		-7.9579 		3.7143
v -21.5213 		32.3225 		3.1428
v -21.5213 		34.3366 		3.1428
v -23.8723 		-14 		3.7143
v -21.5213 		34.3366 		3.7143
v -21.5213 		32.3225 		3.7143
v -23.0426 		-9.972 		3.7143
v -23.1809 		-9.972 		3.7143
v -24.6465 		32.3225 		3.1428
v -24.5835 		32.3225 		3.2079
v -22.1693 		32.3225 		3.612
v -24.1924 		32.3225 		3.612
v -21.7782 		32.3225 		3.2079
v -21.7152 		32.3225 		3.1428
v -20.6915 		-7.9579 		1.4284
v -20.8298 		-7.9579 		1.4284
v -24.0933 		-7.9579 		3.7143
v -24.1924 		-7.9579 		3.612
v -24.5835 		-7.9579 		3.2079
v -21.5213 		-7.9579 		3.7143
v -21.7782 		30.3085 		3.2079
v -22.1693 		30.3085 		3.612
v -26.3617 		32.3225 		1.371
v -26.3617 		32.3225 		1.4284
v -26.3617 		34.3366 		1.4284
v -21.5213 		-7.9579 		3.1428
v -21.7782 		-7.9579 		3.2079
v -21.7782 		-5.9439 		3.2079
v -22.1693 		-7.9579 		3.612
v -22.1693 		-5.9439 		3.612
v -26.3617 		-9.972 		1.4284
v -26.3617 		-7.9579 		1.4284
v -26.3617 		-7.9579 		1.371
v -24.0106 		40 		3.7143
v -23.1809 		40 		4
v -23.1809 		40 		3.7143
v -26.3061 		32.3225 		1.4284
v -23.8723 		40 		3.7143
v -22.3511 		40 		3.7143
v -23.0426 		40 		3.7143
v -23.0426 		40 		4
v -26.3061 		-7.9579 		1.4284
v -23.7382 		-7.9579 		3.1428
v -23.1809 		-7.9579 		3.7143
v -23.0426 		-7.9579 		3.7143
v -22.6235 		-7.9579 		3.1428
v -22.3511 		-7.9579 		3.7143
v -21.8413 		-7.9579 		3.1428
v -24.5835 		30.3085 		3.2079
v -24.1924 		30.3085 		3.612
v -24.5835 		-5.9439 		3.2079
v -23.8723 		32.3225 		3.7143
v -24.1924 		-5.9439 		3.612
v -24.0106 		32.3225 		3.7143
v -23.1809 		-7.9579 		2.567
v -23.8723 		34.3366 		3.7143
v -23.1809 		-14 		3.7143
v -24.0106 		34.3366 		3.7143
v -22.7897 		-7.9579 		2.163
v -23.0426 		-14 		3.7143
v -22.3511 		-14 		3.7143
v -26.3617 		-7.9579 		0.8569
v -24.2831 		34.3366 		1.4284
v -23.5009 		32.3225 		1.4284
v -22.8608 		32.3225 		1.4284
v -22.0786 		32.3225 		1.4284
v -23.7382 		32.3225 		3.1428
v -23.0426 		32.3225 		3.7143
v -23.1809 		32.3225 		3.7143
v -23.0426 		34.3366 		3.7143
v -23.1809 		34.3366 		3.7143
v -23.1809 		-7.9579 		1.759
v -23.572 		-7.9579 		2.163
v -25.6658 		-7.9579 		0
v -24.8836 		-7.9579 		0
v -23.1809 		30.3085 		2.567
v -22.7897 		30.3085 		2.163
v -23.1809 		30.3085 		1.759
v -21.4781 		30.3085 		0
v -20.6959 		30.3085 		0
v -21.4781 		-7.9579 		0
v -20.6959 		-7.9579 		0
v -24.8836 		30.3085 		0
v -22.6235 		32.3225 		3.1428
v -22.3511 		32.3225 		3.7143
v -25.8085 		40 		1.7141
v -25.8085 		40 		1.4284
v -24.9787 		40 		1.7141
v -24.9787 		40 		1.4284
v -25.6702 		40 		1.4284
v -25.6702 		40 		1.7141
v -22.3511 		34.3366 		3.7143
v -24.5204 		32.3225 		3.1428
v -22.2128 		-9.972 		3.7143
v -22.3511 		-9.972 		3.7143
v -26.3617 		34.3366 		0.8569
v -26.3617 		32.3225 		0.8569
v -25.6702 		34.3366 		1.4284
v -25.8085 		34.3366 		1.4284
v -25.8085 		32.3225 		1.4284
v -25.6702 		32.3225 		1.4284
v -23.1809 		32.3225 		2.567
v -21.5213 		-9.972 		3.7143
v -21.5213 		-9.972 		3.1428
v -23.1809 		-5.9439 		2.567
v -24.9787 		34.3366 		1.4284
v -24.9787 		32.3225 		1.4284
v -26.3617 		-9.972 		0.8569
v -20.6915 		40 		1.4284
v -20.6915 		40 		1.7141
v -20.8298 		40 		1.7141
v -20.8298 		40 		1.4284
v -21.5213 		40 		1.4284
v -21.5213 		40 		1.7141
v -21.8413 		32.3225 		3.1428
v -21.5254 		32.3225 		0.8569
v -22.3076 		32.3225 		0.8569
v -24.0541 		32.3225 		0.8569
v -21.5213 		32.3225 		1.4284
v -21.5213 		34.3366 		1.4284
v -23.1809 		32.3225 		1.759
v -22.7897 		32.3225 		2.163
v -20.6959 		32.3225 		0
v -21.4781 		32.3225 		0
v -20.1383 		32.3225 		0.8569
v -20.1383 		34.3366 		0.8569
v -20.1383 		34.3366 		1.4284
v -20.1383 		32.3225 		1.4284
v -20.6915 		34.3366 		1.4284
v -20.8298 		34.3366 		1.4284
v -24.8836 		32.3225 		0
v -20.6915 		32.3225 		1.4284
v -20.8298 		32.3225 		1.4284
v -23.572 		-5.9439 		2.163
v -23.1809 		-5.9439 		1.759
v -24.8836 		-5.9439 		0
v -25.6658 		-5.9439 		0
v -22.7897 		-5.9439 		2.163
v -20.6959 		-5.9439 		0
v -21.4781 		-5.9439 		0
# 225 vertices

g group_0_9079434

usemtl color_9079434
s 0

f 1 	2 	3
f 8 	5 	6
f 7 	8 	9
f 11 	12 	13
f 11 	13 	14
f 17 	18 	16
f 7 	5 	8
f 21 	144 	19
f 24 	26 	28
f 24 	28 	29
f 20 	22 	23
f 20 	23 	31
f 32 	33 	34
f 32 	34 	35
f 18 	17 	40
f 18 	40 	41
f 37 	23 	36
f 38 	23 	37
f 39 	23 	38
f 16 	193 	39
f 22 	36 	23
f 46 	27 	44
f 45 	46 	44
f 48 	49 	193
f 23 	193 	49
f 49 	50 	23
f 50 	51 	23
f 31 	23 	51
f 53 	54 	55
f 53 	55 	56
f 57 	21 	38
f 21 	19 	38
f 19 	60 	38
f 39 	38 	60
f 39 	60 	61
f 39 	61 	62
f 63 	64 	84
f 65 	66 	67
f 14 	53 	11
f 56 	11 	53
f 72 	73 	171
f 66 	1 	3
f 66 	3 	67
f 64 	63 	75
f 64 	75 	76
f 43 	68 	4
f 64 	77 	2
f 78 	79 	80
f 78 	80 	81
f 25 	47 	170
f 77 	64 	3
f 76 	3 	64
f 82 	83 	84
f 82 	84 	85
f 11 	56 	69
f 86 	11 	69
f 74 	69 	56
f 55 	74 	56
f 1 	66 	81
f 82 	1 	81
f 85 	1 	82
f 2 	1 	85
f 78 	81 	66
f 65 	78 	66
f 89 	4 	63
f 75 	63 	4
f 87 	88 	90
f 87 	90 	91
f 85 	84 	64
f 84 	189 	93
f 92 	93 	189
f 84 	93 	63
f 95 	81 	94
f 97 	81 	95
f 80 	94 	81
f 91 	69 	96
f 91 	96 	98
f 91 	98 	99
f 91 	99 	87
f 37 	36 	100
f 37 	100 	101
f 74 	90 	88
f 79 	94 	80
f 26 	36 	22
f 26 	22 	28
f 88 	87 	99
f 99 	200 	88
f 104 	70 	82
f 83 	82 	70
f 103 	104 	82
f 102 	103 	82
f 33 	38 	37
f 33 	37 	34
f 69 	91 	105
f 69 	105 	86
f 70 	71 	84
f 70 	84 	83
f 16 	39 	40
f 16 	40 	17
f 54 	90 	74
f 54 	74 	55
f 85 	64 	2
f 33 	32 	38
f 14 	105 	91
f 90 	53 	91
f 54 	53 	90
f 14 	91 	53
f 81 	102 	82
f 26 	24 	36
f 67 	3 	139
f 76 	139 	3
f 35 	34 	37
f 101 	35 	37
f 68 	137 	4
f 28 	22 	20
f 59 	28 	213
f 20 	213 	28
f 41 	40 	39
f 62 	192 	41
f 29 	28 	59
f 29 	59 	58
f 5 	7 	73
f 72 	6 	5
f 72 	5 	73
f 106 	98 	96
f 106 	96 	107
f 108 	109 	110
f 108 	110 	181
f 112 	113 	115
f 112 	115 	114
f 114 	105 	112
f 86 	105 	114
f 111 	112 	105
f 116 	117 	118
f 67 	119 	65
f 108 	122 	109
f 121 	123 	68
f 120 	121 	68
f 76 	128 	102
f 75 	128 	76
f 103 	102 	128
f 125 	25 	124
f 126 	25 	125
f 127 	118 	117
f 75 	129 	128
f 131 	128 	129
f 131 	129 	130
f 72 	110 	109
f 117 	6 	109
f 116 	6 	117
f 72 	109 	6
f 6 	116 	8
f 9 	8 	116
f 130 	132 	131
f 114 	131 	132
f 10 	127 	122
f 109 	127 	117
f 132 	86 	114
f 112 	111 	133
f 68 	43 	120
f 21 	57 	51
f 95 	134 	135
f 95 	135 	97
f 47 	25 	52
f 126 	52 	25
f 51 	101 	31
f 57 	101 	51
f 101 	100 	31
f 20 	31 	100
f 136 	104 	103
f 136 	103 	138
f 97 	152 	139
f 97 	139 	81
f 2 	77 	3
f 141 	156 	79
f 142 	43 	89
f 4 	89 	43
f 140 	144 	131
f 131 	144 	133
f 52 	145 	146
f 52 	146 	47
f 139 	137 	141
f 139 	141 	143
f 76 	102 	139
f 81 	139 	102
f 70 	104 	71
f 119 	143 	78
f 119 	78 	65
f 27 	30 	42
f 42 	44 	27
f 118 	127 	10
f 15 	147 	10
f 118 	10 	147
f 67 	139 	143
f 67 	143 	119
f 42 	149 	148
f 148 	149 	150
f 151 	205 	150
f 147 	15 	48
f 15 	62 	48
f 61 	48 	62
f 75 	4 	137
f 141 	137 	68
f 123 	141 	68
f 60 	19 	50
f 60 	50 	49
f 152 	169 	154
f 137 	139 	152
f 154 	137 	152
f 88 	79 	156
f 155 	88 	156
f 49 	48 	160
f 159 	160 	48
f 154 	153 	155
f 154 	155 	156
f 60 	158 	61
f 157 	158 	60
f 137 	154 	129
f 137 	129 	75
f 161 	135 	27
f 134 	27 	135
f 121 	156 	141
f 121 	141 	123
f 71 	158 	128
f 140 	128 	158
f 144 	140 	158
f 144 	158 	157
f 157 	19 	144
f 43 	129 	154
f 156 	120 	154
f 121 	120 	156
f 43 	154 	120
f 165 	162 	164
f 163 	164 	162
f 50 	166 	51
f 167 	51 	166
f 161 	27 	163
f 161 	163 	162
f 52 	126 	153
f 130 	52 	153
f 155 	153 	126
f 125 	155 	126
f 163 	27 	168
f 46 	168 	27
f 128 	131 	84
f 71 	128 	84
f 189 	84 	131
f 153 	154 	169
f 69 	170 	96
f 169 	96 	170
f 153 	169 	170
f 171 	172 	72
f 93 	92 	130
f 93 	130 	129
f 173 	174 	175
f 173 	175 	176
f 177 	88 	155
f 63 	93 	142
f 63 	142 	89
f 143 	141 	79
f 78 	143 	79
f 152 	79 	169
f 43 	142 	93
f 129 	43 	93
f 178 	79 	152
f 94 	79 	178
f 88 	169 	79
f 170 	69 	74
f 170 	74 	177
f 52 	130 	92
f 145 	52 	92
f 171 	73 	7
f 153 	170 	132
f 153 	132 	130
f 179 	180 	189
f 189 	180 	92
f 124 	177 	155
f 124 	155 	125
f 133 	189 	131
f 181 	182 	108
f 132 	170 	47
f 25 	170 	177
f 25 	177 	124
f 86 	132 	179
f 180 	179 	132
f 110 	184 	181
f 183 	181 	184
f 92 	180 	146
f 92 	146 	145
f 74 	88 	177
f 47 	146 	180
f 132 	47 	180
f 185 	186 	183
f 185 	183 	184
f 11 	86 	179
f 12 	11 	179
f 172 	184 	110
f 172 	110 	72
f 105 	188 	189
f 105 	189 	111
f 161 	107 	169
f 161 	169 	187
f 188 	179 	189
f 184 	171 	185
f 172 	171 	184
f 7 	185 	171
f 96 	169 	107
f 111 	189 	133
f 18 	176 	186
f 175 	183 	176
f 179 	188 	13
f 179 	13 	12
f 191 	181 	183
f 148 	181 	191
f 14 	13 	188
f 105 	14 	188
f 190 	131 	115
f 140 	131 	190
f 114 	115 	131
f 182 	181 	44
f 192 	42 	148
f 192 	148 	191
f 174 	191 	183
f 174 	183 	175
f 29 	58 	24
f 174 	173 	191
f 95 	94 	178
f 118 	147 	193
f 118 	193 	116
f 217 	213 	20
f 122 	108 	182
f 186 	185 	182
f 122 	182 	185
f 9 	193 	16
f 23 	39 	193
f 193 	9 	116
f 147 	48 	193
f 44 	42 	192
f 182 	44 	186
f 192 	186 	44
f 9 	16 	15
f 9 	15 	10
f 178 	152 	30
f 187 	30 	152
f 100 	24 	217
f 18 	173 	176
f 161 	162 	107
f 162 	106 	107
f 195 	58 	194
f 59 	194 	58
f 196 	197 	198
f 196 	198 	199
f 15 	18 	186
f 183 	186 	176
f 186 	192 	15
f 200 	169 	88
f 191 	173 	192
f 134 	95 	178
f 30 	27 	178
f 134 	178 	27
f 195 	24 	58
f 202 	203 	211
f 181 	211 	203
f 44 	181 	203
f 148 	150 	205
f 204 	205 	151
f 203 	202 	150
f 203 	150 	149
f 205 	211 	148
f 150 	206 	207
f 150 	207 	151
f 201 	202 	211
f 209 	202 	201
f 208 	209 	201
f 204 	199 	205
f 198 	205 	199
f 210 	211 	212
f 210 	212 	213
f 59 	213 	212
f 59 	212 	194
f 187 	207 	206
f 149 	30 	206
f 42 	30 	149
f 187 	206 	30
f 194 	212 	214
f 215 	211 	205
f 181 	148 	211
f 211 	215 	214
f 211 	214 	212
f 44 	203 	216
f 44 	216 	45
f 197 	215 	205
f 197 	205 	198
f 210 	201 	211
f 217 	195 	214
f 194 	214 	195
f 163 	206 	150
f 163 	150 	202
f 209 	164 	202
f 164 	163 	202
f 218 	217 	214
f 218 	214 	215
f 197 	196 	215
f 208 	165 	164
f 208 	164 	209
f 99 	98 	200
f 216 	203 	168
f 163 	168 	203
f 203 	149 	163
f 206 	163 	149
f 217 	218 	210
f 151 	201 	204
f 168 	46 	45
f 168 	45 	216
f 213 	217 	210
f 201 	210 	218
f 204 	201 	218
f 187 	169 	207
f 200 	207 	169
f 222 	219 	221
f 220 	221 	219
f 196 	199 	32
f 219 	190 	220
f 190 	219 	138
f 136 	138 	219
f 190 	223 	220
f 57 	32 	204
f 199 	204 	32
f 224 	225 	223
f 220 	223 	225
f 57 	204 	218
f 218 	215 	196
f 41 	173 	18
f 162 	200 	106
f 207 	200 	162
f 98 	106 	200
f 190 	115 	223
f 113 	223 	115
f 9 	10 	7
f 15 	16 	18
f 35 	196 	32
f 15 	192 	62
f 57 	38 	32
f 173 	41 	192
f 39 	62 	41
f 100 	217 	20
f 222 	48 	219
f 57 	218 	101
f 159 	48 	222
f 61 	219 	48
f 195 	217 	24
f 100 	36 	24
f 158 	219 	61
f 35 	101 	218
f 35 	218 	196
f 113 	112 	133
f 144 	223 	133
f 113 	133 	223
f 220 	157 	60
f 49 	220 	60
f 160 	221 	49
f 221 	220 	49
f 160 	159 	222
f 160 	222 	221
f 219 	71 	136
f 158 	71 	219
f 104 	136 	71
f 161 	187 	152
f 97 	135 	152
f 161 	152 	135
f 165 	201 	162
f 166 	50 	225
f 220 	225 	50
f 50 	19 	220
f 157 	220 	19
f 224 	167 	166
f 224 	166 	225
f 151 	162 	201
f 207 	162 	151
f 165 	208 	201
f 103 	128 	138
f 190 	138 	128
f 190 	128 	140
f 21 	223 	144
f 21 	51 	223
f 224 	223 	51
f 167 	224 	51
f 122 	185 	10
f 109 	122 	127
f 185 	7 	10
# 490 faces

 #end of obj_0

o obj_1
v -15.2021 		-14 		4
v -15.2021 		-14 		3.7143
v -14.5106 		-14 		4
v -14.3723 		-14 		4
v -17 		-14 		1.7141
v -17 		-14 		1.4284
v -16.3085 		-14 		1.7141
v -16.3085 		-14 		1.4284
v -16.3085 		-9.972 		1.4284
v -16.3085 		-7.9579 		1.4284
v -12.7128 		-14 		4
v -12.7128 		-14 		3.7143
v -12.0213 		-14 		3.7143
v -12.0213 		-14 		4
v -16.1702 		-7.9579 		1.4284
v -16.1702 		-9.972 		1.4284
v -16.1702 		-14 		1.4284
v -16.1702 		-14 		1.7141
v -13.3608 		-7.9579 		1.4284
v -10.6383 		-7.9579 		1.4284
v -12.5786 		-7.9579 		1.4284
v -10.6383 		-9.972 		1.4284
v -10.6383 		-9.972 		0.8569
v -11.1915 		-14 		1.7141
v -12.8511 		40 		4
v -11.1915 		-14 		1.4284
v -14.072 		30.3085 		2.163
v -10.5 		-14 		1.4284
v -10.5 		-14 		1.7141
v -14.072 		32.3225 		2.163
v -10.6383 		-7.9579 		0.8569
v -12.0213 		-14 		1.7141
v -12.0213 		-14 		1.4284
v -11.3298 		-14 		1.4284
v -11.3298 		-14 		1.7141
v -11.1915 		-9.972 		1.4284
v -11.3298 		-9.972 		1.4284
v -12.0213 		-9.972 		1.4284
v -15.4787 		-9.972 		1.4284
v -15.4787 		-14 		1.4284
v -15.4787 		-14 		1.7141
v -14.7831 		32.3225 		1.4284
v -13.6809 		-14 		4
v -15.3363 		32.3225 		0.8569
v -16.1658 		32.3225 		0
v -16.1658 		30.3085 		0
v -12.8511 		-14 		4
v -15.3363 		-7.9579 		0.8569
v -14.5541 		-7.9579 		0.8569
v -12.8076 		-7.9579 		0.8569
v -12.0254 		-7.9579 		0.8569
v -13.5426 		-14 		4
v -12.0213 		40 		4
v -12.0213 		40 		3.7143
v -12.7128 		40 		3.7143
v -12.7128 		40 		4
v -12.0213 		-7.9579 		1.4284
v -10.5 		40 		1.7141
v -10.5 		40 		1.4284
v -14.0009 		-7.9579 		1.4284
v -14.7831 		-7.9579 		1.4284
v -15.4787 		-7.9579 		1.4284
v -14.3723 		-9.972 		3.7143
v -14.5106 		-9.972 		3.7143
v -15.2021 		40 		3.7143
v -15.2021 		40 		4
v -14.5106 		40 		4
v -14.3723 		40 		4
v -12.7128 		32.3225 		3.7143
v -15.1465 		-7.9579 		3.1428
v -15.0204 		-7.9579 		3.1428
v -17 		40 		1.4284
v -17 		40 		1.7141
v -12.7128 		34.3366 		3.7143
v -14.3723 		-7.9579 		3.7143
v -14.5106 		-7.9579 		3.7143
v -14.5106 		-14 		3.7143
v -15.2021 		34.3366 		3.7143
v -15.2021 		34.3366 		3.1428
v -15.2021 		32.3225 		3.1428
v -15.2021 		32.3225 		3.7143
v -15.2021 		-7.9579 		3.7143
v -15.2021 		-7.9579 		3.1428
v -15.2021 		-9.972 		3.1428
v -15.2021 		-9.972 		3.7143
v -12.7128 		-7.9579 		3.7143
v -12.0213 		32.3225 		3.1428
v -12.0213 		34.3366 		3.1428
v -14.3723 		-14 		3.7143
v -12.0213 		34.3366 		3.7143
v -12.0213 		32.3225 		3.7143
v -13.5426 		-9.972 		3.7143
v -13.6809 		-9.972 		3.7143
v -15.1465 		32.3225 		3.1428
v -15.0835 		32.3225 		3.2079
v -12.6693 		32.3225 		3.612
v -14.6924 		32.3225 		3.612
v -12.2782 		32.3225 		3.2079
v -12.2152 		32.3225 		3.1428
v -11.1915 		-7.9579 		1.4284
v -11.3298 		-7.9579 		1.4284
v -14.5933 		-7.9579 		3.7143
v -14.6924 		-7.9579 		3.612
v -15.0835 		-7.9579 		3.2079
v -12.0213 		-7.9579 		3.7143
v -12.2782 		30.3085 		3.2079
v -12.6693 		30.3085 		3.612
v -16.8617 		32.3225 		1.371
v -16.8617 		32.3225 		1.4284
v -16.8617 		34.3366 		1.4284
v -12.0213 		-7.9579 		3.1428
v -12.2782 		-7.9579 		3.2079
v -12.2782 		-5.9439 		3.2079
v -12.6693 		-7.9579 		3.612
v -12.6693 		-5.9439 		3.612
v -16.8617 		-9.972 		1.4284
v -16.8617 		-7.9579 		1.4284
v -16.8617 		-7.9579 		1.371
v -14.5106 		40 		3.7143
v -13.6809 		40 		4
v -13.6809 		40 		3.7143
v -16.8061 		32.3225 		1.4284
v -14.3723 		40 		3.7143
v -12.8511 		40 		3.7143
v -13.5426 		40 		3.7143
v -13.5426 		40 		4
v -16.8061 		-7.9579 		1.4284
v -14.2382 		-7.9579 		3.1428
v -13.6809 		-7.9579 		3.7143
v -13.5426 		-7.9579 		3.7143
v -13.1235 		-7.9579 		3.1428
v -12.8511 		-7.9579 		3.7143
v -12.3413 		-7.9579 		3.1428
v -15.0835 		30.3085 		3.2079
v -14.6924 		30.3085 		3.612
v -15.0835 		-5.9439 		3.2079
v -14.3723 		32.3225 		3.7143
v -14.6924 		-5.9439 		3.612
v -14.5106 		32.3225 		3.7143
v -13.6809 		-7.9579 		2.567
v -14.3723 		34.3366 		3.7143
v -13.6809 		-14 		3.7143
v -14.5106 		34.3366 		3.7143
v -13.2897 		-7.9579 		2.163
v -13.5426 		-14 		3.7143
v -12.8511 		-14 		3.7143
v -16.8617 		-7.9579 		0.8569
v -14.7831 		34.3366 		1.4284
v -14.0009 		32.3225 		1.4284
v -13.3608 		32.3225 		1.4284
v -12.5786 		32.3225 		1.4284
v -14.2382 		32.3225 		3.1428
v -13.5426 		32.3225 		3.7143
v -13.6809 		32.3225 		3.7143
v -13.5426 		34.3366 		3.7143
v -13.6809 		34.3366 		3.7143
v -13.6809 		-7.9579 		1.759
v -14.072 		-7.9579 		2.163
v -16.1658 		-7.9579 		0
v -15.3836 		-7.9579 		0
v -13.6809 		30.3085 		2.567
v -13.2897 		30.3085 		2.163
v -13.6809 		30.3085 		1.759
v -11.9781 		30.3085 		0
v -11.1959 		30.3085 		0
v -11.9781 		-7.9579 		0
v -11.1959 		-7.9579 		0
v -15.3836 		30.3085 		0
v -13.1235 		32.3225 		3.1428
v -12.8511 		32.3225 		3.7143
v -16.3085 		40 		1.7141
v -16.3085 		40 		1.4284
v -15.4787 		40 		1.7141
v -15.4787 		40 		1.4284
v -16.1702 		40 		1.4284
v -16.1702 		40 		1.7141
v -12.8511 		34.3366 		3.7143
v -15.0204 		32.3225 		3.1428
v -12.7128 		-9.972 		3.7143
v -12.8511 		-9.972 		3.7143
v -16.8617 		34.3366 		0.8569
v -16.8617 		32.3225 		0.8569
v -16.1702 		34.3366 		1.4284
v -16.3085 		34.3366 		1.4284
v -16.3085 		32.3225 		1.4284
v -16.1702 		32.3225 		1.4284
v -13.6809 		32.3225 		2.567
v -12.0213 		-9.972 		3.7143
v -12.0213 		-9.972 		3.1428
v -13.6809 		-5.9439 		2.567
v -15.4787 		34.3366 		1.4284
v -15.4787 		32.3225 		1.4284
v -16.8617 		-9.972 		0.8569
v -11.1915 		40 		1.4284
v -11.1915 		40 		1.7141
v -11.3298 		40 		1.7141
v -11.3298 		40 		1.4284
v -12.0213 		40 		1.4284
v -12.0213 		40 		1.7141
v -12.3413 		32.3225 		3.1428
v -12.0254 		32.3225 		0.8569
v -12.8076 		32.3225 		0.8569
v -14.5541 		32.3225 		0.8569
v -12.0213 		32.3225 		1.4284
v -12.0213 		34.3366 		1.4284
v -13.6809 		32.3225 		1.759
v -13.2897 		32.3225 		2.163
v -11.1959 		32.3225 		0
v -11.9781 		32.3225 		0
v -10.6383 		32.3225 		0.8569
v -10.6383 		34.3366 		0.8569
v -10.6383 		34.3366 		1.4284
v -10.6383 		32.3225 		1.4284
v -11.1915 		34.3366 		1.4284
v -11.3298 		34.3366 		1.4284
v -15.3836 		32.3225 		0
v -11.1915 		32.3225 		1.4284
v -11.3298 		32.3225 		1.4284
v -14.072 		-5.9439 		2.163
v -13.6809 		-5.9439 		1.759
v -15.3836 		-5.9439 		0
v -16.1658 		-5.9439 		0
v -13.2897 		-5.9439 		2.163
v -11.1959 		-5.9439 		0
v -11.9781 		-5.9439 		0
# 225 vertices

g group_1_9079434

usemtl color_9079434
s 0

f 226 	227 	228
f 233 	230 	231
f 232 	233 	234
f 236 	237 	238
f 236 	238 	239
f 242 	243 	241
f 232 	230 	233
f 246 	369 	244
f 249 	251 	253
f 249 	253 	254
f 245 	247 	248
f 245 	248 	256
f 257 	258 	259
f 257 	259 	260
f 243 	242 	265
f 243 	265 	266
f 262 	248 	261
f 263 	248 	262
f 264 	248 	263
f 241 	418 	264
f 247 	261 	248
f 271 	252 	269
f 270 	271 	269
f 273 	274 	418
f 248 	418 	274
f 274 	275 	248
f 275 	276 	248
f 256 	248 	276
f 278 	279 	280
f 278 	280 	281
f 282 	246 	263
f 246 	244 	263
f 244 	285 	263
f 264 	263 	285
f 264 	285 	286
f 264 	286 	287
f 288 	289 	309
f 290 	291 	292
f 239 	278 	236
f 281 	236 	278
f 297 	298 	396
f 291 	226 	228
f 291 	228 	292
f 289 	288 	300
f 289 	300 	301
f 268 	293 	229
f 289 	302 	227
f 303 	304 	305
f 303 	305 	306
f 250 	272 	395
f 302 	289 	228
f 301 	228 	289
f 307 	308 	309
f 307 	309 	310
f 236 	281 	294
f 311 	236 	294
f 299 	294 	281
f 280 	299 	281
f 226 	291 	306
f 307 	226 	306
f 310 	226 	307
f 227 	226 	310
f 303 	306 	291
f 290 	303 	291
f 314 	229 	288
f 300 	288 	229
f 312 	313 	315
f 312 	315 	316
f 310 	309 	289
f 309 	414 	318
f 317 	318 	414
f 309 	318 	288
f 320 	306 	319
f 322 	306 	320
f 305 	319 	306
f 316 	294 	321
f 316 	321 	323
f 316 	323 	324
f 316 	324 	312
f 262 	261 	325
f 262 	325 	326
f 299 	315 	313
f 304 	319 	305
f 251 	261 	247
f 251 	247 	253
f 313 	312 	324
f 324 	425 	313
f 329 	295 	307
f 308 	307 	295
f 328 	329 	307
f 327 	328 	307
f 258 	263 	262
f 258 	262 	259
f 294 	316 	330
f 294 	330 	311
f 295 	296 	309
f 295 	309 	308
f 241 	264 	265
f 241 	265 	242
f 279 	315 	299
f 279 	299 	280
f 310 	289 	227
f 258 	257 	263
f 239 	330 	316
f 315 	278 	316
f 279 	278 	315
f 239 	316 	278
f 306 	327 	307
f 251 	249 	261
f 292 	228 	364
f 301 	364 	228
f 260 	259 	262
f 326 	260 	262
f 293 	362 	229
f 253 	247 	245
f 284 	253 	438
f 245 	438 	253
f 266 	265 	264
f 287 	417 	266
f 254 	253 	284
f 254 	284 	283
f 230 	232 	298
f 297 	231 	230
f 297 	230 	298
f 331 	323 	321
f 331 	321 	332
f 333 	334 	335
f 333 	335 	406
f 337 	338 	340
f 337 	340 	339
f 339 	330 	337
f 311 	330 	339
f 336 	337 	330
f 341 	342 	343
f 292 	344 	290
f 333 	347 	334
f 346 	348 	293
f 345 	346 	293
f 301 	353 	327
f 300 	353 	301
f 328 	327 	353
f 350 	250 	349
f 351 	250 	350
f 352 	343 	342
f 300 	354 	353
f 356 	353 	354
f 356 	354 	355
f 297 	335 	334
f 342 	231 	334
f 341 	231 	342
f 297 	334 	231
f 231 	341 	233
f 234 	233 	341
f 355 	357 	356
f 339 	356 	357
f 235 	352 	347
f 334 	352 	342
f 357 	311 	339
f 337 	336 	358
f 293 	268 	345
f 246 	282 	276
f 320 	359 	360
f 320 	360 	322
f 272 	250 	277
f 351 	277 	250
f 276 	326 	256
f 282 	326 	276
f 326 	325 	256
f 245 	256 	325
f 361 	329 	328
f 361 	328 	363
f 322 	377 	364
f 322 	364 	306
f 227 	302 	228
f 366 	381 	304
f 367 	268 	314
f 229 	314 	268
f 365 	369 	356
f 356 	369 	358
f 277 	370 	371
f 277 	371 	272
f 364 	362 	366
f 364 	366 	368
f 301 	327 	364
f 306 	364 	327
f 295 	329 	296
f 344 	368 	303
f 344 	303 	290
f 252 	255 	267
f 267 	269 	252
f 343 	352 	235
f 240 	372 	235
f 343 	235 	372
f 292 	364 	368
f 292 	368 	344
f 267 	374 	373
f 373 	374 	375
f 376 	430 	375
f 372 	240 	273
f 240 	287 	273
f 286 	273 	287
f 300 	229 	362
f 366 	362 	293
f 348 	366 	293
f 285 	244 	275
f 285 	275 	274
f 377 	394 	379
f 362 	364 	377
f 379 	362 	377
f 313 	304 	381
f 380 	313 	381
f 274 	273 	385
f 384 	385 	273
f 379 	378 	380
f 379 	380 	381
f 285 	383 	286
f 382 	383 	285
f 362 	379 	354
f 362 	354 	300
f 386 	360 	252
f 359 	252 	360
f 346 	381 	366
f 346 	366 	348
f 296 	383 	353
f 365 	353 	383
f 369 	365 	383
f 369 	383 	382
f 382 	244 	369
f 268 	354 	379
f 381 	345 	379
f 346 	345 	381
f 268 	379 	345
f 390 	387 	389
f 388 	389 	387
f 275 	391 	276
f 392 	276 	391
f 386 	252 	388
f 386 	388 	387
f 277 	351 	378
f 355 	277 	378
f 380 	378 	351
f 350 	380 	351
f 388 	252 	393
f 271 	393 	252
f 353 	356 	309
f 296 	353 	309
f 414 	309 	356
f 378 	379 	394
f 294 	395 	321
f 394 	321 	395
f 378 	394 	395
f 396 	397 	297
f 318 	317 	355
f 318 	355 	354
f 398 	399 	400
f 398 	400 	401
f 402 	313 	380
f 288 	318 	367
f 288 	367 	314
f 368 	366 	304
f 303 	368 	304
f 377 	304 	394
f 268 	367 	318
f 354 	268 	318
f 403 	304 	377
f 319 	304 	403
f 313 	394 	304
f 395 	294 	299
f 395 	299 	402
f 277 	355 	317
f 370 	277 	317
f 396 	298 	232
f 378 	395 	357
f 378 	357 	355
f 404 	405 	414
f 414 	405 	317
f 349 	402 	380
f 349 	380 	350
f 358 	414 	356
f 406 	407 	333
f 357 	395 	272
f 250 	395 	402
f 250 	402 	349
f 311 	357 	404
f 405 	404 	357
f 335 	409 	406
f 408 	406 	409
f 317 	405 	371
f 317 	371 	370
f 299 	313 	402
f 272 	371 	405
f 357 	272 	405
f 410 	411 	408
f 410 	408 	409
f 236 	311 	404
f 237 	236 	404
f 397 	409 	335
f 397 	335 	297
f 330 	413 	414
f 330 	414 	336
f 386 	332 	394
f 386 	394 	412
f 413 	404 	414
f 409 	396 	410
f 397 	396 	409
f 232 	410 	396
f 321 	394 	332
f 336 	414 	358
f 243 	401 	411
f 400 	408 	401
f 404 	413 	238
f 404 	238 	237
f 416 	406 	408
f 373 	406 	416
f 239 	238 	413
f 330 	239 	413
f 415 	356 	340
f 365 	356 	415
f 339 	340 	356
f 407 	406 	269
f 417 	267 	373
f 417 	373 	416
f 399 	416 	408
f 399 	408 	400
f 254 	283 	249
f 399 	398 	416
f 320 	319 	403
f 343 	372 	418
f 343 	418 	341
f 442 	438 	245
f 347 	333 	407
f 411 	410 	407
f 347 	407 	410
f 234 	418 	241
f 248 	264 	418
f 418 	234 	341
f 372 	273 	418
f 269 	267 	417
f 407 	269 	411
f 417 	411 	269
f 234 	241 	240
f 234 	240 	235
f 403 	377 	255
f 412 	255 	377
f 325 	249 	442
f 243 	398 	401
f 386 	387 	332
f 387 	331 	332
f 420 	283 	419
f 284 	419 	283
f 421 	422 	423
f 421 	423 	424
f 240 	243 	411
f 408 	411 	401
f 411 	417 	240
f 425 	394 	313
f 416 	398 	417
f 359 	320 	403
f 255 	252 	403
f 359 	403 	252
f 420 	249 	283
f 427 	428 	436
f 406 	436 	428
f 269 	406 	428
f 373 	375 	430
f 429 	430 	376
f 428 	427 	375
f 428 	375 	374
f 430 	436 	373
f 375 	431 	432
f 375 	432 	376
f 426 	427 	436
f 434 	427 	426
f 433 	434 	426
f 429 	424 	430
f 423 	430 	424
f 435 	436 	437
f 435 	437 	438
f 284 	438 	437
f 284 	437 	419
f 412 	432 	431
f 374 	255 	431
f 267 	255 	374
f 412 	431 	255
f 419 	437 	439
f 440 	436 	430
f 406 	373 	436
f 436 	440 	439
f 436 	439 	437
f 269 	428 	441
f 269 	441 	270
f 422 	440 	430
f 422 	430 	423
f 435 	426 	436
f 442 	420 	439
f 419 	439 	420
f 388 	431 	375
f 388 	375 	427
f 434 	389 	427
f 389 	388 	427
f 443 	442 	439
f 443 	439 	440
f 422 	421 	440
f 433 	390 	389
f 433 	389 	434
f 324 	323 	425
f 441 	428 	393
f 388 	393 	428
f 428 	374 	388
f 431 	388 	374
f 442 	443 	435
f 376 	426 	429
f 393 	271 	270
f 393 	270 	441
f 438 	442 	435
f 426 	435 	443
f 429 	426 	443
f 412 	394 	432
f 425 	432 	394
f 447 	444 	446
f 445 	446 	444
f 421 	424 	257
f 444 	415 	445
f 415 	444 	363
f 361 	363 	444
f 415 	448 	445
f 282 	257 	429
f 424 	429 	257
f 449 	450 	448
f 445 	448 	450
f 282 	429 	443
f 443 	440 	421
f 266 	398 	243
f 387 	425 	331
f 432 	425 	387
f 323 	331 	425
f 415 	340 	448
f 338 	448 	340
f 234 	235 	232
f 240 	241 	243
f 260 	421 	257
f 240 	417 	287
f 282 	263 	257
f 398 	266 	417
f 264 	287 	266
f 325 	442 	245
f 447 	273 	444
f 282 	443 	326
f 384 	273 	447
f 286 	444 	273
f 420 	442 	249
f 325 	261 	249
f 383 	444 	286
f 260 	326 	443
f 260 	443 	421
f 338 	337 	358
f 369 	448 	358
f 338 	358 	448
f 445 	382 	285
f 274 	445 	285
f 385 	446 	274
f 446 	445 	274
f 385 	384 	447
f 385 	447 	446
f 444 	296 	361
f 383 	296 	444
f 329 	361 	296
f 386 	412 	377
f 322 	360 	377
f 386 	377 	360
f 390 	426 	387
f 391 	275 	450
f 445 	450 	275
f 275 	244 	445
f 382 	445 	244
f 449 	392 	391
f 449 	391 	450
f 376 	387 	426
f 432 	387 	376
f 390 	433 	426
f 328 	353 	363
f 415 	363 	353
f 415 	353 	365
f 246 	448 	369
f 246 	276 	448
f 449 	448 	276
f 392 	449 	276
f 347 	410 	235
f 334 	347 	352
f 410 	232 	235
# 490 faces

 #end of obj_1

o obj_2
v -34.2021 		-14 		4
v -34.2021 		-14 		3.7143
v -33.5106 		-14 		4
v -33.3723 		-14 		4
v -36 		-14 		1.7141
v -36 		-14 		1.4284
v -35.3085 		-14 		1.7141
v -35.3085 		-14 		1.4284
v -35.3085 		-9.972 		1.4284
v -35.3085 		-7.9579 		1.4284
v -31.7128 		-14 		4
v -31.7128 		-14 		3.7143
v -31.0213 		-14 		3.7143
v -31.0213 		-14 		4
v -35.1702 		-7.9579 		1.4284
v -35.1702 		-9.972 		1.4284
v -35.1702 		-14 		1.4284
v -35.1702 		-14 		1.7141
v -32.3608 		-7.9579 		1.4284
v -29.6383 		-7.9579 		1.4284
v -31.5786 		-7.9579 		1.4284
v -29.6383 		-9.972 		1.4284
v -29.6383 		-9.972 		0.8569
v -30.1915 		-14 		1.7141
v -31.8511 		40 		4
v -30.1915 		-14 		1.4284
v -33.072 		30.3085 		2.163
v -29.5 		-14 		1.4284
v -29.5 		-14 		1.7141
v -33.072 		32.3225 		2.163
v -29.6383 		-7.9579 		0.8569
v -31.0213 		-14 		1.7141
v -31.0213 		-14 		1.4284
v -30.3298 		-14 		1.4284
v -30.3298 		-14 		1.7141
v -30.1915 		-9.972 		1.4284
v -30.3298 		-9.972 		1.4284
v -31.0213 		-9.972 		1.4284
v -34.4787 		-9.972 		1.4284
v -34.4787 		-14 		1.4284
v -34.4787 		-14 		1.7141
v -33.7831 		32.3225 		1.4284
v -32.6809 		-14 		4
v -34.3363 		32.3225 		0.8569
v -35.1658 		32.3225 		0
v -35.1658 		30.3085 		0
v -31.8511 		-14 		4
v -34.3363 		-7.9579 		0.8569
v -33.5541 		-7.9579 		0.8569
v -31.8076 		-7.9579 		0.8569
v -31.0254 		-7.9579 		0.8569
v -32.5426 		-14 		4
v -31.0213 		40 		4
v -31.0213 		40 		3.7143
v -31.7128 		40 		3.7143
v -31.7128 		40 		4
v -31.0213 		-7.9579 		1.4284
v -29.5 		40 		1.7141
v -29.5 		40 		1.4284
v -33.0009 		-7.9579 		1.4284
v -33.7831 		-7.9579 		1.4284
v -34.4787 		-7.9579 		1.4284
v -33.3723 		-9.972 		3.7143
v -33.5106 		-9.972 		3.7143
v -34.2021 		40 		3.7143
v -34.2021 		40 		4
v -33.5106 		40 		4
v -33.3723 		40 		4
v -31.7128 		32.3225 		3.7143
v -34.1465 		-7.9579 		3.1428
v -34.0204 		-7.9579 		3.1428
v -36 		40 		1.4284
v -36 		40 		1.7141
v -31.7128 		34.3366 		3.7143
v -33.3723 		-7.9579 		3.7143
v -33.5106 		-7.9579 		3.7143
v -33.5106 		-14 		3.7143
v -34.2021 		34.3366 		3.7143
v -34.2021 		34.3366 		3.1428
v -34.2021 		32.3225 		3.1428
v -34.2021 		32.3225 		3.7143
v -34.2021 		-7.9579 		3.7143
v -34.2021 		-7.9579 		3.1428
v -34.2021 		-9.972 		3.1428
v -34.2021 		-9.972 		3.7143
v -31.7128 		-7.9579 		3.7143
v -31.0213 		32.3225 		3.1428
v -31.0213 		34.3366 		3.1428
v -33.3723 		-14 		3.7143
v -31.0213 		34.3366 		3.7143
v -31.0213 		32.3225 		3.7143
v -32.5426 		-9.972 		3.7143
v -32.6809 		-9.972 		3.7143
v -34.1465 		32.3225 		3.1428
v -34.0835 		32.3225 		3.2079
v -31.6693 		32.3225 		3.612
v -33.6924 		32.3225 		3.612
v -31.2782 		32.3225 		3.2079
v -31.2152 		32.3225 		3.1428
v -30.1915 		-7.9579 		1.4284
v -30.3298 		-7.9579 		1.4284
v -33.5933 		-7.9579 		3.7143
v -33.6924 		-7.9579 		3.612
v -34.0835 		-7.9579 		3.2079
v -31.0213 		-7.9579 		3.7143
v -31.2782 		30.3085 		3.2079
v -31.6693 		30.3085 		3.612
v -35.8617 		32.3225 		1.371
v -35.8617 		32.3225 		1.4284
v -35.8617 		34.3366 		1.4284
v -31.0213 		-7.9579 		3.1428
v -31.2782 		-7.9579 		3.2079
v -31.2782 		-5.9439 		3.2079
v -31.6693 		-7.9579 		3.612
v -31.6693 		-5.9439 		3.612
v -35.8617 		-9.972 		1.4284
v -35.8617 		-7.9579 		1.4284
v -35.8617 		-7.9579 		1.371
v -33.5106 		40 		3.7143
v -32.6809 		40 		4
v -32.6809 		40 		3.7143
v -35.8061 		32.3225 		1.4284
v -33.3723 		40 		3.7143
v -31.8511 		40 		3.7143
v -32.5426 		40 		3.7143
v -32.5426 		40 		4
v -35.8061 		-7.9579 		1.4284
v -33.2382 		-7.9579 		3.1428
v -32.6809 		-7.9579 		3.7143
v -32.5426 		-7.9579 		3.7143
v -32.1235 		-7.9579 		3.1428
v -31.8511 		-7.9579 		3.7143
v -31.3413 		-7.9579 		3.1428
v -34.0835 		30.3085 		3.2079
v -33.6924 		30.3085 		3.612
v -34.0835 		-5.9439 		3.2079
v -33.3723 		32.3225 		3.7143
v -33.6924 		-5.9439 		3.612
v -33.5106 		32.3225 		3.7143
v -32.6809 		-7.9579 		2.567
v -33.3723 		34.3366 		3.7143
v -32.6809 		-14 		3.7143
v -33.5106 		34.3366 		3.7143
v -32.2897 		-7.9579 		2.163
v -32.5426 		-14 		3.7143
v -31.8511 		-14 		3.7143
v -35.8617 		-7.9579 		0.8569
v -33.7831 		34.3366 		1.4284
v -33.0009 		32.3225 		1.4284
v -32.3608 		32.3225 		1.4284
v -31.5786 		32.3225 		1.4284
v -33.2382 		32.3225 		3.1428
v -32.5426 		32.3225 		3.7143
v -32.6809 		32.3225 		3.7143
v -32.5426 		34.3366 		3.7143
v -32.6809 		34.3366 		3.7143
v -32.6809 		-7.9579 		1.759
v -33.072 		-7.9579 		2.163
v -35.1658 		-7.9579 		0
v -34.3836 		-7.9579 		0
v -32.6809 		30.3085 		2.567
v -32.2897 		30.3085 		2.163
v -32.6809 		30.3085 		1.759
v -30.9781 		30.3085 		0
v -30.1959 		30.3085 		0
v -30.9781 		-7.9579 		0
v -30.1959 		-7.9579 		0
v -34.3836 		30.3085 		0
v -32.1235 		32.3225 		3.1428
v -31.8511 		32.3225 		3.7143
v -35.3085 		40 		1.7141
v -35.3085 		40 		1.4284
v -34.4787 		40 		1.7141
v -34.4787 		40 		1.4284
v -35.1702 		40 		1.4284
v -35.1702 		40 		1.7141
v -31.8511 		34.3366 		3.7143
v -34.0204 		32.3225 		3.1428
v -31.7128 		-9.972 		3.7143
v -31.8511 		-9.972 		3.7143
v -35.8617 		34.3366 		0.8569
v -35.8617 		32.3225 		0.8569
v -35.1702 		34.3366 		1.4284
v -35.3085 		34.3366 		1.4284
v -35.3085 		32.3225 		1.4284
v -35.1702 		32.3225 		1.4284
v -32.6809 		32.3225 		2.567
v -31.0213 		-9.972 		3.7143
v -31.0213 		-9.972 		3.1428
v -32.6809 		-5.9439 		2.567
v -34.4787 		34.3366 		1.4284
v -34.4787 		32.3225 		1.4284
v -35.8617 		-9.972 		0.8569
v -30.1915 		40 		1.4284
v -30.1915 		40 		1.7141
v -30.3298 		40 		1.7141
v -30.3298 		40 		1.4284
v -31.0213 		40 		1.4284
v -31.0213 		40 		1.7141
v -31.3413 		32.3225 		3.1428
v -31.0254 		32.3225 		0.8569
v -31.8076 		32.3225 		0.8569
v -33.5541 		32.3225 		0.8569
v -31.0213 		32.3225 		1.4284
v -31.0213 		34.3366 		1.4284
v -32.6809 		32.3225 		1.759
v -32.2897 		32.3225 		2.163
v -30.1959 		32.3225 		0
v -30.9781 		32.3225 		0
v -29.6383 		32.3225 		0.8569
v -29.6383 		34.3366 		0.8569
v -29.6383 		34.3366 		1.4284
v -29.6383 		32.3225 		1.4284
v -30.1915 		34.3366 		1.4284
v -30.3298 		34.3366 		1.4284
v -34.3836 		32.3225 		0
v -30.1915 		32.3225 		1.4284
v -30.3298 		32.3225 		1.4284
v -33.072 		-5.9439 		2.163
v -32.6809 		-5.9439 		1.759
v -34.3836 		-5.9439 		0
v -35.1658 		-5.9439 		0
v -32.2897 		-5.9439 		2.163
v -30.1959 		-5.9439 		0
v -30.9781 		-5.9439 		0
# 225 vertices

g group_2_9079434

usemtl color_9079434
s 0

f 451 	452 	453
f 458 	455 	456
f 457 	458 	459
f 461 	462 	463
f 461 	463 	464
f 467 	468 	466
f 457 	455 	458
f 471 	594 	469
f 474 	476 	478
f 474 	478 	479
f 470 	472 	473
f 470 	473 	481
f 482 	483 	484
f 482 	484 	485
f 468 	467 	490
f 468 	490 	491
f 487 	473 	486
f 488 	473 	487
f 489 	473 	488
f 466 	643 	489
f 472 	486 	473
f 496 	477 	494
f 495 	496 	494
f 498 	499 	643
f 473 	643 	499
f 499 	500 	473
f 500 	501 	473
f 481 	473 	501
f 503 	504 	505
f 503 	505 	506
f 507 	471 	488
f 471 	469 	488
f 469 	510 	488
f 489 	488 	510
f 489 	510 	511
f 489 	511 	512
f 513 	514 	534
f 515 	516 	517
f 464 	503 	461
f 506 	461 	503
f 522 	523 	621
f 516 	451 	453
f 516 	453 	517
f 514 	513 	525
f 514 	525 	526
f 493 	518 	454
f 514 	527 	452
f 528 	529 	530
f 528 	530 	531
f 475 	497 	620
f 527 	514 	453
f 526 	453 	514
f 532 	533 	534
f 532 	534 	535
f 461 	506 	519
f 536 	461 	519
f 524 	519 	506
f 505 	524 	506
f 451 	516 	531
f 532 	451 	531
f 535 	451 	532
f 452 	451 	535
f 528 	531 	516
f 515 	528 	516
f 539 	454 	513
f 525 	513 	454
f 537 	538 	540
f 537 	540 	541
f 535 	534 	514
f 534 	639 	543
f 542 	543 	639
f 534 	543 	513
f 545 	531 	544
f 547 	531 	545
f 530 	544 	531
f 541 	519 	546
f 541 	546 	548
f 541 	548 	549
f 541 	549 	537
f 487 	486 	550
f 487 	550 	551
f 524 	540 	538
f 529 	544 	530
f 476 	486 	472
f 476 	472 	478
f 538 	537 	549
f 549 	650 	538
f 554 	520 	532
f 533 	532 	520
f 553 	554 	532
f 552 	553 	532
f 483 	488 	487
f 483 	487 	484
f 519 	541 	555
f 519 	555 	536
f 520 	521 	534
f 520 	534 	533
f 466 	489 	490
f 466 	490 	467
f 504 	540 	524
f 504 	524 	505
f 535 	514 	452
f 483 	482 	488
f 464 	555 	541
f 540 	503 	541
f 504 	503 	540
f 464 	541 	503
f 531 	552 	532
f 476 	474 	486
f 517 	453 	589
f 526 	589 	453
f 485 	484 	487
f 551 	485 	487
f 518 	587 	454
f 478 	472 	470
f 509 	478 	663
f 470 	663 	478
f 491 	490 	489
f 512 	642 	491
f 479 	478 	509
f 479 	509 	508
f 455 	457 	523
f 522 	456 	455
f 522 	455 	523
f 556 	548 	546
f 556 	546 	557
f 558 	559 	560
f 558 	560 	631
f 562 	563 	565
f 562 	565 	564
f 564 	555 	562
f 536 	555 	564
f 561 	562 	555
f 566 	567 	568
f 517 	569 	515
f 558 	572 	559
f 571 	573 	518
f 570 	571 	518
f 526 	578 	552
f 525 	578 	526
f 553 	552 	578
f 575 	475 	574
f 576 	475 	575
f 577 	568 	567
f 525 	579 	578
f 581 	578 	579
f 581 	579 	580
f 522 	560 	559
f 567 	456 	559
f 566 	456 	567
f 522 	559 	456
f 456 	566 	458
f 459 	458 	566
f 580 	582 	581
f 564 	581 	582
f 460 	577 	572
f 559 	577 	567
f 582 	536 	564
f 562 	561 	583
f 518 	493 	570
f 471 	507 	501
f 545 	584 	585
f 545 	585 	547
f 497 	475 	502
f 576 	502 	475
f 501 	551 	481
f 507 	551 	501
f 551 	550 	481
f 470 	481 	550
f 586 	554 	553
f 586 	553 	588
f 547 	602 	589
f 547 	589 	531
f 452 	527 	453
f 591 	606 	529
f 592 	493 	539
f 454 	539 	493
f 590 	594 	581
f 581 	594 	583
f 502 	595 	596
f 502 	596 	497
f 589 	587 	591
f 589 	591 	593
f 526 	552 	589
f 531 	589 	552
f 520 	554 	521
f 569 	593 	528
f 569 	528 	515
f 477 	480 	492
f 492 	494 	477
f 568 	577 	460
f 465 	597 	460
f 568 	460 	597
f 517 	589 	593
f 517 	593 	569
f 492 	599 	598
f 598 	599 	600
f 601 	655 	600
f 597 	465 	498
f 465 	512 	498
f 511 	498 	512
f 525 	454 	587
f 591 	587 	518
f 573 	591 	518
f 510 	469 	500
f 510 	500 	499
f 602 	619 	604
f 587 	589 	602
f 604 	587 	602
f 538 	529 	606
f 605 	538 	606
f 499 	498 	610
f 609 	610 	498
f 604 	603 	605
f 604 	605 	606
f 510 	608 	511
f 607 	608 	510
f 587 	604 	579
f 587 	579 	525
f 611 	585 	477
f 584 	477 	585
f 571 	606 	591
f 571 	591 	573
f 521 	608 	578
f 590 	578 	608
f 594 	590 	608
f 594 	608 	607
f 607 	469 	594
f 493 	579 	604
f 606 	570 	604
f 571 	570 	606
f 493 	604 	570
f 615 	612 	614
f 613 	614 	612
f 500 	616 	501
f 617 	501 	616
f 611 	477 	613
f 611 	613 	612
f 502 	576 	603
f 580 	502 	603
f 605 	603 	576
f 575 	605 	576
f 613 	477 	618
f 496 	618 	477
f 578 	581 	534
f 521 	578 	534
f 639 	534 	581
f 603 	604 	619
f 519 	620 	546
f 619 	546 	620
f 603 	619 	620
f 621 	622 	522
f 543 	542 	580
f 543 	580 	579
f 623 	624 	625
f 623 	625 	626
f 627 	538 	605
f 513 	543 	592
f 513 	592 	539
f 593 	591 	529
f 528 	593 	529
f 602 	529 	619
f 493 	592 	543
f 579 	493 	543
f 628 	529 	602
f 544 	529 	628
f 538 	619 	529
f 620 	519 	524
f 620 	524 	627
f 502 	580 	542
f 595 	502 	542
f 621 	523 	457
f 603 	620 	582
f 603 	582 	580
f 629 	630 	639
f 639 	630 	542
f 574 	627 	605
f 574 	605 	575
f 583 	639 	581
f 631 	632 	558
f 582 	620 	497
f 475 	620 	627
f 475 	627 	574
f 536 	582 	629
f 630 	629 	582
f 560 	634 	631
f 633 	631 	634
f 542 	630 	596
f 542 	596 	595
f 524 	538 	627
f 497 	596 	630
f 582 	497 	630
f 635 	636 	633
f 635 	633 	634
f 461 	536 	629
f 462 	461 	629
f 622 	634 	560
f 622 	560 	522
f 555 	638 	639
f 555 	639 	561
f 611 	557 	619
f 611 	619 	637
f 638 	629 	639
f 634 	621 	635
f 622 	621 	634
f 457 	635 	621
f 546 	619 	557
f 561 	639 	583
f 468 	626 	636
f 625 	633 	626
f 629 	638 	463
f 629 	463 	462
f 641 	631 	633
f 598 	631 	641
f 464 	463 	638
f 555 	464 	638
f 640 	581 	565
f 590 	581 	640
f 564 	565 	581
f 632 	631 	494
f 642 	492 	598
f 642 	598 	641
f 624 	641 	633
f 624 	633 	625
f 479 	508 	474
f 624 	623 	641
f 545 	544 	628
f 568 	597 	643
f 568 	643 	566
f 667 	663 	470
f 572 	558 	632
f 636 	635 	632
f 572 	632 	635
f 459 	643 	466
f 473 	489 	643
f 643 	459 	566
f 597 	498 	643
f 494 	492 	642
f 632 	494 	636
f 642 	636 	494
f 459 	466 	465
f 459 	465 	460
f 628 	602 	480
f 637 	480 	602
f 550 	474 	667
f 468 	623 	626
f 611 	612 	557
f 612 	556 	557
f 645 	508 	644
f 509 	644 	508
f 646 	647 	648
f 646 	648 	649
f 465 	468 	636
f 633 	636 	626
f 636 	642 	465
f 650 	619 	538
f 641 	623 	642
f 584 	545 	628
f 480 	477 	628
f 584 	628 	477
f 645 	474 	508
f 652 	653 	661
f 631 	661 	653
f 494 	631 	653
f 598 	600 	655
f 654 	655 	601
f 653 	652 	600
f 653 	600 	599
f 655 	661 	598
f 600 	656 	657
f 600 	657 	601
f 651 	652 	661
f 659 	652 	651
f 658 	659 	651
f 654 	649 	655
f 648 	655 	649
f 660 	661 	662
f 660 	662 	663
f 509 	663 	662
f 509 	662 	644
f 637 	657 	656
f 599 	480 	656
f 492 	480 	599
f 637 	656 	480
f 644 	662 	664
f 665 	661 	655
f 631 	598 	661
f 661 	665 	664
f 661 	664 	662
f 494 	653 	666
f 494 	666 	495
f 647 	665 	655
f 647 	655 	648
f 660 	651 	661
f 667 	645 	664
f 644 	664 	645
f 613 	656 	600
f 613 	600 	652
f 659 	614 	652
f 614 	613 	652
f 668 	667 	664
f 668 	664 	665
f 647 	646 	665
f 658 	615 	614
f 658 	614 	659
f 549 	548 	650
f 666 	653 	618
f 613 	618 	653
f 653 	599 	613
f 656 	613 	599
f 667 	668 	660
f 601 	651 	654
f 618 	496 	495
f 618 	495 	666
f 663 	667 	660
f 651 	660 	668
f 654 	651 	668
f 637 	619 	657
f 650 	657 	619
f 672 	669 	671
f 670 	671 	669
f 646 	649 	482
f 669 	640 	670
f 640 	669 	588
f 586 	588 	669
f 640 	673 	670
f 507 	482 	654
f 649 	654 	482
f 674 	675 	673
f 670 	673 	675
f 507 	654 	668
f 668 	665 	646
f 491 	623 	468
f 612 	650 	556
f 657 	650 	612
f 548 	556 	650
f 640 	565 	673
f 563 	673 	565
f 459 	460 	457
f 465 	466 	468
f 485 	646 	482
f 465 	642 	512
f 507 	488 	482
f 623 	491 	642
f 489 	512 	491
f 550 	667 	470
f 672 	498 	669
f 507 	668 	551
f 609 	498 	672
f 511 	669 	498
f 645 	667 	474
f 550 	486 	474
f 608 	669 	511
f 485 	551 	668
f 485 	668 	646
f 563 	562 	583
f 594 	673 	583
f 563 	583 	673
f 670 	607 	510
f 499 	670 	510
f 610 	671 	499
f 671 	670 	499
f 610 	609 	672
f 610 	672 	671
f 669 	521 	586
f 608 	521 	669
f 554 	586 	521
f 611 	637 	602
f 547 	585 	602
f 611 	602 	585
f 615 	651 	612
f 616 	500 	675
f 670 	675 	500
f 500 	469 	670
f 607 	670 	469
f 674 	617 	616
f 674 	616 	675
f 601 	612 	651
f 657 	612 	601
f 615 	658 	651
f 553 	578 	588
f 640 	588 	578
f 640 	578 	590
f 471 	673 	594
f 471 	501 	673
f 674 	673 	501
f 617 	674 	501
f 572 	635 	460
f 559 	572 	577
f 635 	457 	460
# 490 faces

 #end of obj_2

o obj_3
v -42.7021 		-14 		4
v -42.7021 		-14 		3.7143
v -42.0106 		-14 		4
v -41.8723 		-14 		4
v -44.5 		-14 		1.7141
v -44.5 		-14 		1.4284
v -43.8085 		-14 		1.7141
v -43.8085 		-14 		1.4284
v -43.8085 		-9.972 		1.4284
v -43.8085 		-7.9579 		1.4284
v -40.2128 		-14 		4
v -40.2128 		-14 		3.7143
v -39.5213 		-14 		3.7143
v -39.5213 		-14 		4
v -43.6702 		-7.9579 		1.4284
v -43.6702 		-9.972 		1.4284
v -43.6702 		-14 		1.4284
v -43.6702 		-14 		1.7141
v -40.8608 		-7.9579 		1.4284
v -38.1383 		-7.9579 		1.4284
v -40.0786 		-7.9579 		1.4284
v -38.1383 		-9.972 		1.4284
v -38.1383 		-9.972 		0.8569
v -38.6915 		-14 		1.7141
v -40.3511 		40 		4
v -38.6915 		-14 		1.4284
v -41.572 		30.3085 		2.163
v -38 		-14 		1.4284
v -38 		-14 		1.7141
v -41.572 		32.3225 		2.163
v -38.1383 		-7.9579 		0.8569
v -39.5213 		-14 		1.7141
v -39.5213 		-14 		1.4284
v -38.8298 		-14 		1.4284
v -38.8298 		-14 		1.7141
v -38.6915 		-9.972 		1.4284
v -38.8298 		-9.972 		1.4284
v -39.5213 		-9.972 		1.4284
v -42.9787 		-9.972 		1.4284
v -42.9787 		-14 		1.4284
v -42.9787 		-14 		1.7141
v -42.2831 		32.3225 		1.4284
v -41.1809 		-14 		4
v -42.8363 		32.3225 		0.8569
v -43.6658 		32.3225 		0
v -43.6658 		30.3085 		0
v -40.3511 		-14 		4
v -42.8363 		-7.9579 		0.8569
v -42.0541 		-7.9579 		0.8569
v -40.3076 		-7.9579 		0.8569
v -39.5254 		-7.9579 		0.8569
v -41.0426 		-14 		4
v -39.5213 		40 		4
v -39.5213 		40 		3.7143
v -40.2128 		40 		3.7143
v -40.2128 		40 		4
v -39.5213 		-7.9579 		1.4284
v -38 		40 		1.7141
v -38 		40 		1.4284
v -41.5009 		-7.9579 		1.4284
v -42.2831 		-7.9579 		1.4284
v -42.9787 		-7.9579 		1.4284
v -41.8723 		-9.972 		3.7143
v -42.0106 		-9.972 		3.7143
v -42.7021 		40 		3.7143
v -42.7021 		40 		4
v -42.0106 		40 		4
v -41.8723 		40 		4
v -40.2128 		32.3225 		3.7143
v -42.6465 		-7.9579 		3.1428
v -42.5204 		-7.9579 		3.1428
v -44.5 		40 		1.4284
v -44.5 		40 		1.7141
v -40.2128 		34.3366 		3.7143
v -41.8723 		-7.9579 		3.7143
v -42.0106 		-7.9579 		3.7143
v -42.0106 		-14 		3.7143
v -42.7021 		34.3366 		3.7143
v -42.7021 		34.3366 		3.1428
v -42.7021 		32.3225 		3.1428
v -42.7021 		32.3225 		3.7143
v -42.7021 		-7.9579 		3.7143
v -42.7021 		-7.9579 		3.1428
v -42.7021 		-9.972 		3.1428
v -42.7021 		-9.972 		3.7143
v -40.2128 		-7.9579 		3.7143
v -39.5213 		32.3225 		3.1428
v -39.5213 		34.3366 		3.1428
v -41.8723 		-14 		3.7143
v -39.5213 		34.3366 		3.7143
v -39.5213 		32.3225 		3.7143
v -41.0426 		-9.972 		3.7143
v -41.1809 		-9.972 		3.7143
v -42.6465 		32.3225 		3.1428
v -42.5835 		32.3225 		3.2079
v -40.1693 		32.3225 		3.612
v -42.1924 		32.3225 		3.612
v -39.7782 		32.3225 		3.2079
v -39.7152 		32.3225 		3.1428
v -38.6915 		-7.9579 		1.4284
v -38.8298 		-7.9579 		1.4284
v -42.0933 		-7.9579 		3.7143
v -42.1924 		-7.9579 		3.612
v -42.5835 		-7.9579 		3.2079
v -39.5213 		-7.9579 		3.7143
v -39.7782 		30.3085 		3.2079
v -40.1693 		30.3085 		3.612
v -44.3617 		32.3225 		1.371
v -44.3617 		32.3225 		1.4284
v -44.3617 		34.3366 		1.4284
v -39.5213 		-7.9579 		3.1428
v -39.7782 		-7.9579 		3.2079
v -39.7782 		-5.9439 		3.2079
v -40.1693 		-7.9579 		3.612
v -40.1693 		-5.9439 		3.612
v -44.3617 		-9.972 		1.4284
v -44.3617 		-7.9579 		1.4284
v -44.3617 		-7.9579 		1.371
v -42.0106 		40 		3.7143
v -41.1809 		40 		4
v -41.1809 		40 		3.7143
v -44.3061 		32.3225 		1.4284
v -41.8723 		40 		3.7143
v -40.3511 		40 		3.7143
v -41.0426 		40 		3.7143
v -41.0426 		40 		4
v -44.3061 		-7.9579 		1.4284
v -41.7382 		-7.9579 		3.1428
v -41.1809 		-7.9579 		3.7143
v -41.0426 		-7.9579 		3.7143
v -40.6235 		-7.9579 		3.1428
v -40.3511 		-7.9579 		3.7143
v -39.8413 		-7.9579 		3.1428
v -42.5835 		30.3085 		3.2079
v -42.1924 		30.3085 		3.612
v -42.5835 		-5.9439 		3.2079
v -41.8723 		32.3225 		3.7143
v -42.1924 		-5.9439 		3.612
v -42.0106 		32.3225 		3.7143
v -41.1809 		-7.9579 		2.567
v -41.8723 		34.3366 		3.7143
v -41.1809 		-14 		3.7143
v -42.0106 		34.3366 		3.7143
v -40.7897 		-7.9579 		2.163
v -41.0426 		-14 		3.7143
v -40.3511 		-14 		3.7143
v -44.3617 		-7.9579 		0.8569
v -42.2831 		34.3366 		1.4284
v -41.5009 		32.3225 		1.4284
v -40.8608 		32.3225 		1.4284
v -40.0786 		32.3225 		1.4284
v -41.7382 		32.3225 		3.1428
v -41.0426 		32.3225 		3.7143
v -41.1809 		32.3225 		3.7143
v -41.0426 		34.3366 		3.7143
v -41.1809 		34.3366 		3.7143
v -41.1809 		-7.9579 		1.759
v -41.572 		-7.9579 		2.163
v -43.6658 		-7.9579 		0
v -42.8836 		-7.9579 		0
v -41.1809 		30.3085 		2.567
v -40.7897 		30.3085 		2.163
v -41.1809 		30.3085 		1.759
v -39.4781 		30.3085 		0
v -38.6959 		30.3085 		0
v -39.4781 		-7.9579 		0
v -38.6959 		-7.9579 		0
v -42.8836 		30.3085 		0
v -40.6235 		32.3225 		3.1428
v -40.3511 		32.3225 		3.7143
v -43.8085 		40 		1.7141
v -43.8085 		40 		1.4284
v -42.9787 		40 		1.7141
v -42.9787 		40 		1.4284
v -43.6702 		40 		1.4284
v -43.6702 		40 		1.7141
v -40.3511 		34.3366 		3.7143
v -42.5204 		32.3225 		3.1428
v -40.2128 		-9.972 		3.7143
v -40.3511 		-9.972 		3.7143
v -44.3617 		34.3366 		0.8569
v -44.3617 		32.3225 		0.8569
v -43.6702 		34.3366 		1.4284
v -43.8085 		34.3366 		1.4284
v -43.8085 		32.3225 		1.4284
v -43.6702 		32.3225 		1.4284
v -41.1809 		32.3225 		2.567
v -39.5213 		-9.972 		3.7143
v -39.5213 		-9.972 		3.1428
v -41.1809 		-5.9439 		2.567
v -42.9787 		34.3366 		1.4284
v -42.9787 		32.3225 		1.4284
v -44.3617 		-9.972 		0.8569
v -38.6915 		40 		1.4284
v -38.6915 		40 		1.7141
v -38.8298 		40 		1.7141
v -38.8298 		40 		1.4284
v -39.5213 		40 		1.4284
v -39.5213 		40 		1.7141
v -39.8413 		32.3225 		3.1428
v -39.5254 		32.3225 		0.8569
v -40.3076 		32.3225 		0.8569
v -42.0541 		32.3225 		0.8569
v -39.5213 		32.3225 		1.4284
v -39.5213 		34.3366 		1.4284
v -41.1809 		32.3225 		1.759
v -40.7897 		32.3225 		2.163
v -38.6959 		32.3225 		0
v -39.4781 		32.3225 		0
v -38.1383 		32.3225 		0.8569
v -38.1383 		34.3366 		0.8569
v -38.1383 		34.3366 		1.4284
v -38.1383 		32.3225 		1.4284
v -38.6915 		34.3366 		1.4284
v -38.8298 		34.3366 		1.4284
v -42.8836 		32.3225 		0
v -38.6915 		32.3225 		1.4284
v -38.8298 		32.3225 		1.4284
v -41.572 		-5.9439 		2.163
v -41.1809 		-5.9439 		1.759
v -42.8836 		-5.9439 		0
v -43.6658 		-5.9439 		0
v -40.7897 		-5.9439 		2.163
v -38.6959 		-5.9439 		0
v -39.4781 		-5.9439 		0
# 225 vertices

g group_3_9079434

usemtl color_9079434
s 0

f 676 	677 	678
f 683 	680 	681
f 682 	683 	684
f 686 	687 	688
f 686 	688 	689
f 692 	693 	691
f 682 	680 	683
f 696 	819 	694
f 699 	701 	703
f 699 	703 	704
f 695 	697 	698
f 695 	698 	706
f 707 	708 	709
f 707 	709 	710
f 693 	692 	715
f 693 	715 	716
f 712 	698 	711
f 713 	698 	712
f 714 	698 	713
f 691 	868 	714
f 697 	711 	698
f 721 	702 	719
f 720 	721 	719
f 723 	724 	868
f 698 	868 	724
f 724 	725 	698
f 725 	726 	698
f 706 	698 	726
f 728 	729 	730
f 728 	730 	731
f 732 	696 	713
f 696 	694 	713
f 694 	735 	713
f 714 	713 	735
f 714 	735 	736
f 714 	736 	737
f 738 	739 	759
f 740 	741 	742
f 689 	728 	686
f 731 	686 	728
f 747 	748 	846
f 741 	676 	678
f 741 	678 	742
f 739 	738 	750
f 739 	750 	751
f 718 	743 	679
f 739 	752 	677
f 753 	754 	755
f 753 	755 	756
f 700 	722 	845
f 752 	739 	678
f 751 	678 	739
f 757 	758 	759
f 757 	759 	760
f 686 	731 	744
f 761 	686 	744
f 749 	744 	731
f 730 	749 	731
f 676 	741 	756
f 757 	676 	756
f 760 	676 	757
f 677 	676 	760
f 753 	756 	741
f 740 	753 	741
f 764 	679 	738
f 750 	738 	679
f 762 	763 	765
f 762 	765 	766
f 760 	759 	739
f 759 	864 	768
f 767 	768 	864
f 759 	768 	738
f 770 	756 	769
f 772 	756 	770
f 755 	769 	756
f 766 	744 	771
f 766 	771 	773
f 766 	773 	774
f 766 	774 	762
f 712 	711 	775
f 712 	775 	776
f 749 	765 	763
f 754 	769 	755
f 701 	711 	697
f 701 	697 	703
f 763 	762 	774
f 774 	875 	763
f 779 	745 	757
f 758 	757 	745
f 778 	779 	757
f 777 	778 	757
f 708 	713 	712
f 708 	712 	709
f 744 	766 	780
f 744 	780 	761
f 745 	746 	759
f 745 	759 	758
f 691 	714 	715
f 691 	715 	692
f 729 	765 	749
f 729 	749 	730
f 760 	739 	677
f 708 	707 	713
f 689 	780 	766
f 765 	728 	766
f 729 	728 	765
f 689 	766 	728
f 756 	777 	757
f 701 	699 	711
f 742 	678 	814
f 751 	814 	678
f 710 	709 	712
f 776 	710 	712
f 743 	812 	679
f 703 	697 	695
f 734 	703 	888
f 695 	888 	703
f 716 	715 	714
f 737 	867 	716
f 704 	703 	734
f 704 	734 	733
f 680 	682 	748
f 747 	681 	680
f 747 	680 	748
f 781 	773 	771
f 781 	771 	782
f 783 	784 	785
f 783 	785 	856
f 787 	788 	790
f 787 	790 	789
f 789 	780 	787
f 761 	780 	789
f 786 	787 	780
f 791 	792 	793
f 742 	794 	740
f 783 	797 	784
f 796 	798 	743
f 795 	796 	743
f 751 	803 	777
f 750 	803 	751
f 778 	777 	803
f 800 	700 	799
f 801 	700 	800
f 802 	793 	792
f 750 	804 	803
f 806 	803 	804
f 806 	804 	805
f 747 	785 	784
f 792 	681 	784
f 791 	681 	792
f 747 	784 	681
f 681 	791 	683
f 684 	683 	791
f 805 	807 	806
f 789 	806 	807
f 685 	802 	797
f 784 	802 	792
f 807 	761 	789
f 787 	786 	808
f 743 	718 	795
f 696 	732 	726
f 770 	809 	810
f 770 	810 	772
f 722 	700 	727
f 801 	727 	700
f 726 	776 	706
f 732 	776 	726
f 776 	775 	706
f 695 	706 	775
f 811 	779 	778
f 811 	778 	813
f 772 	827 	814
f 772 	814 	756
f 677 	752 	678
f 816 	831 	754
f 817 	718 	764
f 679 	764 	718
f 815 	819 	806
f 806 	819 	808
f 727 	820 	821
f 727 	821 	722
f 814 	812 	816
f 814 	816 	818
f 751 	777 	814
f 756 	814 	777
f 745 	779 	746
f 794 	818 	753
f 794 	753 	740
f 702 	705 	717
f 717 	719 	702
f 793 	802 	685
f 690 	822 	685
f 793 	685 	822
f 742 	814 	818
f 742 	818 	794
f 717 	824 	823
f 823 	824 	825
f 826 	880 	825
f 822 	690 	723
f 690 	737 	723
f 736 	723 	737
f 750 	679 	812
f 816 	812 	743
f 798 	816 	743
f 735 	694 	725
f 735 	725 	724
f 827 	844 	829
f 812 	814 	827
f 829 	812 	827
f 763 	754 	831
f 830 	763 	831
f 724 	723 	835
f 834 	835 	723
f 829 	828 	830
f 829 	830 	831
f 735 	833 	736
f 832 	833 	735
f 812 	829 	804
f 812 	804 	750
f 836 	810 	702
f 809 	702 	810
f 796 	831 	816
f 796 	816 	798
f 746 	833 	803
f 815 	803 	833
f 819 	815 	833
f 819 	833 	832
f 832 	694 	819
f 718 	804 	829
f 831 	795 	829
f 796 	795 	831
f 718 	829 	795
f 840 	837 	839
f 838 	839 	837
f 725 	841 	726
f 842 	726 	841
f 836 	702 	838
f 836 	838 	837
f 727 	801 	828
f 805 	727 	828
f 830 	828 	801
f 800 	830 	801
f 838 	702 	843
f 721 	843 	702
f 803 	806 	759
f 746 	803 	759
f 864 	759 	806
f 828 	829 	844
f 744 	845 	771
f 844 	771 	845
f 828 	844 	845
f 846 	847 	747
f 768 	767 	805
f 768 	805 	804
f 848 	849 	850
f 848 	850 	851
f 852 	763 	830
f 738 	768 	817
f 738 	817 	764
f 818 	816 	754
f 753 	818 	754
f 827 	754 	844
f 718 	817 	768
f 804 	718 	768
f 853 	754 	827
f 769 	754 	853
f 763 	844 	754
f 845 	744 	749
f 845 	749 	852
f 727 	805 	767
f 820 	727 	767
f 846 	748 	682
f 828 	845 	807
f 828 	807 	805
f 854 	855 	864
f 864 	855 	767
f 799 	852 	830
f 799 	830 	800
f 808 	864 	806
f 856 	857 	783
f 807 	845 	722
f 700 	845 	852
f 700 	852 	799
f 761 	807 	854
f 855 	854 	807
f 785 	859 	856
f 858 	856 	859
f 767 	855 	821
f 767 	821 	820
f 749 	763 	852
f 722 	821 	855
f 807 	722 	855
f 860 	861 	858
f 860 	858 	859
f 686 	761 	854
f 687 	686 	854
f 847 	859 	785
f 847 	785 	747
f 780 	863 	864
f 780 	864 	786
f 836 	782 	844
f 836 	844 	862
f 863 	854 	864
f 859 	846 	860
f 847 	846 	859
f 682 	860 	846
f 771 	844 	782
f 786 	864 	808
f 693 	851 	861
f 850 	858 	851
f 854 	863 	688
f 854 	688 	687
f 866 	856 	858
f 823 	856 	866
f 689 	688 	863
f 780 	689 	863
f 865 	806 	790
f 815 	806 	865
f 789 	790 	806
f 857 	856 	719
f 867 	717 	823
f 867 	823 	866
f 849 	866 	858
f 849 	858 	850
f 704 	733 	699
f 849 	848 	866
f 770 	769 	853
f 793 	822 	868
f 793 	868 	791
f 892 	888 	695
f 797 	783 	857
f 861 	860 	857
f 797 	857 	860
f 684 	868 	691
f 698 	714 	868
f 868 	684 	791
f 822 	723 	868
f 719 	717 	867
f 857 	719 	861
f 867 	861 	719
f 684 	691 	690
f 684 	690 	685
f 853 	827 	705
f 862 	705 	827
f 775 	699 	892
f 693 	848 	851
f 836 	837 	782
f 837 	781 	782
f 870 	733 	869
f 734 	869 	733
f 871 	872 	873
f 871 	873 	874
f 690 	693 	861
f 858 	861 	851
f 861 	867 	690
f 875 	844 	763
f 866 	848 	867
f 809 	770 	853
f 705 	702 	853
f 809 	853 	702
f 870 	699 	733
f 877 	878 	886
f 856 	886 	878
f 719 	856 	878
f 823 	825 	880
f 879 	880 	826
f 878 	877 	825
f 878 	825 	824
f 880 	886 	823
f 825 	881 	882
f 825 	882 	826
f 876 	877 	886
f 884 	877 	876
f 883 	884 	876
f 879 	874 	880
f 873 	880 	874
f 885 	886 	887
f 885 	887 	888
f 734 	888 	887
f 734 	887 	869
f 862 	882 	881
f 824 	705 	881
f 717 	705 	824
f 862 	881 	705
f 869 	887 	889
f 890 	886 	880
f 856 	823 	886
f 886 	890 	889
f 886 	889 	887
f 719 	878 	891
f 719 	891 	720
f 872 	890 	880
f 872 	880 	873
f 885 	876 	886
f 892 	870 	889
f 869 	889 	870
f 838 	881 	825
f 838 	825 	877
f 884 	839 	877
f 839 	838 	877
f 893 	892 	889
f 893 	889 	890
f 872 	871 	890
f 883 	840 	839
f 883 	839 	884
f 774 	773 	875
f 891 	878 	843
f 838 	843 	878
f 878 	824 	838
f 881 	838 	824
f 892 	893 	885
f 826 	876 	879
f 843 	721 	720
f 843 	720 	891
f 888 	892 	885
f 876 	885 	893
f 879 	876 	893
f 862 	844 	882
f 875 	882 	844
f 897 	894 	896
f 895 	896 	894
f 871 	874 	707
f 894 	865 	895
f 865 	894 	813
f 811 	813 	894
f 865 	898 	895
f 732 	707 	879
f 874 	879 	707
f 899 	900 	898
f 895 	898 	900
f 732 	879 	893
f 893 	890 	871
f 716 	848 	693
f 837 	875 	781
f 882 	875 	837
f 773 	781 	875
f 865 	790 	898
f 788 	898 	790
f 684 	685 	682
f 690 	691 	693
f 710 	871 	707
f 690 	867 	737
f 732 	713 	707
f 848 	716 	867
f 714 	737 	716
f 775 	892 	695
f 897 	723 	894
f 732 	893 	776
f 834 	723 	897
f 736 	894 	723
f 870 	892 	699
f 775 	711 	699
f 833 	894 	736
f 710 	776 	893
f 710 	893 	871
f 788 	787 	808
f 819 	898 	808
f 788 	808 	898
f 895 	832 	735
f 724 	895 	735
f 835 	896 	724
f 896 	895 	724
f 835 	834 	897
f 835 	897 	896
f 894 	746 	811
f 833 	746 	894
f 779 	811 	746
f 836 	862 	827
f 772 	810 	827
f 836 	827 	810
f 840 	876 	837
f 841 	725 	900
f 895 	900 	725
f 725 	694 	895
f 832 	895 	694
f 899 	842 	841
f 899 	841 	900
f 826 	837 	876
f 882 	837 	826
f 840 	883 	876
f 778 	803 	813
f 865 	813 	803
f 865 	803 	815
f 696 	898 	819
f 696 	726 	898
f 899 	898 	726
f 842 	899 	726
f 797 	860 	685
f 784 	797 	802
f 860 	682 	685
# 490 faces

 #end of obj_3

