# Blender 5.1.1
# www.blender.org
mtllib Island_Concrete.mtl
o obj_0
v 20.000000 17.003000 -11.998000
v 20.000000 17.003000 -17.003000
v 19.003000 7.998000 10.003000
v 19.003000 7.998000 -0.003000
v 19.003000 5.000000 -19.003000
v 9.000000 25.000000 -7.000000
v 9.000000 5.000000 -7.000000
v 9.000000 5.000000 3.000000
v 9.000000 25.000000 3.000000
v 9.000000 25.000000 9.000000
v 10.000000 5.000000 3.000000
v 10.000000 5.000000 -7.000000
v 19.003000 5.000000 19.003000
v 10.000000 5.000000 19.000000
v 9.000000 5.000000 19.000000
v 9.000000 5.000000 9.000000
v 10.000000 5.000000 9.000000
v -20.000000 25.000000 -20.000000
v 20.000000 16.003000 10.003000
v 20.000000 16.003000 -0.003000
v 9.000000 25.000000 19.000000
v 19.003000 25.000000 19.003000
v 19.003000 16.003000 10.003000
v -20.000000 5.000000 -20.000000
v -19.003000 16.003000 17.003000
v 19.003000 16.003000 -0.003000
v -20.000000 16.003000 17.003000
v -20.000000 16.003000 12.998000
v 19.003000 17.003000 -11.998000
v 19.003000 5.000000 -11.998000
v 20.000000 5.000000 20.000000
v 19.000000 5.000000 -7.000000
v -19.003000 16.003000 12.998000
v 20.000000 7.998000 -0.003000
v 19.003000 5.000000 -17.003000
v 19.003000 17.003000 -17.003000
v 19.003000 25.000000 -19.003000
v -9.000000 5.000000 -7.000000
v -9.000000 25.000000 -7.000000
v -20.000000 25.000000 20.000000
v -9.000000 25.000000 -8.000000
v 20.000000 7.998000 10.003000
v 20.000000 5.000000 -11.998000
v -9.000000 5.000000 -8.000000
v 20.000000 5.000000 -17.003000
v 20.000000 5.000000 -20.000000
v -19.000000 25.000000 6.000000
v 20.000000 25.000000 20.000000
v -19.000000 5.000000 6.000000
v -19.000000 5.000000 7.000000
v -19.000000 25.000000 7.000000
v -19.003000 25.000000 -19.003000
v 19.000000 5.000000 -8.000000
v -19.003000 5.000000 -19.003000
v 20.000000 25.000000 -20.000000
v -19.003000 25.000000 19.003000
v -4.000000 25.000000 7.000000
v -4.000000 25.000000 6.000000
v -19.003000 5.000000 19.003000
v 19.000000 25.000000 -8.000000
v 19.000000 25.000000 -7.000000
v -19.003000 5.000000 12.998000
v -20.000000 5.000000 12.998000
v -19.003000 5.000000 17.003000
v -20.000000 5.000000 17.003000
v 10.000000 25.000000 3.000000
v -20.000000 5.000000 20.000000
v 10.000000 25.000000 -7.000000
v 10.000000 25.000000 19.000000
v 10.000000 25.000000 9.000000
v -4.000000 5.000000 6.000000
v -4.000000 5.000000 7.000000
vn 1.0000 -0.0000 -0.0000
vn -1.0000 -0.0000 -0.0000
vn -0.0000 -1.0000 -0.0000
vn -0.0000 -0.0000 -1.0000
vn -0.0000 -0.0000 1.0000
vn -0.0000 1.0000 -0.0000
vt 0.314926 0.606332
vt 0.251957 0.629931
vt 0.314926 0.566922
vt 0.881888 0.370124
vt 0.881888 0.614230
vt 0.858281 0.464574
vt 0.708673 0.629931
vt 0.708673 0.787414
vt 0.629931 0.787414
vt 0.629931 0.629931
vt 0.456700 0.779540
vt 0.456700 0.771666
vt 0.535442 0.771666
vt 0.535442 0.779540
vt 0.716523 0.818958
vt 0.724397 0.818958
vt 0.724397 0.897699
vt 0.716523 0.897699
vt 0.251957 0.314966
vt 0.322800 0.393683
vt 0.322800 0.472472
vt 0.708673 0.944897
vt 0.629931 0.944897
vt 0.724405 0.614230
vt 0.795249 0.543363
vt 0.858281 0.543363
vt 0.724405 0.314966
vt 0.787375 0.370124
vt 0.795249 0.464574
vt -0.000000 0.629931
vt 0.007851 0.622081
vt 0.251957 0.629931
vt 0.251957 0.622081
vt 0.181034 0.850407
vt 0.188885 0.850407
vt 0.188885 0.881943
vt 0.181034 0.881943
vt 0.881888 0.314966
vt 0.787375 0.330714
vt 0.881888 0.330714
vt 0.480283 0.606332
vt 0.409440 0.629931
vt 0.480283 0.574796
vt 0.409440 0.314966
vt 0.173184 0.850407
vt 0.181034 0.850407
vt 0.181034 0.889817
vt 0.173184 0.889817
vt 0.716547 0.629931
vt 0.716547 0.787414
vt 0.385833 0.393683
vt 0.409439 0.314966
vt 0.385833 0.472472
vt 0.551198 0.314966
vt 0.551198 0.307115
vt 0.566946 0.307115
vt 0.574796 0.314966
vt 0.716547 0.629931
vt 0.724397 0.629931
vt 0.724397 0.724444
vt 0.716547 0.724444
vt 0.897636 0.000000
vt 0.897636 0.157483
vt 0.889762 0.157483
vt 0.889762 0.000000
vt 0.433078 0.787414
vt 0.433078 0.944897
vt 0.314966 0.787414
vt 0.440952 0.905526
vt 0.433078 0.905526
vt 0.881888 0.314966
vt 1.000000 0.472448
vt 0.881888 0.472448
vt 0.409439 0.566922
vt 0.913384 0.078741
vt 0.921235 0.078741
vt 0.921235 0.157530
vt 0.913384 0.157530
vt 0.543316 0.629931
vt 0.543316 0.850407
vt 0.535442 0.629931
vt 0.535441 0.850407
vt 0.921235 0.236319
vt 0.913384 0.236319
vt 0.921235 0.157530
vt 0.440952 0.787414
vt 0.157483 0.850407
vt 0.165333 0.850407
vt 0.165333 0.913440
vt 0.157483 0.913440
vt 0.732279 0.000000
vt 0.889762 0.000000
vt 0.889762 0.299265
vt 0.409439 0.606332
vt 0.409439 0.629931
vt 0.173184 0.913440
vt 0.165333 0.913440
vt 0.165333 0.850407
vt 0.173184 0.850407
vt 0.000000 0.000000
vt 0.007851 0.007851
vt 0.000000 0.314966
vt 0.716547 0.818958
vt 0.716547 0.724444
vt 0.724397 0.724444
vt 0.724397 0.818958
vt 0.724405 0.913495
vt 0.724405 0.614230
vt 0.881888 0.614230
vt 0.889762 0.314966
vt 0.897636 0.314966
vt 0.157483 0.929196
vt 0.000000 0.929196
vt 0.070844 0.677215
vt 0.157483 0.677215
vt 0.566922 0.314966
vt 0.566922 0.574796
vt 0.007851 0.307115
vt 0.000000 0.629931
vt 0.157483 0.629931
vt 0.070844 0.645679
vt 0.157483 0.645679
vt 0.307115 0.307115
vt 0.314966 0.314966
vt 0.543316 0.708672
vt 0.543316 0.700798
vt 0.622057 0.700798
vt 0.622057 0.708672
vt 0.566922 0.606332
vt 0.566922 0.629931
vt 0.314966 0.000000
vt 0.307115 0.007851
vt 0.448826 0.787414
vt 0.448826 0.905526
vt 0.448826 0.787414
vt 0.456676 0.787414
vt 0.456676 0.874053
vt 0.448826 0.874053
vt 0.913384 0.000000
vt 0.921259 0.000000
vt 0.921259 0.078741
vt 0.708672 0.787414
vt 0.716523 0.787414
vt 0.716523 0.874053
vt 0.708672 0.874053
vt 0.566946 0.007851
vt 0.574796 0.000000
vt 0.622057 0.850407
vt 0.629931 0.850407
vt 0.622057 0.629931
vt 0.314966 0.007851
vt 0.314966 0.000000
vt 0.960629 0.472448
vt 0.960629 0.629931
vt 0.881888 0.629931
vt 0.881888 0.472448
vt 0.960629 0.787414
vt 0.881888 0.787414
vt 0.023599 0.314966
vt 0.023599 0.322816
vt 0.007851 0.322816
vt 0.000000 0.314966
vt 0.566922 0.314966
vt 0.724405 0.314966
vt 0.566922 0.629931
vt 0.905510 0.000000
vt 0.905510 0.157483
vt 0.724405 0.629931
vt 0.314966 0.944897
vt 1.000000 0.314966
vt 0.881888 0.913495
vt 0.574796 0.314966
vt 0.574796 -0.000000
vt 0.732279 0.314966
vt 0.905510 0.314966
vt 0.913384 0.157483
vt 0.913384 0.314966
vt 0.952755 0.787414
vt 0.952755 0.944897
vt 0.881888 0.944897
vt 0.456700 0.629931
vt 0.314966 0.629931
vt 0.456700 0.787414
vt 0.732279 -0.000000
vt 0.732279 0.299265
vt 0.157483 0.629931
vt 0.314966 0.629931
vt 0.314966 0.850407
vt 0.157483 0.850407
s 0
usemtl color_15277357
f 2/1/1 55/2/1 1/3/1
f 30/4/2 13/5/2 4/6/2
f 6/7/2 7/8/2 8/9/2
f 6/7/2 8/9/2 9/10/2
f 11/11/3 8/12/3 7/13/3
f 11/11/3 7/13/3 12/14/3
f 14/15/3 15/16/3 16/17/3
f 14/15/3 16/17/3 17/18/3
f 48/19/1 19/20/1 20/21/1
f 10/8/2 16/22/2 15/23/2
f 10/8/2 15/23/2 21/9/2
f 13/5/2 22/24/2 23/25/2
f 13/5/2 23/25/2 3/26/2
f 3/26/2 4/6/2 13/5/2
f 37/27/2 29/28/2 26/29/2
f 4/6/2 26/29/2 29/28/2
f 30/4/2 4/6/2 29/28/2
f 31/30/3 13/31/3 43/32/3
f 30/33/3 43/32/3 13/31/3
f 25/34/3 27/35/3 28/36/3
f 25/34/3 28/36/3 33/37/3
f 37/27/2 5/38/2 36/39/2
f 35/40/2 36/39/2 5/38/2
f 27/41/2 40/42/2 28/43/2
f 18/44/2 28/43/2 40/42/2
f 1/45/3 29/46/3 36/47/3
f 1/45/3 36/47/3 2/48/3
f 38/8/2 39/7/2 41/49/2
f 38/8/2 41/49/2 44/50/2
f 42/51/1 31/52/1 34/53/1
f 45/54/3 35/55/3 5/56/3
f 45/54/3 5/56/3 46/57/3
f 29/58/4 1/59/4 43/60/4
f 29/58/4 43/60/4 30/61/4
f 47/62/2 49/63/2 50/64/2
f 47/62/2 50/64/2 51/65/2
f 51/66/5 50/67/5 57/68/5
f 47/69/6 51/70/6 57/66/6
f 47/71/4 71/72/4 49/73/4
f 43/74/1 34/53/1 31/52/1
f 42/51/1 19/20/1 31/52/1
f 48/19/1 31/52/1 19/20/1
f 19/75/3 23/76/3 26/77/3
f 19/75/3 26/77/3 20/78/3
f 44/79/3 53/80/3 7/13/3
f 38/81/3 44/79/3 7/13/3
f 12/14/3 7/13/3 53/80/3
f 32/82/3 12/14/3 53/80/3
f 34/83/6 4/84/6 3/78/6
f 34/83/6 3/78/6 42/85/6
f 43/74/1 1/3/1 34/53/1
f 20/21/1 34/53/1 1/3/1
f 1/3/1 55/2/1 20/21/1
f 57/66/6 58/86/6 47/69/6
f 23/87/4 19/88/4 42/89/4
f 23/87/4 42/89/4 3/90/4
f 52/91/5 54/92/5 5/93/5
f 45/94/1 46/95/1 2/1/1
f 46/95/1 55/2/1 2/1/1
f 48/19/1 20/21/1 55/2/1
f 4/96/5 34/97/5 20/98/5
f 4/96/5 20/98/5 26/99/5
f 48/100/6 22/101/6 40/102/6
f 45/103/5 2/104/5 36/105/5
f 45/103/5 36/105/5 35/106/5
f 36/39/2 29/28/2 37/27/2
f 56/107/4 22/108/4 13/109/4
f 53/110/1 60/64/1 61/63/1
f 53/110/1 61/63/1 32/111/1
f 54/112/1 52/113/1 33/114/1
f 54/112/1 33/114/1 62/115/1
f 18/44/2 24/116/2 28/43/2
f 63/117/2 28/43/2 24/116/2
f 56/118/6 40/102/6 22/101/6
f 56/119/1 59/120/1 25/121/1
f 64/122/1 25/121/1 59/120/1
f 52/123/6 18/124/6 56/118/6
f 40/102/6 56/118/6 18/124/6
f 26/29/2 23/25/2 22/24/2
f 26/29/2 22/24/2 37/27/2
f 9/125/6 66/126/6 68/127/6
f 9/125/6 68/127/6 6/128/6
f 65/129/2 67/130/2 27/41/2
f 40/42/2 27/41/2 67/130/2
f 52/113/1 56/119/1 33/114/1
f 25/121/1 33/114/1 56/119/1
f 48/100/6 55/131/6 37/132/6
f 50/86/3 49/133/3 71/134/3
f 33/135/5 28/136/5 63/137/5
f 33/135/5 63/137/5 62/138/5
f 21/139/6 69/140/6 70/141/6
f 21/139/6 70/141/6 10/75/6
f 48/100/6 37/132/6 22/101/6
f 27/142/4 25/143/4 64/144/4
f 27/142/4 64/144/4 65/145/4
f 37/132/6 55/131/6 52/123/6
f 18/124/6 52/123/6 55/131/6
f 5/56/3 54/146/3 46/57/3
f 24/147/3 46/57/3 54/146/3
f 39/148/6 6/128/6 41/149/6
f 60/10/6 41/149/6 6/128/6
f 60/10/6 6/128/6 68/127/6
f 60/10/6 68/127/6 61/150/6
f 62/151/3 63/152/3 54/146/3
f 63/152/3 24/147/3 54/146/3
f 66/153/1 11/154/1 12/155/1
f 66/153/1 12/155/1 68/156/1
f 69/154/1 14/157/1 17/158/1
f 69/154/1 17/158/1 70/155/1
f 65/159/3 64/160/3 59/161/3
f 65/159/3 59/161/3 67/162/3
f 40/163/5 67/164/5 48/165/5
f 57/166/1 72/167/1 71/63/1
f 57/166/1 71/63/1 58/62/1
f 71/134/3 72/69/3 50/86/3
f 31/168/5 48/165/5 67/164/5
f 57/68/5 50/67/5 72/169/5
f 58/170/4 71/72/4 47/71/4
f 59/161/3 13/31/3 67/162/3
f 31/30/3 67/162/3 13/31/3
f 56/107/4 13/109/4 59/171/4
f 18/172/4 55/173/4 24/174/4
f 21/167/5 15/175/5 14/111/5
f 21/167/5 14/111/5 69/63/5
f 9/139/5 8/176/5 11/167/5
f 9/139/5 11/167/5 66/166/5
f 70/176/4 17/177/4 16/175/4
f 70/176/4 16/175/4 10/167/4
f 68/178/5 12/179/5 32/180/5
f 68/178/5 32/180/5 61/158/5
f 39/181/5 7/68/5 6/182/5
f 7/68/5 39/181/5 38/183/5
f 46/184/4 24/174/4 55/173/4
f 52/91/5 5/93/5 37/185/5
f 60/186/4 53/187/4 44/188/4
f 60/186/4 44/188/4 41/189/4
