# Object Export From Tinkercad Server 2015

mtllib Prison_Hard_Interior.mtl

o obj_0
v 90 		-50 		15
v 90 		-50 		0
v 51.998 		-40.003 		0
v 51.998 		-40.003 		11.003
v 51.998 		-48.003 		0
v 48 		14 		15
v 51.998 		-34.998 		11.003
v 51.998 		-26.998 		15
v 48 		14 		0
v 51.998 		-48.003 		15
v 48 		15 		0
v 48 		15 		15
v 51.998 		-34.998 		0
v 88.003 		-26.998 		0
v 74.877 		-26.998 		0
v 74.877 		-25 		0
v 69.998 		-25 		0
v 69.998 		-26.998 		0
v 51.998 		-26.998 		0
v -12 		-49 		0
v -13 		-49 		0
v 16.998 		-50 		2.998
v 21.003 		-50 		12.003
v 21.003 		-50 		2.998
v 88.003 		-48.003 		0
v 16.998 		-50 		12.003
v -43.003 		-30 		0
v 88.003 		-34.998 		9.003
v 88.003 		-39.003 		9.003
v -43.003 		-31 		0
v -49 		-31 		0
v 50 		-25 		0
v 88.003 		-39.003 		0.998
v 88.003 		-34.998 		0.998
v -49 		-30 		0
v 88.003 		-48.003 		15
v 49 		-17 		15
v 49 		-17 		0
v 88.003 		-26.998 		15
v -49 		-30 		15
v 21.003 		-49.003 		2.998
v 90 		-39.003 		9.003
v 6 		-31 		0
v 6 		-31 		15
v 90 		-25 		0
v 33 		-29 		0
v 33 		-29 		15
v 33 		-49 		15
v 33 		-49 		0
v 0.003 		-31 		10.003
v 0.003 		-31 		0
v -50 		50 		15
v -50 		50 		0
v -13 		-31 		0
v 21.003 		-49.003 		12.003
v 49.003 		49.003 		0
v -12 		-31 		0
v 90 		-34.998 		9.003
v -17.998 		-30 		10.003
v -23.003 		-30 		10.003
v 49.003 		-49.003 		0
v 90 		-34.998 		0.998
v 90 		-39.003 		0.998
v -23.003 		-30 		0
v -23.003 		-31 		0
v -30 		-31 		0
v -37.998 		-30 		10.003
v -31 		-31 		0
v -37.998 		-31 		0
v -37.998 		-30 		0
v 49.003 		-34.998 		0
v -49 		-31 		15
v 50 		50 		0
v -5.003 		-30 		0
v -5.003 		-31 		0
v 16.998 		-49.003 		2.998
v -17.998 		-31 		0
v -43.003 		-31 		10.003
v -17.998 		-30 		0
v -43.003 		-30 		10.003
v 16.998 		-49.003 		12.003
v 49.003 		-40.003 		0
v 0.003 		-30 		10.003
v 0.003 		-30 		0
v 7 		-30 		0
v -5.003 		-30 		10.003
v -49.003 		49.003 		15
v 20 		14 		15
v 20 		14 		0
v 7 		-30 		15
v -3.003 		50 		0
v -3.003 		49.003 		0
v -49.003 		49.003 		0
v -17.998 		-31 		10.003
v -23.003 		-31 		10.003
v 90 		-25 		15
v 50 		50 		15
v 50 		-25 		15
v 49.003 		49.003 		15
v -3.003 		50 		12.003
v -37.998 		-31 		10.003
v 21 		49 		0
v 20 		49 		0
v 49.003 		-49.003 		15
v 21 		49 		15
v 20 		49 		15
v 21 		38.003 		11.003
v -3.003 		49.003 		12.003
v 21 		38.003 		0
v 21 		29.998 		0
v 6 		-35.998 		15
v 6.003 		-35.998 		15
v 21 		29.998 		11.003
v -5.003 		-31 		10.003
v 21 		15 		0
v 21 		15 		15
v 6.003 		-49 		15
v 7 		-49 		15
v 20 		38.003 		11.003
v 7 		-49 		0
v 20 		38.003 		0
v 7 		-23 		0
v 20 		29.998 		11.003
v 7 		-23 		15
v 6 		-23 		15
v 6 		-23 		0
v 20 		29.998 		0
v -50 		-50 		0
v -50 		-50 		15
v 6 		15 		15
v 7 		15 		15
v 49.003 		-34.998 		11.003
v 32 		-18 		0
v 32 		-18 		15
v 32 		-17 		15
v 32 		-17 		0
v 49.003 		-40.003 		11.003
v 32 		-49 		0
v 32 		-49 		15
v 32 		-29 		15
v 32 		-29 		0
v 7 		15 		0
v 6 		15 		0
v -49.003 		-49.003 		15
v 74.877 		-25 		10.42
v 69.998 		-25 		10.42
v -31 		-49 		15
v -30 		-49 		15
v -30 		-31 		15
v -31 		-31 		15
v -46.003 		-49.003 		0
v -46.003 		-50 		0
v -49.003 		-49.003 		0
v 49 		-18 		15
v -13 		-49 		15
v 49 		-18 		0
v -12 		-49 		15
v -12 		-31 		15
v -13 		-31 		15
v 13.003 		49.003 		0
v 13.003 		50 		0
v 69.998 		-26.998 		10.42
v 74.877 		-26.998 		10.42
v -46.003 		-50 		8.002
v 13.003 		50 		12.003
v -46.003 		-49.003 		8.002
v 13.003 		49.003 		12.003
v 6 		-35.998 		0
v 6.003 		-49 		0
v 6.003 		-35.998 		0
v -30 		-49 		0
v -38.998 		-50 		8.002
v -38.998 		-50 		0
v -38.998 		-49.003 		8.002
v -38.998 		-49.003 		0
v -31 		-49 		0
# 176 vertices

g group_0_14541540

usemtl color_14541540
s 0

f 10 	5 	4
f 3 	4 	5
f 8 	10 	7
f 4 	7 	10
f 6 	9 	11
f 6 	11 	12
f 14 	15 	16
f 4 	3 	82
f 17 	18 	19
f 2 	1 	24
f 28 	29 	39
f 14 	33 	34
f 27 	30 	31
f 27 	31 	35
f 129 	172 	26
f 32 	17 	19
f 13 	71 	19
f 39 	29 	36
f 25 	36 	29
f 25 	29 	33
f 25 	33 	14
f 24 	41 	22
f 82 	3 	5
f 39 	14 	28
f 34 	28 	14
f 14 	2 	25
f 5 	25 	2
f 22 	76 	26
f 16 	45 	14
f 2 	14 	45
f 46 	47 	48
f 46 	48 	49
f 51 	43 	50
f 43 	44 	50
f 20 	21 	54
f 20 	54 	57
f 42 	29 	28
f 42 	28 	58
f 60 	90 	59
f 62 	34 	33
f 62 	33 	63
f 104 	41 	55
f 64 	65 	66
f 64 	66 	68
f 69 	70 	68
f 64 	68 	70
f 40 	35 	31
f 40 	31 	72
f 56 	32 	71
f 73 	32 	56
f 32 	19 	71
f 175 	76 	61
f 74 	75 	57
f 54 	79 	57
f 77 	79 	54
f 74 	57 	79
f 67 	78 	80
f 64 	70 	60
f 70 	67 	60
f 67 	40 	60
f 27 	80 	78
f 27 	78 	30
f 84 	85 	43
f 51 	84 	43
f 90 	83 	86
f 82 	5 	61
f 2 	61 	5
f 29 	42 	63
f 29 	63 	33
f 23 	55 	24
f 41 	24 	55
f 42 	58 	96
f 74 	79 	86
f 79 	59 	86
f 90 	86 	59
f 34 	62 	58
f 34 	58 	28
f 2 	45 	63
f 84 	83 	85
f 90 	85 	83
f 91 	92 	93
f 96 	1 	42
f 1 	2 	42
f 63 	42 	2
f 59 	94 	95
f 59 	95 	60
f 91 	93 	53
f 45 	96 	58
f 45 	58 	62
f 62 	63 	45
f 32 	73 	97
f 32 	97 	98
f 60 	95 	65
f 60 	65 	64
f 144 	104 	81
f 67 	101 	78
f 106 	102 	103
f 91 	53 	100
f 41 	61 	76
f 55 	81 	104
f 105 	102 	106
f 52 	100 	53
f 101 	67 	70
f 101 	70 	69
f 76 	22 	41
f 102 	107 	109
f 94 	59 	79
f 94 	79 	77
f 1 	10 	104
f 99 	104 	98
f 97 	99 	98
f 111 	112 	44
f 81 	55 	26
f 55 	23 	26
f 114 	86 	50
f 83 	50 	86
f 116 	115 	113
f 110 	113 	115
f 81 	26 	76
f 86 	114 	75
f 86 	75 	74
f 107 	105 	113
f 102 	105 	107
f 116 	113 	105
f 8 	96 	98
f 117 	118 	112
f 50 	83 	84
f 50 	84 	51
f 107 	119 	121
f 107 	121 	109
f 85 	118 	120
f 92 	108 	93
f 87 	93 	108
f 122 	124 	125
f 122 	125 	126
f 123 	113 	110
f 123 	110 	127
f 85 	90 	118
f 113 	123 	119
f 113 	119 	107
f 10 	1 	36
f 130 	125 	124
f 130 	124 	131
f 99 	56 	132
f 71 	132 	56
f 98 	104 	8
f 8 	104 	10
f 133 	134 	135
f 133 	135 	136
f 61 	137 	82
f 100 	108 	92
f 100 	92 	91
f 53 	93 	128
f 153 	128 	93
f 138 	139 	140
f 138 	140 	141
f 36 	1 	39
f 96 	39 	1
f 137 	104 	132
f 61 	104 	137
f 99 	132 	104
f 8 	39 	96
f 142 	122 	126
f 142 	126 	143
f 71 	13 	132
f 7 	132 	13
f 96 	145 	146
f 124 	122 	142
f 124 	142 	131
f 137 	4 	82
f 147 	148 	149
f 147 	149 	150
f 144 	87 	129
f 4 	137 	7
f 132 	7 	137
f 128 	52 	53
f 88 	6 	116
f 12 	116 	6
f 37 	135 	134
f 17 	32 	146
f 96 	146 	98
f 154 	156 	38
f 154 	38 	37
f 155 	157 	158
f 155 	158 	159
f 47 	140 	139
f 47 	139 	48
f 130 	143 	126
f 130 	126 	125
f 90 	40 	159
f 144 	129 	104
f 106 	103 	119
f 121 	119 	103
f 98 	146 	32
f 151 	152 	153
f 16 	145 	45
f 45 	145 	96
f 73 	56 	161
f 160 	161 	56
f 163 	39 	162
f 150 	149 	40
f 149 	159 	40
f 152 	128 	153
f 11 	9 	115
f 89 	115 	9
f 88 	106 	123
f 119 	123 	106
f 15 	14 	163
f 14 	39 	163
f 8 	162 	39
f 164 	172 	129
f 18 	162 	19
f 8 	19 	162
f 134 	154 	37
f 133 	136 	38
f 88 	123 	89
f 127 	89 	123
f 129 	128 	164
f 49 	138 	141
f 49 	141 	46
f 175 	61 	173
f 152 	164 	128
f 23 	24 	1
f 26 	172 	22
f 104 	61 	41
f 161 	165 	73
f 139 	138 	49
f 139 	49 	48
f 81 	76 	174
f 151 	153 	166
f 153 	144 	166
f 168 	111 	44
f 168 	44 	43
f 160 	56 	167
f 9 	6 	89
f 88 	89 	6
f 133 	38 	156
f 166 	172 	164
f 116 	105 	106
f 116 	106 	88
f 97 	73 	165
f 166 	164 	152
f 166 	152 	151
f 167 	165 	161
f 167 	161 	160
f 117 	169 	120
f 117 	120 	118
f 99 	167 	56
f 153 	87 	144
f 134 	133 	156
f 134 	156 	154
f 168 	170 	112
f 168 	112 	111
f 12 	11 	115
f 12 	115 	116
f 136 	135 	38
f 37 	38 	135
f 117 	112 	170
f 117 	170 	169
f 47 	46 	141
f 47 	141 	140
f 44 	90 	158
f 72 	31 	78
f 30 	78 	31
f 158 	90 	159
f 128 	129 	52
f 118 	90 	112
f 44 	112 	90
f 52 	87 	97
f 102 	109 	121
f 102 	121 	103
f 52 	97 	100
f 165 	100 	97
f 127 	110 	115
f 127 	115 	89
f 153 	93 	87
f 175 	174 	76
f 165 	167 	100
f 22 	173 	24
f 2 	24 	173
f 90 	60 	40
f 80 	40 	67
f 1 	129 	23
f 26 	23 	129
f 99 	97 	87
f 168 	43 	170
f 85 	170 	43
f 27 	35 	80
f 35 	40 	80
f 120 	169 	170
f 120 	170 	85
f 129 	87 	52
f 167 	99 	108
f 87 	108 	99
f 157 	20 	57
f 157 	57 	158
f 167 	108 	100
f 2 	173 	61
f 72 	150 	40
f 143 	130 	131
f 143 	131 	142
f 1 	104 	129
f 148 	171 	66
f 148 	66 	149
f 145 	163 	162
f 145 	162 	146
f 163 	145 	16
f 163 	16 	15
f 146 	162 	18
f 146 	18 	17
f 5 	10 	25
f 36 	25 	10
f 19 	8 	7
f 19 	7 	13
f 166 	144 	174
f 171 	176 	68
f 171 	68 	66
f 174 	172 	166
f 172 	174 	175
f 172 	175 	173
f 150 	68 	176
f 150 	176 	147
f 144 	81 	174
f 147 	176 	171
f 147 	171 	148
f 159 	54 	21
f 159 	21 	155
f 173 	22 	172
f 155 	21 	20
f 155 	20 	157
f 94 	159 	95
f 72 	78 	101
f 65 	95 	66
f 149 	66 	95
f 69 	68 	101
f 68 	150 	101
f 72 	101 	150
f 50 	44 	114
f 158 	114 	44
f 75 	114 	57
f 158 	57 	114
f 77 	54 	94
f 54 	159 	94
f 149 	95 	159
# 344 faces

 #end of obj_0

