# Object Export From Tinkercad Server 2015

mtllib Prison_Solitary_Window.mtl

o obj_0
v 21 		37.003 		9.003
v 21 		37.003 		0.998
v 21 		30.998 		0.998
v 21 		30.998 		9.003
v 21 		30 		0
v 21 		38 		0
v 21 		30 		11
v 21 		38 		11
v 20 		37.003 		0.998
v 20 		37.003 		9.003
v 20 		30 		0
v 20 		38 		11
v 20 		30 		11
v 20 		30.998 		9.003
v 20 		30.998 		0.998
v 20 		38 		0
# 16 vertices

g group_0_10988977

usemtl color_10988977
s 0

f 6 	1 	2
f 3 	4 	5
f 5 	6 	3
f 2 	3 	6
f 7 	5 	4
f 1 	8 	4
f 6 	8 	1
f 7 	4 	8
f 9 	10 	16
f 15 	11 	14
f 13 	14 	11
f 8 	12 	13
f 8 	13 	7
f 9 	16 	15
f 16 	11 	15
f 14 	4 	3
f 14 	3 	15
f 5 	11 	16
f 5 	16 	6
f 13 	11 	7
f 15 	3 	2
f 15 	2 	9
f 10 	1 	4
f 10 	4 	14
f 16 	12 	6
f 8 	6 	12
f 1 	10 	9
f 1 	9 	2
f 12 	16 	10
f 12 	10 	14
f 12 	14 	13
f 5 	7 	11
# 32 faces

 #end of obj_0

