# Object Export From Tinkercad Server 2015

mtllib Prison_Hard_Exterior.mtl

o obj_0
v 91 		-51 		15
v 51 		-51 		15
v 51 		-23.5 		15
v 91 		-23.5 		15
v 91 		-37.25 		20
v 51 		-37.25 		20
v 134 		-62.003 		0
v 134.85 		-62.003 		0
v 135 		82 		0
v 134.85 		-90 		0
v 135 		82 		20
v 135 		80 		20
v 135 		80 		0
v -51 		51 		20
v 134 		80 		20
v 134.85 		80 		20
v -51 		51 		15
v 134 		-90 		0
v 134.85 		80 		0
v 134 		80 		0
v -51 		-51 		15
v 134.85 		-53.998 		8.002
v 134.85 		-53.998 		0
v -43.998 		-91 		8.002
v -43.998 		-91 		0
v 134.85 		-62.003 		8.002
v -43.998 		-90 		8.002
v -43.998 		-90 		0
v 134.85 		-90 		20
v 134 		-53.998 		0
v 134 		-53.998 		8.002
v 134 		-62.003 		8.002
v -76.99 		80 		20
v -76.99 		80 		0
v 135 		-91 		20
v -78 		-91 		0
v -78 		-91 		20
v 135 		-91 		0
v 135 		-90 		0
v 135 		-90 		20
v 134 		-90 		20
v -76.99 		-90 		20
v -51.003 		-90 		0
v -51.003 		-91 		0
v -76.99 		-90 		0
v -51.003 		-91 		8.002
v -78 		82 		20
v -78 		82 		0
v -51.003 		-90 		8.002
v -51 		-51 		20
v -11.003 		80 		20
v -11.003 		82 		20
v 20.003 		82 		20
v 20.003 		80 		20
v 51 		51 		20
v 51 		-51 		20
v -11.003 		82 		0
v -12 		80 		0
v 20.003 		82 		0
v 21 		80 		0
v -11.003 		80 		15
v 20.003 		80 		15
v -12 		80 		15
v 21 		80 		15
v -11 		75.998 		0
v -11.003 		75.998 		0
v -11.003 		75.998 		15
v -11 		75.998 		15
v 20 		75.998 		15
v 20 		75.998 		0
v 20 		50 		0
v 20 		50 		15
v 20 		51 		15
v 21 		50 		15
v 21 		50 		0
v 21 		51 		15
v 20.003 		75.998 		15
v 20.003 		75.998 		0
v -11 		51 		15
v -12 		51 		15
v -12 		50 		15
v -11 		50 		15
v 51 		51 		15
v -11 		50 		0
v -12 		50 		0
# 85 vertices

g group_0_2829873

usemtl color_2829873
s 0

f 1 	2 	3
f 1 	3 	4
f 25 	38 	24
f 5 	6 	2
f 5 	2 	1
f 3 	6 	5
f 3 	5 	4
f 9 	11 	12
f 9 	12 	13
f 11 	15 	16
f 11 	16 	12
f 20 	9 	19
f 13 	19 	9
f 7 	8 	10
f 7 	10 	18
f 19 	22 	23
f 8 	26 	10
f 27 	24 	49
f 24 	27 	28
f 24 	28 	25
f 29 	10 	26
f 29 	26 	22
f 19 	16 	22
f 29 	22 	16
f 12 	16 	19
f 12 	19 	13
f 30 	31 	20
f 41 	18 	27
f 18 	32 	7
f 15 	64 	20
f 35 	38 	39
f 35 	39 	40
f 15 	20 	31
f 32 	41 	31
f 18 	41 	32
f 15 	31 	41
f 41 	35 	29
f 40 	29 	35
f 22 	31 	30
f 22 	30 	23
f 32 	26 	8
f 32 	8 	7
f 28 	18 	25
f 38 	25 	18
f 38 	18 	10
f 38 	10 	39
f 31 	22 	26
f 31 	26 	32
f 36 	45 	44
f 43 	44 	45
f 35 	24 	38
f 4 	5 	1
f 29 	40 	10
f 39 	10 	40
f 44 	46 	36
f 37 	36 	46
f 28 	27 	18
f 49 	24 	46
f 49 	46 	44
f 49 	44 	43
f 15 	41 	29
f 15 	29 	16
f 42 	27 	49
f 48 	57 	34
f 19 	23 	30
f 19 	30 	20
f 43 	45 	49
f 42 	49 	45
f 42 	33 	37
f 47 	37 	33
f 34 	45 	36
f 34 	36 	48
f 47 	48 	36
f 47 	36 	37
f 42 	45 	34
f 42 	34 	33
f 21 	50 	17
f 14 	17 	50
f 37 	35 	42
f 41 	42 	35
f 47 	33 	52
f 51 	52 	33
f 54 	15 	53
f 11 	53 	15
f 50 	6 	14
f 56 	6 	50
f 55 	14 	6
f 57 	58 	34
f 48 	47 	57
f 52 	61 	57
f 51 	33 	63
f 63 	34 	58
f 65 	66 	67
f 65 	67 	68
f 57 	61 	66
f 67 	66 	61
f 71 	73 	70
f 72 	73 	71
f 69 	70 	73
f 60 	76 	75
f 64 	76 	60
f 74 	75 	76
f 77 	78 	70
f 77 	70 	69
f 62 	59 	78
f 62 	78 	77
f 67 	79 	68
f 79 	67 	80
f 63 	80 	67
f 63 	67 	61
f 69 	73 	77
f 73 	76 	77
f 76 	64 	77
f 62 	77 	64
f 17 	81 	21
f 81 	82 	21
f 82 	72 	21
f 3 	21 	72
f 74 	3 	72
f 2 	21 	3
f 17 	80 	81
f 79 	73 	72
f 79 	72 	82
f 76 	83 	74
f 3 	74 	83
f 37 	46 	24
f 37 	24 	35
f 41 	27 	42
f 50 	21 	2
f 50 	2 	56
f 52 	57 	47
f 59 	53 	9
f 11 	9 	53
f 52 	51 	61
f 59 	62 	53
f 54 	53 	62
f 34 	63 	33
f 51 	63 	61
f 64 	15 	54
f 62 	64 	54
f 55 	83 	76
f 55 	76 	73
f 55 	73 	79
f 80 	14 	79
f 17 	14 	80
f 55 	79 	14
f 6 	56 	2
f 55 	6 	3
f 55 	3 	83
f 60 	59 	20
f 9 	20 	59
f 60 	20 	64
f 66 	65 	84
f 84 	85 	66
f 85 	58 	66
f 57 	66 	58
f 70 	78 	71
f 71 	78 	75
f 60 	75 	78
f 60 	78 	59
f 84 	82 	81
f 84 	81 	85
f 75 	74 	72
f 75 	72 	71
f 85 	80 	58
f 81 	80 	85
f 63 	58 	80
f 65 	79 	84
f 68 	79 	65
f 82 	84 	79
# 170 faces

 #end of obj_0

