# Blender 5.0.1
# www.blender.org
mtllib Island_Concrete.mtl
o Plane.001
v -20.000000 5.000000 20.000000
v 20.000000 5.000000 20.000000
v -20.000000 5.000000 -20.000000
v 20.000000 5.000000 -20.000000
v -20.000000 25.000000 -20.000000
v -20.000000 25.000000 20.000000
v 20.000000 25.000000 20.000000
v 20.000000 25.000000 -20.000000
v -20.000000 5.050000 -20.000000
v -20.000000 5.050000 20.000000
v 20.000000 5.050000 20.000000
v 20.000000 5.050000 -20.000000
v -20.000000 5.050000 0.000000
v 20.000000 5.050000 0.000000
v 0.000000 5.050000 20.000000
v 0.000000 5.050000 -20.000000
v 0.000000 5.050000 0.000000
v -20.000000 5.050000 10.000000
v 20.000000 5.050000 10.000000
v 0.000000 5.050000 10.000000
v 20.000000 5.050000 -10.000000
v -20.000000 5.050000 -10.000000
v 0.000000 5.050000 -10.000000
v -10.000000 5.050000 -20.000000
v -10.000000 5.050000 0.000000
v -10.000000 5.050000 20.000000
v -10.000000 5.050000 10.000000
v -10.000000 5.050000 -10.000000
v 10.000000 5.050000 20.000000
v 10.000000 5.050000 -20.000000
v 10.000000 5.050000 0.000000
v 10.000000 5.050000 10.000000
v 10.000000 5.050000 -10.000000
v -18.026585 5.302614 -20.000000
v -14.399191 5.302614 -20.000000
v -18.026585 14.058748 -20.000000
v -14.399191 14.058748 -20.000000
vn -0.0000 -1.0000 -0.0000
vn 1.0000 -0.0000 -0.0000
vn -0.0000 -0.0000 1.0000
vn -1.0000 -0.0000 -0.0000
vn -0.0000 1.0000 -0.0000
vn -0.0000 -0.0000 -1.0000
vt 0.000000 0.000000
vt 0.000000 1.000000
vt 1.000000 1.000000
vt 1.000000 0.000000
vt 1.000000 0.750000
vt 1.000000 0.500000
vt 1.000000 0.250000
vt 0.140020 1.000000
vt 0.049335 1.000000
vt 0.049335 1.000000
vt 0.140020 1.000000
vt 0.750000 0.750000
vt 0.750000 1.000000
vt 0.000000 0.250000
vt 0.000000 0.500000
vt 0.000000 0.750000
vt 0.250000 1.000000
vt 0.500000 1.000000
vt 0.750000 0.000000
vt 0.500000 0.000000
vt 0.250000 0.000000
vt 0.750000 0.250000
vt 0.750000 0.500000
vt 0.250000 0.250000
vt 0.500000 0.250000
vt 0.500000 0.500000
vt 0.250000 0.500000
vt 0.250000 0.750000
vt 0.500000 0.750000
s 0
g Plane.001_Concrete
usemtl Concrete
f 1/1/1 3/2/1 4/3/1 2/4/1
f 11/4/2 2/4/2 4/3/2 12/3/2 21/5/2 14/6/2 19/7/2
f 2/4/2 4/3/2 8/3/2 7/4/2
f 1/1/3 2/4/3 7/4/3 6/1/3
f 3/2/4 1/1/4 6/1/4 5/2/4
f 35/8/3 4/3/3 8/3/3 5/2/3 3/2/3 34/9/3 36/10/3 37/11/3
f 34/9/3 3/2/3 4/3/3 35/8/3
f 33/12/5 21/5/5 12/3/5 30/13/5
f 9/2/4 3/2/4 1/1/4 10/1/4 18/14/4 13/15/4 22/16/4
f 12/3/6 4/3/6 3/2/6 9/2/6 24/17/6 16/18/6 30/13/6
f 10/1/3 1/1/3 2/4/3 11/4/3 29/19/3 15/20/3 26/21/3
f 32/22/5 19/7/5 14/6/5 31/23/5
f 27/24/5 20/25/5 17/26/5 25/27/5
f 28/28/5 23/29/5 16/18/5 24/17/5
f 26/21/5 15/20/5 20/25/5 27/24/5
f 29/19/5 11/4/5 19/7/5 32/22/5
f 25/27/5 17/26/5 23/29/5 28/28/5
f 31/23/5 14/6/5 21/5/5 33/12/5
f 13/15/5 25/27/5 28/28/5 22/16/5
f 10/1/5 26/21/5 27/24/5 18/14/5
f 22/16/5 28/28/5 24/17/5 9/2/5
f 18/14/5 27/24/5 25/27/5 13/15/5
f 17/26/5 31/23/5 33/12/5 23/29/5
f 15/20/5 29/19/5 32/22/5 20/25/5
f 20/25/5 32/22/5 31/23/5 17/26/5
f 23/29/5 33/12/5 30/13/5 16/18/5
o Cube
v -11.500000 5.000000 -18.000000
v -11.500000 7.000000 -18.000000
v -11.500000 5.000000 -20.000000
v -11.500000 7.000000 -20.000000
v -9.500000 5.000000 -18.000000
v -9.500000 7.000000 -18.000000
v -9.500000 5.000000 -20.000000
v -9.500000 7.000000 -20.000000
v -11.500000 25.009686 -18.000000
v -11.500000 25.009686 -20.000000
v -9.500000 25.009686 -20.000000
v -9.500000 25.009686 -18.000000
v -11.500000 5.000000 6.000000
v -11.500000 7.000000 6.000000
v -9.500000 7.000000 6.000000
v -9.500000 5.000000 6.000000
v -9.500000 25.009686 6.000000
v -11.500000 25.009686 6.000000
vn -1.0000 -0.0000 -0.0000
vn -0.0000 -0.0000 -1.0000
vn 1.0000 -0.0000 -0.0000
vn -0.0000 -1.0000 -0.0000
vn -0.0000 1.0000 -0.0000
vn -0.0000 -0.0000 1.0000
vt 0.375000 0.000000
vt 0.625000 0.000000
vt 0.625000 0.250000
vt 0.375000 0.250000
vt 0.625000 0.500000
vt 0.375000 0.500000
vt 0.625000 0.750000
vt 0.375000 0.750000
vt 0.125000 0.500000
vt 0.125000 0.750000
vt 0.875000 0.500000
vt 0.875000 0.750000
vt 0.625000 1.000000
vt 0.375000 1.000000
s 0
g Cube_Concrete
usemtl Concrete
f 38/30/7 39/31/7 41/32/7 40/33/7
f 40/33/8 41/32/8 45/34/8 44/35/8
f 44/35/9 45/34/9 43/36/9 42/37/9
f 42/37/9 43/36/9 52/36/9 53/37/9
f 40/38/10 44/35/10 42/37/10 38/39/10
f 41/32/7 39/31/7 46/31/7 47/32/7
f 48/34/11 47/40/11 46/41/11 49/36/11
f 49/36/11 46/41/11 55/41/11 54/36/11
f 45/34/8 41/32/8 47/32/8 48/34/8
f 43/36/9 45/34/9 48/34/9 49/36/9
f 53/37/12 52/36/12 51/42/12 50/43/12
f 51/42/12 52/36/12 54/36/12 55/42/12
f 43/36/9 49/36/9 54/36/9 52/36/9
f 46/31/7 39/31/7 51/31/7 55/31/7
f 39/31/7 38/30/7 50/30/7 51/31/7
f 38/39/10 42/37/10 53/37/10 50/39/10
o Cube.001
v -9.500000 5.000000 -7.722031
v -9.500000 7.000000 -7.722031
v -9.500000 5.000000 -9.722031
v -9.500000 7.000000 -9.722031
v -7.500000 5.000000 -7.722031
v -7.500000 7.000000 -7.722031
v -7.500000 5.000000 -9.722031
v -7.500000 7.000000 -9.722031
v -9.500000 5.000000 -9.722031
v -9.500000 5.000000 -7.722031
v -9.500000 7.000000 -7.722031
v -9.500000 7.000000 -9.722031
v -7.500000 5.000000 -9.722031
v -7.500000 7.000000 -9.722031
v -7.500000 5.000000 -7.722031
v -7.500000 7.000000 -7.722031
v -9.500000 25.009686 -7.722031
v -9.500000 25.009686 -9.722031
v -7.500000 25.009686 -9.722031
v -7.500000 25.009686 -7.722031
v 1.110353 7.000000 -9.722031
v 1.110353 5.000000 -9.722031
v 1.110353 5.000000 -7.722031
v 1.110353 7.000000 -7.722031
v 1.110353 25.009686 -9.722031
v 1.110353 25.009686 -7.722031
v 19.549999 5.000000 -7.722031
v 19.549999 7.000000 -7.722031
v 19.549999 5.000000 -9.722031
v 19.549999 7.000000 -9.722031
v 17.549999 5.000000 -7.722031
v 17.549999 7.000000 -7.722031
v 17.549999 5.000000 -9.722031
v 17.549999 7.000000 -9.722031
v 19.549999 5.000000 -9.722031
v 19.549999 5.000000 -7.722031
v 19.549999 7.000000 -7.722031
v 19.549999 7.000000 -9.722031
v 17.549999 5.000000 -9.722031
v 17.549999 7.000000 -9.722031
v 17.549999 5.000000 -7.722031
v 17.549999 7.000000 -7.722031
v 19.549999 25.009686 -7.722031
v 19.549999 25.009686 -9.722031
v 17.549999 25.009686 -9.722031
v 17.549999 25.009686 -7.722031
v 8.939648 7.000000 -9.722031
v 8.939648 5.000000 -9.722031
v 8.939648 5.000000 -7.722031
v 8.939648 7.000000 -7.722031
v 8.939648 25.009686 -9.722031
v 8.939648 25.009686 -7.722031
vn 1.0000 -0.0000 -0.0000
vn -0.0000 -0.0000 1.0000
vn -1.0000 -0.0000 -0.0000
vn -0.0000 -0.0000 -1.0000
vn -0.0000 1.0000 -0.0000
vn -0.0000 -1.0000 -0.0000
vt 0.375000 0.000000
vt 0.375000 0.250000
vt 0.625000 0.250000
vt 0.625000 0.000000
vt 0.375000 0.500000
vt 0.625000 0.500000
vt 0.375000 0.750000
vt 0.625000 0.750000
vt 0.375000 1.000000
vt 0.625000 1.000000
vt 0.125000 0.500000
vt 0.125000 0.750000
vt 0.875000 0.750000
vt 0.875000 0.500000
s 0
g Cube.001_Concrete
usemtl Concrete
f 56/44/13 58/45/13 59/46/13 57/47/13
f 58/45/14 62/48/14 63/49/14 59/46/14
f 62/48/15 60/50/15 61/51/15 63/49/15
f 60/50/16 56/52/16 57/53/16 61/51/16
f 58/54/17 56/55/17 60/50/17 62/48/17
f 63/49/18 61/51/18 57/56/18 59/57/18
f 65/44/15 66/47/15 67/46/15 64/45/15
f 64/45/16 67/46/16 69/49/16 68/48/16
f 68/48/16 69/49/16 76/49/16 77/48/16
f 70/50/14 71/51/14 66/53/14 65/52/14
f 64/54/18 68/48/18 70/50/18 65/55/18
f 75/51/14 71/51/14 79/51/14 81/51/14
f 74/49/17 73/57/17 72/56/17 75/51/17
f 67/46/15 66/47/15 72/47/15 73/46/15
f 66/53/14 71/51/14 75/51/14 72/53/14
f 69/49/16 67/46/16 73/46/16 74/49/16
f 77/48/13 76/49/13 79/51/13 78/50/13
f 79/51/13 76/49/13 80/49/13 81/51/13
f 71/51/14 70/50/14 78/50/14 79/51/14
f 70/50/18 68/48/18 77/48/18 78/50/18
f 69/49/16 74/49/16 80/49/16 76/49/16
f 74/49/17 75/51/17 81/51/17 80/49/17
f 82/44/15 83/47/15 85/46/15 84/45/15
f 84/45/14 85/46/14 89/49/14 88/48/14
f 88/48/13 89/49/13 87/51/13 86/50/13
f 86/50/16 87/51/16 83/53/16 82/52/16
f 84/54/17 88/48/17 86/50/17 82/55/17
f 89/49/18 85/57/18 83/56/18 87/51/18
f 91/44/13 90/45/13 93/46/13 92/47/13
f 90/45/16 94/48/16 95/49/16 93/46/16
f 94/48/16 103/48/16 102/49/16 95/49/16
f 96/50/14 91/52/14 92/53/14 97/51/14
f 90/54/18 91/55/18 96/50/18 94/48/18
f 101/51/14 107/51/14 105/51/14 97/51/14
f 100/49/17 101/51/17 98/56/17 99/57/17
f 93/46/13 99/46/13 98/47/13 92/47/13
f 92/53/14 98/53/14 101/51/14 97/51/14
f 95/49/16 100/49/16 99/46/16 93/46/16
f 103/48/15 104/50/15 105/51/15 102/49/15
f 105/51/15 107/51/15 106/49/15 102/49/15
f 97/51/14 105/51/14 104/50/14 96/50/14
f 96/50/18 104/50/18 103/48/18 94/48/18
f 95/49/16 102/49/16 106/49/16 100/49/16
f 100/49/17 106/49/17 107/51/17 101/51/17
o Cube.002
v 2.037626 4.985565 19.711325
v 2.037626 6.985565 19.711325
v 2.037626 4.985565 17.711325
v 2.037626 6.985565 17.711325
v 4.037626 4.985565 19.711325
v 4.037626 6.985565 19.711325
v 4.037626 4.985565 17.711325
v 4.037626 6.985565 17.711325
v 2.037626 4.985565 17.711325
v 2.037626 4.985565 19.711325
v 2.037626 6.985565 19.711325
v 2.037626 6.985565 17.711325
v 4.037626 4.985565 17.711325
v 4.037626 6.985565 17.711325
v 4.037626 4.985565 19.711325
v 4.037626 6.985565 19.711325
v 2.037626 25.000000 19.711325
v 2.037626 25.000000 17.711325
v 4.037626 25.000000 17.711325
v 4.037626 25.000000 19.711325
v 2.037626 6.985565 10.000000
v 2.037626 4.985565 10.000000
v 4.037626 4.985565 10.000000
v 4.037626 6.985565 10.000000
v 2.037626 25.000000 10.000000
v 4.037626 25.000000 10.000000
vn 1.0000 -0.0000 -0.0000
vn -0.0000 -0.0000 1.0000
vn -1.0000 -0.0000 -0.0000
vn -0.0000 -0.0000 -1.0000
vn -0.0000 1.0000 -0.0000
vn -0.0000 -1.0000 -0.0000
vt 0.375000 0.000000
vt 0.375000 0.250000
vt 0.625000 0.250000
vt 0.625000 0.000000
vt 0.375000 0.500000
vt 0.625000 0.500000
vt 0.375000 0.750000
vt 0.625000 0.750000
vt 0.375000 1.000000
vt 0.625000 1.000000
vt 0.125000 0.500000
vt 0.125000 0.750000
vt 0.875000 0.750000
vt 0.875000 0.500000
s 0
g Cube.002_Concrete
usemtl Concrete
f 108/58/19 110/59/19 111/60/19 109/61/19
f 110/59/20 114/62/20 115/63/20 111/60/20
f 114/62/21 112/64/21 113/65/21 115/63/21
f 112/64/22 108/66/22 109/67/22 113/65/22
f 110/68/23 108/69/23 112/64/23 114/62/23
f 115/63/24 113/65/24 109/70/24 111/71/24
f 117/58/21 118/61/21 119/60/21 116/59/21
f 116/59/21 119/60/21 128/60/21 129/59/21
f 120/62/19 121/63/19 123/65/19 122/64/19
f 122/64/20 123/65/20 118/67/20 117/66/20
f 116/68/24 120/62/24 122/64/24 117/69/24
f 118/67/20 123/65/20 127/65/20 124/67/20
f 126/63/23 125/71/23 124/70/23 127/65/23
f 119/60/21 125/60/21 132/60/21 128/60/21
f 123/65/19 121/63/19 126/63/19 127/65/19
f 119/60/21 118/61/21 124/61/21 125/60/21
f 129/59/22 128/60/22 131/63/22 130/62/22
f 131/63/22 128/60/22 132/60/22 133/63/22
f 126/63/19 121/63/19 131/63/19 133/63/19
f 121/63/19 120/62/19 130/62/19 131/63/19
f 120/62/24 116/68/24 129/68/24 130/62/24
f 125/71/23 126/63/23 133/63/23 132/71/23
