# Object Export From Tinkercad Server 2015

mtllib Prison_Solitary_Bed.mtl

o obj_0
v 48 		48.4383 		4
v 48 		48.637 		3.8996
v 47.6667 		48.637 		3.8996
v 47.6667 		48.4383 		4
v 47.6667 		45.0532 		1.8878
v 48 		45.0532 		1.8878
v 47.6667 		37.9594 		1.8123
v 47.6667 		38.4432 		1.8123
v 47.6667 		38.4432 		1.6613
v 47.6667 		37.9594 		1.6613
v 47.6667 		45.747 		2.0963
v 47.6667 		39.048 		1.8123
v 47.6667 		46.1747 		2.3632
v 47.6667 		46.5169 		2.5767
v 47.6667 		39.5318 		1.8123
v 47.6667 		46.9447 		2.8436
v 47.6667 		47.2869 		3.0572
v 47.6667 		39.5318 		1.6613
v 47.6667 		47.7147 		3.3241
v 47.6667 		48.0569 		3.5376
v 47.6667 		39.048 		1.6613
v 47.6667 		48.4847 		3.8045
v 47.6667 		40.1366 		1.8123
v 47.6667 		40.6205 		1.8123
v 47.6667 		40.6205 		1.6613
v 47.6667 		40.1366 		1.6613
v 48 		44.7331 		1.8878
v 47.6667 		44.7331 		1.8878
v 48 		33 		1.8878
v 47.6667 		41.2253 		1.8123
v 48 		33.3629 		1.8878
v 47.6667 		33.3629 		1.8878
v 47.6667 		41.7091 		1.8123
v 47.6667 		33 		1.8878
v 47.6667 		41.7091 		1.6613
v 48 		45.096 		0
v 47.6667 		41.2253 		1.6613
v 48 		44.7331 		0
v 47.6667 		44.7331 		0
v 47.6667 		45.096 		0
v 40.3333 		46.2226 		2.3333
v 48 		33.3629 		0
v 48 		33 		0
v 47.6667 		46.2226 		2.3333
v 47.6667 		33 		0
v 47.6667 		45.7949 		2.0663
v 47.6667 		33.3629 		0
v 47.6667 		42.3139 		1.8123
v 40.3333 		45.7949 		2.0663
v 47.6667 		42.7978 		1.8123
v 47.6667 		42.7978 		1.6613
v 47.6667 		42.3139 		1.6613
v 47.6667 		33 		1.8123
v 47.6667 		33 		1.6613
v 47.6667 		43.4026 		1.8123
v 47.6667 		43.8864 		1.8123
v 47.6667 		43.8864 		1.6613
v 47.6667 		43.4026 		1.6613
v 48 		45.096 		1.6901
v 47.6667 		45.096 		1.6901
v 47.6667 		45.4048 		1.8828
v 47.6667 		44.4912 		1.8123
v 47.6667 		44.7331 		1.8123
v 47.6667 		44.8541 		1.6925
v 47.6667 		44.7331 		1.6613
v 47.6667 		44.4912 		1.6613
v 47.6667 		45.096 		1.63
v 47.6667 		35.7821 		1.8123
v 40.3333 		35.7821 		1.8123
v 40.3333 		35.1773 		1.8123
v 47.6667 		35.1773 		1.8123
v 47.6667 		45.6239 		2.1731
v 47.6667 		45.2818 		1.9596
v 40.3333 		37.9594 		1.8123
v 48 		44.7331 		1.8123
v 40.3333 		37.3546 		1.8123
v 47.6667 		37.3546 		1.8123
v 40.3333 		39.048 		1.8123
v 40.3333 		38.4432 		1.8123
v 48 		33.3629 		1.8123
v 40.3333 		40.1366 		1.8123
v 40.3333 		39.5318 		1.8123
v 47.6667 		36.8707 		1.8123
v 47.6667 		36.2659 		1.8123
v 47.6667 		46.8213 		2.9207
v 47.6667 		46.3937 		2.6537
v 47.6667 		34.6934 		1.8123
v 47.6667 		46.0515 		2.4401
v 40.3333 		41.2253 		1.8123
v 47.6667 		34.0886 		1.8123
v 40.3333 		40.6205 		1.8123
v 47.6667 		33.6048 		1.8123
v 47.6667 		33.3629 		1.8123
v 48 		44.7331 		1.6613
v 40.3333 		42.3139 		1.8123
v 40.3333 		41.7091 		1.8123
v 40.3333 		46.9924 		2.8138
v 47.6667 		46.9924 		2.8138
v 47.6667 		46.5647 		2.5469
v 40.3333 		46.5647 		2.5469
v 40.3333 		43.4026 		1.8123
v 40.3333 		42.7978 		1.8123
v 40.3333 		44.4912 		1.8123
v 40.3333 		43.8864 		1.8123
v 48 		33.3629 		1.6613
v 47.6667 		33.3629 		1.6613
v 47.6667 		33.6048 		1.6613
v 47.6667 		34.0886 		1.6613
v 47.6667 		34.6934 		1.6613
v 47.6667 		35.1773 		1.6613
v 47.6667 		35.7821 		1.6613
v 47.6667 		36.2659 		1.6613
v 47.6667 		36.8707 		1.6613
v 47.6667 		37.3546 		1.6613
v 40.3333 		33 		1.6613
v 40.3333 		33.3629 		1.6613
v 40.3333 		33.6048 		1.6613
v 40.3333 		34.0886 		1.6613
v 40.3333 		34.6934 		1.6613
v 40.3333 		36.2659 		1.6613
v 40.3333 		36.8707 		1.6613
v 40.3333 		35.1773 		1.6613
v 40.3333 		35.7821 		1.6613
v 47.6667 		47.7622 		3.2944
v 47.6667 		47.3345 		3.0275
v 40.3333 		37.3546 		1.6613
v 40.3333 		37.9594 		1.6613
v 40.3333 		38.4432 		1.6613
v 40.3333 		39.048 		1.6613
v 40.3333 		39.5318 		1.6613
v 40.3333 		40.1366 		1.6613
v 40.3333 		40.6205 		1.6613
v 40.3333 		41.2253 		1.6613
v 40.3333 		41.7091 		1.6613
v 40.3333 		42.3139 		1.6613
v 40.3333 		42.7978 		1.6613
v 40.3333 		43.4026 		1.6613
v 40.3333 		43.8864 		1.6613
v 40.3333 		44.4912 		1.6613
v 40.3333 		33 		1.8123
v 47.6667 		47.9333 		3.6148
v 40.3333 		33.6048 		1.8123
v 47.6667 		48.3608 		3.8818
v 40.3333 		34.0886 		1.8123
v 47.6667 		48.532 		3.775
v 47.6667 		48.1043 		3.508
v 40 		48.637 		3.8996
v 40 		48.4383 		4
v 40.3333 		48.4383 		4
v 40.3333 		48.637 		3.8996
v 40 		45.0532 		1.8878
v 40.3333 		34.6934 		1.8123
v 40.3333 		45.0532 		1.8878
v 40.3333 		48.4847 		3.8045
v 40.3333 		48.0569 		3.5376
v 40.3333 		47.7147 		3.3241
v 40.3333 		47.2869 		3.0572
v 40.3333 		46.9447 		2.8436
v 40.3333 		46.5169 		2.5767
v 40.3333 		46.1747 		2.3632
v 40.3333 		45.747 		2.0963
v 40.3333 		36.2659 		1.8123
v 40 		33.3629 		1.8878
v 40 		33 		1.8878
v 40.3333 		33 		1.8878
v 40.3333 		33.3629 		1.8878
v 40 		44.7331 		1.8878
v 40.3333 		44.7331 		1.8878
v 40.3333 		47.7622 		3.2944
v 40.3333 		47.3345 		3.0275
v 40.3333 		33 		0
v 40 		33 		0
v 40 		33.3629 		0
v 40.3333 		33.3629 		0
v 40.3333 		44.7331 		0
v 40 		44.7331 		0
v 40 		45.096 		0
v 40.3333 		45.096 		0
v 47.6667 		47.5911 		3.4013
v 47.6667 		47.1635 		3.1342
v 40.3333 		33.3629 		1.8123
v 40 		33.3629 		1.8123
v 40 		44.7331 		1.8123
v 40.3333 		36.8707 		1.8123
v 40.3333 		44.7331 		1.8123
v 40 		33.3629 		1.6613
v 40.3333 		48.532 		3.775
v 40.3333 		48.1043 		3.508
v 47.6667 		45.0251 		1.5858
v 40 		44.7331 		1.6613
v 40.3333 		44.7331 		1.6613
v 47.6667 		45.4528 		1.8528
v 40.3333 		45.4048 		1.8828
v 40.3333 		47.1635 		3.1342
v 40.3333 		47.9333 		3.6148
v 40.3333 		48.3608 		3.8818
v 40.3333 		47.5911 		3.4013
v 40.3333 		45.096 		1.63
v 40.3333 		45.0251 		1.5858
v 40.3333 		45.4528 		1.8528
v 40.3333 		45.096 		1.6901
v 40 		45.096 		1.6901
v 40.3333 		45.2818 		1.9596
v 40.3333 		45.6239 		2.1731
v 40.3333 		46.0515 		2.4401
v 40.3333 		44.8541 		1.6925
v 40.3333 		46.3937 		2.6537
v 40.3333 		46.8213 		2.9207
# 208 vertices

g group_0_11107152

usemtl color_11107152
s 0

f 3 	4 	2
f 1 	2 	4
f 4 	5 	6
f 4 	6 	1
f 7 	8 	9
f 7 	9 	10
f 12 	15 	18
f 12 	18 	21
f 11 	13 	59
f 13 	14 	59
f 14 	16 	59
f 2 	59 	16
f 2 	16 	17
f 2 	17 	19
f 2 	19 	20
f 2 	20 	22
f 2 	22 	3
f 1 	6 	2
f 23 	24 	25
f 23 	25 	26
f 27 	6 	5
f 27 	5 	28
f 29 	31 	32
f 29 	32 	34
f 30 	33 	35
f 30 	35 	37
f 36 	38 	39
f 36 	39 	40
f 42 	43 	45
f 42 	45 	47
f 41 	44 	46
f 41 	46 	49
f 48 	50 	51
f 48 	51 	52
f 43 	29 	54
f 45 	43 	54
f 53 	54 	29
f 34 	53 	29
f 55 	56 	57
f 55 	57 	58
f 60 	61 	59
f 59 	61 	11
f 59 	2 	6
f 64 	65 	63
f 62 	63 	65
f 62 	65 	66
f 40 	67 	36
f 60 	59 	67
f 68 	69 	70
f 68 	70 	71
f 36 	67 	59
f 28 	63 	75
f 28 	75 	27
f 7 	74 	76
f 7 	76 	77
f 27 	75 	6
f 12 	78 	79
f 12 	79 	8
f 23 	81 	82
f 23 	82 	15
f 86 	5 	85
f 88 	5 	86
f 30 	89 	91
f 30 	91 	24
f 63 	62 	75
f 62 	56 	75
f 56 	55 	75
f 55 	50 	75
f 50 	48 	75
f 48 	33 	75
f 33 	30 	75
f 30 	24 	75
f 24 	23 	75
f 23 	15 	75
f 15 	12 	75
f 80 	75 	12
f 80 	12 	8
f 80 	8 	7
f 80 	7 	77
f 80 	77 	83
f 80 	83 	84
f 80 	84 	68
f 80 	68 	71
f 80 	71 	87
f 80 	87 	90
f 80 	90 	92
f 80 	92 	93
f 48 	95 	96
f 48 	96 	33
f 97 	98 	99
f 97 	99 	100
f 65 	39 	94
f 94 	39 	38
f 55 	101 	102
f 55 	102 	50
f 36 	94 	38
f 62 	103 	104
f 62 	104 	56
f 160 	44 	41
f 54 	115 	116
f 117 	107 	116
f 107 	106 	116
f 54 	116 	106
f 106 	107 	105
f 107 	108 	105
f 108 	109 	105
f 109 	110 	105
f 110 	111 	105
f 111 	112 	105
f 112 	113 	105
f 113 	114 	105
f 114 	10 	105
f 10 	9 	105
f 9 	21 	105
f 94 	105 	21
f 94 	21 	18
f 94 	18 	26
f 94 	26 	25
f 94 	25 	37
f 94 	37 	35
f 94 	35 	52
f 94 	52 	51
f 94 	51 	58
f 94 	58 	57
f 94 	57 	66
f 94 	66 	65
f 108 	118 	119
f 108 	119 	109
f 80 	105 	94
f 36 	59 	94
f 59 	75 	94
f 6 	75 	59
f 80 	94 	75
f 112 	120 	121
f 112 	121 	113
f 31 	80 	93
f 31 	93 	32
f 105 	42 	47
f 105 	47 	106
f 43 	105 	29
f 42 	105 	43
f 105 	80 	29
f 31 	29 	80
f 110 	122 	123
f 110 	123 	111
f 114 	126 	127
f 114 	127 	10
f 72 	5 	88
f 73 	5 	72
f 4 	85 	5
f 64 	189 	65
f 5 	73 	64
f 9 	128 	129
f 9 	129 	21
f 5 	64 	63
f 28 	5 	63
f 18 	130 	131
f 18 	131 	26
f 34 	32 	93
f 34 	93 	53
f 25 	132 	133
f 25 	133 	37
f 67 	192 	60
f 35 	134 	135
f 35 	135 	52
f 51 	136 	137
f 51 	137 	58
f 106 	47 	45
f 106 	45 	54
f 11 	46 	13
f 57 	138 	139
f 57 	139 	66
f 92 	90 	108
f 92 	108 	107
f 140 	115 	54
f 140 	54 	53
f 99 	16 	14
f 87 	71 	110
f 87 	110 	109
f 20 	19 	141
f 92 	107 	117
f 92 	117 	142
f 17 	125 	19
f 124 	19 	125
f 68 	84 	112
f 68 	112 	111
f 4 	3 	143
f 20 	146 	22
f 145 	22 	146
f 144 	118 	108
f 144 	108 	90
f 83 	77 	114
f 83 	114 	113
f 147 	148 	149
f 147 	149 	150
f 87 	109 	119
f 87 	119 	152
f 148 	151 	153
f 148 	153 	149
f 155 	156 	147
f 156 	157 	147
f 157 	158 	147
f 202 	147 	158
f 159 	202 	158
f 160 	202 	159
f 161 	202 	160
f 154 	155 	147
f 150 	154 	147
f 70 	122 	110
f 70 	110 	71
f 148 	147 	151
f 202 	151 	147
f 97 	16 	98
f 163 	164 	165
f 163 	165 	166
f 151 	167 	168
f 151 	168 	153
f 169 	124 	125
f 169 	125 	170
f 171 	172 	173
f 171 	173 	174
f 175 	176 	177
f 175 	177 	178
f 4 	179 	180
f 4 	180 	85
f 164 	140 	165
f 172 	171 	115
f 39 	65 	189
f 164 	172 	115
f 164 	115 	140
f 166 	181 	182
f 166 	182 	163
f 44 	160 	13
f 182 	164 	163
f 72 	11 	61
f 61 	73 	72
f 99 	159 	100
f 88 	86 	13
f 14 	13 	86
f 158 	16 	97
f 85 	180 	16
f 17 	16 	180
f 181 	142 	182
f 142 	144 	182
f 144 	152 	182
f 152 	70 	182
f 70 	69 	182
f 69 	162 	182
f 162 	184 	182
f 184 	76 	182
f 76 	74 	182
f 74 	79 	182
f 79 	78 	182
f 183 	182 	78
f 183 	78 	82
f 183 	82 	81
f 183 	81 	91
f 183 	91 	89
f 183 	89 	96
f 183 	96 	95
f 183 	95 	102
f 183 	102 	101
f 183 	101 	104
f 183 	104 	103
f 183 	103 	185
f 156 	124 	169
f 22 	143 	3
f 4 	143 	141
f 19 	179 	141
f 4 	141 	179
f 173 	186 	116
f 173 	116 	174
f 187 	145 	146
f 187 	146 	188
f 173 	172 	186
f 67 	40 	189
f 64 	199 	189
f 61 	60 	192
f 191 	139 	190
f 139 	138 	190
f 138 	137 	190
f 137 	136 	190
f 136 	135 	190
f 135 	134 	190
f 134 	133 	190
f 133 	132 	190
f 132 	131 	190
f 131 	130 	190
f 130 	129 	190
f 186 	190 	129
f 186 	129 	128
f 186 	128 	127
f 186 	127 	126
f 186 	126 	121
f 186 	121 	120
f 186 	120 	123
f 186 	123 	122
f 186 	122 	119
f 186 	119 	118
f 186 	118 	117
f 186 	117 	116
f 200 	193 	61
f 203 	73 	193
f 49 	46 	161
f 46 	11 	161
f 72 	161 	11
f 189 	40 	39
f 14 	86 	159
f 99 	14 	159
f 13 	46 	44
f 98 	16 	99
f 158 	194 	208
f 17 	194 	157
f 125 	17 	170
f 157 	170 	17
f 196 	149 	195
f 149 	197 	195
f 124 	156 	19
f 197 	19 	156
f 198 	199 	178
f 199 	175 	178
f 188 	146 	155
f 146 	20 	155
f 195 	155 	20
f 195 	20 	141
f 145 	187 	22
f 187 	154 	22
f 143 	22 	154
f 143 	154 	196
f 162 	120 	112
f 162 	112 	84
f 83 	113 	121
f 83 	121 	184
f 68 	111 	123
f 68 	123 	69
f 198 	201 	200
f 76 	126 	114
f 76 	114 	77
f 160 	41 	49
f 7 	10 	127
f 7 	127 	74
f 79 	128 	9
f 79 	9 	8
f 12 	21 	129
f 12 	129 	78
f 49 	161 	160
f 82 	130 	18
f 82 	18 	15
f 100 	159 	158
f 100 	158 	97
f 156 	169 	170
f 23 	26 	131
f 23 	131 	81
f 91 	132 	25
f 91 	25 	24
f 161 	204 	193
f 30 	37 	133
f 30 	133 	89
f 193 	200 	201
f 205 	160 	207
f 194 	158 	157
f 156 	155 	195
f 156 	195 	197
f 170 	157 	156
f 149 	196 	150
f 154 	150 	196
f 188 	155 	154
f 188 	154 	187
f 92 	142 	181
f 140 	53 	181
f 53 	93 	181
f 92 	181 	93
f 87 	152 	144
f 87 	144 	90
f 83 	184 	162
f 83 	162 	84
f 183 	190 	186
f 172 	164 	186
f 164 	182 	186
f 183 	186 	182
f 167 	183 	185
f 167 	185 	168
f 190 	176 	175
f 190 	175 	191
f 161 	193 	202
f 202 	193 	201
f 202 	198 	177
f 201 	198 	202
f 178 	177 	198
f 202 	177 	190
f 151 	202 	183
f 167 	151 	183
f 190 	183 	202
f 176 	190 	177
f 153 	203 	204
f 153 	204 	205
f 205 	207 	153
f 166 	165 	140
f 166 	140 	181
f 206 	153 	185
f 168 	185 	153
f 203 	153 	206
f 115 	171 	174
f 115 	174 	116
f 117 	118 	144
f 117 	144 	142
f 119 	122 	70
f 119 	70 	152
f 123 	120 	162
f 123 	162 	69
f 121 	126 	76
f 121 	76 	184
f 127 	128 	79
f 127 	79 	74
f 129 	130 	82
f 129 	82 	78
f 131 	132 	91
f 131 	91 	81
f 133 	134 	96
f 133 	96 	89
f 135 	136 	102
f 135 	102 	95
f 137 	138 	104
f 137 	104 	101
f 139 	191 	185
f 139 	185 	103
f 185 	191 	206
f 175 	199 	191
f 206 	191 	199
f 149 	153 	208
f 207 	208 	153
f 203 	193 	204
f 159 	207 	160
f 197 	149 	194
f 149 	208 	194
f 96 	134 	35
f 96 	35 	33
f 48 	52 	135
f 48 	135 	95
f 102 	136 	51
f 102 	51 	50
f 55 	58 	137
f 55 	137 	101
f 104 	138 	57
f 104 	57 	56
f 62 	66 	139
f 62 	139 	103
f 64 	73 	206
f 203 	206 	73
f 206 	199 	64
f 88 	205 	204
f 88 	204 	72
f 61 	193 	73
f 204 	161 	72
f 85 	208 	207
f 85 	207 	86
f 179 	197 	194
f 179 	194 	180
f 160 	205 	13
f 88 	13 	205
f 207 	159 	86
f 16 	158 	85
f 208 	85 	158
f 17 	180 	194
f 179 	19 	197
f 143 	196 	195
f 143 	195 	141
f 189 	199 	198
f 200 	192 	198
f 192 	67 	198
f 189 	198 	67
f 192 	200 	61
# 472 faces

 #end of obj_0

